if (_typeface_js && _typeface_js.loadFace) _typeface_js.loadFace({"glyphs":{"0":{"ha":733,"x_min":0,"x_max":0,"o":"m 367 -17 b 682 444 556 -17 682 144 b 367 899 682 744 556 899 b 51 444 178 899 51 744 b 367 -17 51 144 178 -17 z m 367 142 b 244 444 299 142 244 204 b 367 740 244 686 299 740 b 489 444 436 740 489 686 b 367 142 489 204 436 142 z "},"1":{"ha":733,"x_min":0,"x_max":0,"o":"m 97 0 l 658 0 l 658 165 l 493 165 l 493 882 l 343 882 b 124 801 281 844 219 819 l 124 675 l 289 675 l 289 165 l 97 165 z "},"2":{"ha":733,"x_min":0,"x_max":0,"o":"m 51 0 l 672 0 l 672 172 l 494 172 b 347 161 453 172 392 167 b 629 618 490 311 629 469 b 338 899 629 788 511 899 b 42 758 211 899 129 851 l 153 649 b 310 739 197 696 246 739 b 435 606 386 739 435 692 b 51 117 435 481 276 329 z "},"3":{"ha":733,"x_min":0,"x_max":0,"o":"m 338 -17 b 665 240 515 -17 665 76 b 490 456 665 354 592 426 l 490 461 b 638 657 585 501 638 565 b 333 899 638 811 515 899 b 56 786 225 899 136 856 l 158 661 b 324 739 214 710 261 739 b 432 642 393 739 432 703 b 224 524 432 571 382 524 l 224 379 b 461 253 415 379 461 331 b 318 149 461 186 404 149 b 125 238 243 149 178 186 l 31 108 b 338 -17 94 33 194 -17 z "},"4":{"ha":733,"x_min":0,"x_max":0,"o":"m 408 0 l 599 0 l 599 211 l 700 211 l 700 367 l 599 367 l 599 882 l 349 882 l 26 351 l 26 211 l 408 211 z m 222 367 l 339 558 b 411 707 364 608 389 658 l 417 707 b 408 510 414 651 408 567 l 408 367 z "},"5":{"ha":733,"x_min":0,"x_max":0,"o":"m 343 -17 b 667 292 515 -17 667 96 b 386 565 667 479 538 565 b 288 544 350 565 321 560 l 303 710 l 626 710 l 626 882 l 126 882 l 101 436 l 193 378 b 324 422 246 411 272 422 b 463 286 406 422 463 375 b 314 149 463 196 404 149 b 124 236 239 149 176 188 l 32 107 b 343 -17 101 38 199 -17 z "},"6":{"ha":733,"x_min":0,"x_max":0,"o":"m 390 -17 b 683 279 550 -17 683 96 b 421 551 683 465 572 551 b 244 458 367 551 290 517 b 426 733 251 664 329 733 b 564 671 478 733 533 704 l 671 793 b 414 899 615 850 531 899 b 57 421 228 899 57 750 b 390 -17 57 111 219 -17 z m 386 136 b 249 319 325 136 267 181 b 382 407 285 382 336 407 b 497 279 449 407 497 372 b 386 136 497 179 447 136 z "},"7":{"ha":733,"x_min":0,"x_max":0,"o":"m 221 0 l 426 0 b 675 757 442 344 471 510 l 675 882 l 61 882 l 61 710 l 457 710 b 221 0 290 479 238 293 z "},"8":{"ha":733,"x_min":0,"x_max":0,"o":"m 365 -17 b 678 228 553 -17 678 89 b 525 458 678 344 610 413 l 525 464 b 640 657 586 504 640 572 b 372 899 640 803 533 899 b 90 656 208 899 90 806 b 208 447 90 563 140 499 l 208 442 b 58 225 125 397 58 332 b 365 -17 58 82 189 -17 z m 421 514 b 269 656 331 549 269 583 b 368 757 269 724 314 757 b 475 643 435 757 475 711 b 421 514 475 597 456 554 z m 369 125 b 233 249 296 125 233 171 b 301 389 233 303 263 353 b 488 235 413 342 488 313 b 369 125 488 161 438 125 z "},"9":{"ha":733,"x_min":0,"x_max":0,"o":"m 350 475 b 233 603 283 475 233 510 b 344 746 233 703 285 746 b 482 563 407 746 464 701 b 350 475 447 500 396 475 z m 318 -17 b 675 461 503 -17 675 132 b 340 899 675 771 511 899 b 47 603 181 899 47 786 b 310 331 47 417 160 331 b 486 424 364 331 440 365 b 304 149 479 218 403 149 b 168 211 253 149 197 178 l 60 89 b 318 -17 115 33 201 -17 z "}," ":{"ha":278,"x_min":0,"x_max":0,"o":""},"A":{"ha":796,"x_min":0,"x_max":0,"o":"m 319 458 b 390 750 344 549 368 654 l 396 750 b 469 458 419 656 444 549 l 490 375 l 297 375 z m -8 0 l 200 0 l 256 215 l 532 215 l 588 0 l 804 0 l 521 906 l 275 906 z "},"B":{"ha":840,"x_min":0,"x_max":0,"o":"m 107 0 l 443 0 b 794 267 639 0 794 82 b 632 479 794 388 724 456 l 632 485 b 750 681 706 513 750 600 b 417 906 750 854 604 906 l 107 906 z m 311 543 l 311 747 l 408 747 b 550 650 504 747 550 721 b 407 543 550 585 507 543 z m 311 158 l 311 392 l 426 392 b 594 281 539 392 594 360 b 426 158 594 197 538 158 z "},"C":{"ha":808,"x_min":0,"x_max":0,"o":"m 485 -17 b 778 117 603 -17 703 29 l 669 244 b 493 160 625 197 567 160 b 274 454 360 160 274 268 b 496 746 274 636 372 746 b 656 674 561 746 610 715 l 764 804 b 492 922 703 867 608 922 b 64 447 263 922 64 747 b 485 -17 64 143 256 -17 z "},"D":{"ha":882,"x_min":0,"x_max":0,"o":"m 107 0 l 374 0 b 817 457 639 0 817 146 b 363 906 817 768 639 906 l 107 906 z m 311 165 l 311 740 l 350 740 b 607 457 504 740 607 674 b 350 165 607 240 504 165 z "},"E":{"ha":761,"x_min":0,"x_max":0,"o":"m 107 0 l 688 0 l 688 172 l 311 172 l 311 381 l 619 381 l 619 551 l 311 551 l 311 733 l 674 733 l 674 906 l 107 906 z "},"F":{"ha":728,"x_min":0,"x_max":0,"o":"m 107 0 l 311 0 l 311 351 l 625 351 l 625 524 l 311 524 l 311 733 l 678 733 l 678 906 l 107 906 z "},"G":{"ha":886,"x_min":0,"x_max":0,"o":"m 507 -17 b 806 93 633 -17 743 32 l 806 510 l 475 510 l 475 343 l 625 343 l 625 188 b 528 160 603 169 565 160 b 274 454 358 160 274 268 b 513 746 274 636 372 746 b 683 674 590 746 638 714 l 790 804 b 506 922 731 865 636 922 b 64 447 264 922 64 747 b 507 -17 64 143 258 -17 z "},"H":{"ha":936,"x_min":0,"x_max":0,"o":"m 107 0 l 311 0 l 311 378 l 624 378 l 624 0 l 829 0 l 829 906 l 624 906 l 624 557 l 311 557 l 311 906 l 107 906 z "},"I":{"ha":418,"x_min":0,"x_max":0,"o":"m 107 0 l 311 0 l 311 906 l 107 906 z "},"J":{"ha":707,"x_min":0,"x_max":0,"o":"m 314 -17 b 604 301 514 -17 604 126 l 604 906 l 400 906 l 400 318 b 288 160 400 197 361 160 b 161 250 242 160 194 189 l 22 147 b 314 -17 85 38 176 -17 z "},"K":{"ha":853,"x_min":0,"x_max":0,"o":"m 107 0 l 311 0 l 311 243 l 417 382 l 638 0 l 861 0 l 538 544 l 811 906 l 586 906 l 317 535 l 311 535 l 311 906 l 107 906 z "},"L":{"ha":719,"x_min":0,"x_max":0,"o":"m 107 0 l 669 0 l 669 172 l 311 172 l 311 906 l 107 906 z "},"M":{"ha":1058,"x_min":0,"x_max":0,"o":"m 107 0 l 290 0 l 290 332 b 264 640 290 421 274 553 l 269 640 l 342 425 l 471 79 l 583 79 l 713 425 l 786 640 l 792 640 b 765 332 782 553 765 421 l 765 0 l 951 0 l 951 906 l 729 906 l 586 503 b 535 336 568 450 553 392 l 529 336 b 476 503 511 392 494 450 l 331 906 l 107 906 z "},"N":{"ha":924,"x_min":0,"x_max":0,"o":"m 107 0 l 301 0 l 301 321 b 276 649 301 428 285 549 l 282 649 l 371 451 l 607 0 l 817 0 l 817 906 l 622 906 l 622 586 b 647 256 622 479 639 351 l 642 256 l 553 456 l 317 906 l 107 906 z "},"O":{"ha":950,"x_min":0,"x_max":0,"o":"m 475 -17 b 886 457 719 -17 886 161 b 475 922 886 751 719 922 b 64 457 231 922 64 753 b 475 -17 64 161 231 -17 z m 475 160 b 274 457 351 160 274 275 b 475 746 274 638 351 746 b 676 457 599 746 676 638 b 475 160 676 275 599 160 z "},"P":{"ha":828,"x_min":0,"x_max":0,"o":"m 107 0 l 311 0 l 311 307 l 424 307 b 778 614 615 307 778 401 b 418 906 778 833 617 906 l 107 906 z m 311 469 l 311 743 l 406 743 b 578 614 517 743 578 708 b 411 469 578 519 524 469 z "},"Q":{"ha":950,"x_min":0,"x_max":0,"o":"m 475 150 b 274 457 351 150 274 264 b 475 746 274 638 351 746 b 676 457 599 746 676 638 b 475 150 676 264 599 150 z m 774 -253 b 933 -222 843 -253 900 -239 l 897 -74 b 797 -89 871 -82 836 -89 b 599 0 721 -89 640 -64 b 886 457 774 50 886 214 b 475 922 886 751 719 922 b 64 457 231 922 64 753 b 382 -7 64 201 189 33 b 774 -253 446 -149 582 -253 z "},"R":{"ha":851,"x_min":0,"x_max":0,"o":"m 107 0 l 311 0 l 311 326 l 424 326 l 597 0 l 826 0 l 621 363 b 782 624 718 406 782 490 b 433 906 782 839 625 906 l 107 906 z m 311 489 l 311 743 l 417 743 b 582 624 524 743 582 713 b 417 489 582 535 524 489 z "},"S":{"ha":772,"x_min":0,"x_max":0,"o":"m 383 -17 b 725 264 600 -17 725 114 b 546 510 725 392 656 465 l 429 557 b 292 664 351 589 292 608 b 407 746 292 715 336 746 b 594 674 479 746 535 719 l 699 803 b 407 922 621 881 511 922 b 85 653 218 922 85 803 b 267 406 85 521 174 443 l 385 356 b 515 247 464 322 515 304 b 389 160 515 193 474 160 b 165 254 314 160 231 199 l 49 114 b 383 -17 140 28 265 -17 z "},"T":{"ha":772,"x_min":0,"x_max":0,"o":"m 283 0 l 489 0 l 489 733 l 738 733 l 738 906 l 35 906 l 35 733 l 283 733 z "},"U":{"ha":924,"x_min":0,"x_max":0,"o":"m 464 -17 b 821 419 697 -17 821 115 l 821 906 l 624 906 l 624 399 b 464 160 624 221 565 160 b 307 399 363 160 307 221 l 307 906 l 101 906 l 101 419 b 464 -17 101 115 229 -17 z "},"V":{"ha":772,"x_min":0,"x_max":0,"o":"m 264 0 l 510 0 l 782 906 l 574 906 l 467 483 b 394 193 440 385 421 293 l 389 193 b 315 483 361 293 343 385 l 207 906 l -10 906 z "},"W":{"ha":1129,"x_min":0,"x_max":0,"o":"m 188 0 l 440 0 l 525 411 b 563 621 540 481 551 554 l 568 621 b 604 411 578 554 589 481 l 693 0 l 950 0 l 1111 906 l 915 906 l 853 482 b 815 196 840 389 828 293 l 810 196 b 756 482 792 293 774 390 l 658 906 l 485 906 l 388 482 b 333 196 369 388 351 292 l 328 196 b 292 482 317 292 303 388 l 229 906 l 19 906 z "},"X":{"ha":788,"x_min":0,"x_max":0,"o":"m 15 0 l 235 0 l 319 185 b 381 333 339 232 360 278 l 386 333 b 454 185 411 278 432 232 l 544 0 l 772 0 l 522 456 l 757 906 l 539 906 l 467 735 b 408 589 449 693 429 646 l 403 589 b 338 735 378 646 358 693 l 258 906 l 31 906 l 267 465 z "},"Y":{"ha":729,"x_min":0,"x_max":0,"o":"m 263 0 l 467 0 l 467 322 l 740 906 l 526 906 l 444 697 b 368 497 419 629 394 567 l 363 497 b 289 697 338 567 314 629 l 208 906 l -11 906 l 263 322 z "},"Z":{"ha":751,"x_min":0,"x_max":0,"o":"m 50 0 l 706 0 l 706 172 l 301 172 l 701 782 l 701 906 l 88 906 l 88 733 l 450 733 l 50 124 z "},"a":{"ha":732,"x_min":0,"x_max":0,"o":"m 264 -17 b 464 71 342 -17 406 19 l 469 71 l 483 0 l 650 0 l 650 394 b 376 706 650 606 553 706 b 82 615 268 706 169 668 l 156 481 b 338 543 222 519 279 543 b 446 443 413 543 442 504 b 58 192 174 415 58 336 b 264 -17 58 75 138 -17 z m 333 142 b 254 207 285 142 254 163 b 446 321 254 260 301 301 l 446 200 b 333 142 410 164 379 142 z "},"b":{"ha":796,"x_min":0,"x_max":0,"o":"m 451 -17 b 742 357 600 -17 742 119 b 471 706 742 568 638 706 b 289 629 407 706 342 676 l 294 735 l 294 974 l 90 974 l 90 0 l 250 0 l 267 74 l 272 74 b 451 -17 326 14 390 -17 z m 404 150 b 294 194 369 150 331 161 l 294 476 b 413 539 333 519 371 539 b 532 353 494 539 532 476 b 404 150 532 211 475 150 z "},"c":{"ha":649,"x_min":0,"x_max":0,"o":"m 390 -17 b 618 65 465 -17 550 6 l 538 199 b 414 149 501 171 458 149 b 260 344 325 149 260 225 b 421 540 260 464 322 540 b 514 500 453 540 481 528 l 610 632 b 408 706 558 675 493 706 b 50 344 218 706 50 574 b 390 -17 50 115 199 -17 z "},"d":{"ha":796,"x_min":0,"x_max":0,"o":"m 336 -17 b 519 68 403 -17 471 19 l 525 68 l 539 0 l 706 0 l 706 974 l 501 974 l 501 739 l 510 633 b 340 706 463 678 417 706 b 54 344 194 706 54 569 b 336 -17 54 119 165 -17 z m 389 150 b 264 347 310 150 264 211 b 388 539 264 478 322 539 b 501 494 425 539 465 528 l 501 213 b 389 150 468 167 433 150 z "},"e":{"ha":719,"x_min":0,"x_max":0,"o":"m 399 -17 b 643 61 481 -17 572 13 l 575 185 b 426 139 525 154 478 139 b 247 285 335 139 265 185 l 660 285 b 668 375 664 301 668 339 b 375 706 668 563 571 706 b 50 344 210 706 50 568 b 399 -17 50 117 201 -17 z m 246 419 b 379 550 260 507 315 550 b 494 419 461 550 494 496 z "},"f":{"ha":474,"x_min":0,"x_max":0,"o":"m 125 0 l 329 0 l 329 529 l 453 529 l 453 689 l 329 689 l 329 731 b 408 829 329 801 358 829 b 479 815 431 829 456 824 l 517 965 b 379 990 486 976 436 990 b 125 725 193 990 125 871 l 125 688 l 33 681 l 33 529 l 125 529 z "},"g":{"ha":742,"x_min":0,"x_max":0,"o":"m 336 -293 b 721 -46 572 -293 721 -189 b 458 129 721 78 628 129 l 347 129 b 243 181 271 129 243 146 b 268 232 243 204 250 217 b 351 218 299 222 326 218 b 622 450 503 218 622 292 b 600 540 622 486 613 519 l 710 540 l 710 689 l 458 689 b 351 706 428 700 390 706 b 67 457 203 706 67 622 b 160 278 67 376 111 311 l 160 272 b 82 143 115 242 82 193 b 146 26 82 86 110 50 l 146 21 b 47 -118 82 -15 47 -61 b 336 -293 47 -240 175 -293 z m 351 342 b 257 457 297 342 257 381 b 351 568 257 531 297 568 b 446 457 406 568 446 529 b 351 342 446 381 406 342 z m 368 -165 b 215 -86 276 -165 215 -137 b 253 -18 215 -61 228 -40 b 350 -26 275 -24 303 -26 l 421 -26 b 526 -81 489 -26 526 -37 b 368 -165 526 -128 460 -165 z "},"h":{"ha":793,"x_min":0,"x_max":0,"o":"m 90 0 l 294 0 l 294 465 b 422 532 339 508 371 532 b 507 401 481 532 507 501 l 507 0 l 711 0 l 711 428 b 497 706 711 600 647 706 b 285 611 404 706 336 657 l 294 735 l 294 974 l 90 974 z "},"i":{"ha":383,"x_min":0,"x_max":0,"o":"m 90 0 l 294 0 l 294 689 l 90 689 z m 192 790 b 310 897 261 790 310 835 b 192 1003 310 960 261 1003 b 74 897 124 1003 74 960 b 192 790 74 835 124 790 z "},"j":{"ha":386,"x_min":0,"x_max":0,"o":"m 50 -272 b 296 4 238 -272 296 -146 l 296 689 l 92 689 l 92 -1 b 19 -112 92 -78 74 -112 b -35 -103 0 -112 -17 -108 l -71 -253 b 50 -272 -43 -264 -7 -272 z m 194 790 b 313 897 263 790 313 835 b 194 1003 313 960 263 1003 b 76 897 126 1003 76 960 b 194 790 76 835 126 790 z "},"k":{"ha":761,"x_min":0,"x_max":0,"o":"m 90 0 l 289 0 l 289 169 l 376 268 l 532 0 l 753 0 l 493 406 l 735 689 l 513 689 l 294 415 l 289 415 l 289 974 l 90 974 z "},"l":{"ha":397,"x_min":0,"x_max":0,"o":"m 278 -17 b 381 0 324 -17 358 -10 l 356 151 b 331 149 344 149 339 149 b 294 206 314 149 294 163 l 294 974 l 90 974 l 90 214 b 278 -17 90 75 138 -17 z "},"m":{"ha":1190,"x_min":0,"x_max":0,"o":"m 90 0 l 294 0 l 294 465 b 411 532 338 510 378 532 b 496 401 469 532 496 501 l 496 0 l 700 0 l 700 465 b 818 532 744 510 783 532 b 903 401 876 532 903 501 l 903 0 l 1107 0 l 1107 428 b 892 706 1107 600 1040 706 b 675 590 800 706 736 653 b 485 706 640 664 582 706 b 276 600 394 706 333 657 l 271 600 l 257 689 l 90 689 z "},"n":{"ha":794,"x_min":0,"x_max":0,"o":"m 90 0 l 294 0 l 294 465 b 422 532 339 508 371 532 b 507 401 481 532 507 501 l 507 0 l 711 0 l 711 428 b 497 706 711 600 647 706 b 276 601 404 706 335 657 l 271 601 l 257 689 l 90 689 z "},"o":{"ha":771,"x_min":0,"x_max":0,"o":"m 386 -17 b 721 344 560 -17 721 115 b 386 706 721 574 560 706 b 50 344 211 706 50 574 b 386 -17 50 115 211 -17 z m 386 149 b 260 344 301 149 260 225 b 386 540 260 464 301 540 b 513 344 469 540 513 464 b 386 149 513 225 469 149 z "},"p":{"ha":796,"x_min":0,"x_max":0,"o":"m 90 -256 l 294 -256 l 294 -54 l 288 56 b 451 -17 336 10 392 -17 b 742 356 600 -17 742 119 b 472 706 742 568 639 706 b 276 621 400 706 331 669 l 271 621 l 257 689 l 90 689 z m 404 150 b 294 194 369 150 331 161 l 294 476 b 413 539 335 519 371 539 b 532 353 494 539 532 476 b 404 150 532 211 475 150 z "},"q":{"ha":796,"x_min":0,"x_max":0,"o":"m 501 -256 l 706 -256 l 706 689 l 546 689 l 529 621 l 524 621 b 340 706 469 679 415 706 b 54 344 194 706 54 569 b 336 -17 54 119 165 -17 b 510 60 399 -17 464 15 l 501 -46 z m 389 150 b 264 347 310 150 264 211 b 388 539 264 478 322 539 b 501 494 425 539 465 528 l 501 213 b 389 150 468 167 433 150 z "},"r":{"ha":553,"x_min":0,"x_max":0,"o":"m 90 0 l 294 0 l 294 400 b 446 526 331 493 394 526 b 521 515 475 526 496 522 l 554 692 b 472 706 535 700 511 706 b 276 568 401 706 326 661 l 271 568 l 257 689 l 90 689 z "},"s":{"ha":615,"x_min":0,"x_max":0,"o":"m 293 -17 b 576 206 478 -17 576 81 b 390 413 576 332 478 381 b 256 500 319 439 256 456 b 333 554 256 535 281 554 b 479 496 382 554 429 532 l 571 618 b 328 706 511 663 433 706 b 64 490 168 706 64 618 b 246 288 64 376 163 319 b 386 193 317 260 386 239 b 299 135 386 157 360 135 b 121 207 240 135 183 160 l 29 79 b 293 -17 99 22 203 -17 z "},"t":{"ha":532,"x_min":0,"x_max":0,"o":"m 356 -17 b 508 8 422 -17 472 -3 l 476 157 b 411 143 458 150 433 143 b 322 253 357 143 322 175 l 322 529 l 488 529 l 488 689 l 322 689 l 322 872 l 153 872 l 129 689 l 24 681 l 24 529 l 118 529 l 118 250 b 356 -17 118 90 185 -17 z "},"u":{"ha":789,"x_min":0,"x_max":0,"o":"m 297 -17 b 514 96 392 -17 456 26 l 518 96 l 533 0 l 700 0 l 700 689 l 496 689 l 496 233 b 374 157 456 179 425 157 b 288 288 314 157 288 189 l 288 689 l 83 689 l 83 261 b 297 -17 83 89 147 -17 z "},"v":{"ha":726,"x_min":0,"x_max":0,"o":"m 249 0 l 485 0 l 710 689 l 514 689 l 424 364 b 371 151 406 296 388 224 l 365 151 b 311 364 347 224 329 296 l 222 689 l 17 689 z "},"w":{"ha":1078,"x_min":0,"x_max":0,"o":"m 206 0 l 439 0 l 500 275 b 535 476 513 339 522 403 l 540 476 b 578 275 553 403 564 339 l 640 0 l 879 0 l 1044 689 l 856 689 l 790 369 b 758 165 778 301 771 235 l 753 165 b 710 369 739 235 726 301 l 632 689 l 456 689 l 379 369 b 339 165 363 304 351 235 l 333 165 b 303 369 322 235 314 301 l 236 689 l 33 689 z "},"x":{"ha":714,"x_min":0,"x_max":0,"o":"m 19 0 l 231 0 l 285 114 b 338 233 301 154 321 194 l 343 233 b 408 114 365 194 386 153 l 475 0 l 694 0 l 482 335 l 682 689 l 471 689 l 424 578 b 376 460 408 539 390 499 l 371 460 b 313 578 351 499 331 539 l 251 689 l 32 689 l 231 358 z "},"y":{"ha":724,"x_min":0,"x_max":0,"o":"m 167 -269 b 468 -7 329 -269 403 -181 l 707 689 l 511 689 l 428 393 b 381 197 411 328 396 263 l 375 197 b 321 393 357 265 340 331 l 222 689 l 17 689 l 282 18 l 272 -18 b 151 -108 254 -72 219 -108 b 106 -100 136 -108 118 -103 l 69 -256 b 167 -269 97 -264 125 -269 z "},"z":{"ha":639,"x_min":0,"x_max":0,"o":"m 53 0 l 606 0 l 606 160 l 307 160 l 596 581 l 596 689 l 85 689 l 85 529 l 342 529 l 53 110 z "},"À":{"ha":796,"x_min":0,"x_max":0,"o":"m 319 458 b 390 750 344 549 368 654 l 396 750 b 469 458 419 656 444 549 l 490 375 l 297 375 z m -8 0 l 200 0 l 256 215 l 532 215 l 588 0 l 804 0 l 521 906 l 275 906 z m 407 944 l 499 1047 l 261 1242 l 153 1110 z "},"Á":{"ha":796,"x_min":0,"x_max":0,"o":"m 319 458 b 390 750 344 549 368 654 l 396 750 b 469 458 419 656 444 549 l 490 375 l 297 375 z m -8 0 l 200 0 l 256 215 l 532 215 l 588 0 l 804 0 l 521 906 l 275 906 z m 379 944 l 633 1110 l 525 1242 l 288 1047 z "},"Â":{"ha":796,"x_min":0,"x_max":0,"o":"m 319 458 b 390 750 344 549 368 654 l 396 750 b 469 458 419 656 444 549 l 490 375 l 297 375 z m -8 0 l 200 0 l 256 215 l 532 215 l 588 0 l 804 0 l 521 906 l 275 906 z m 157 1006 l 246 951 l 390 1068 l 396 1068 l 540 951 l 629 1006 l 504 1160 l 282 1160 z "},"Ã":{"ha":796,"x_min":0,"x_max":0,"o":"m 319 458 b 390 750 344 549 368 654 l 396 750 b 469 458 419 656 444 549 l 490 375 l 297 375 z m -8 0 l 200 0 l 256 215 l 532 215 l 588 0 l 804 0 l 521 906 l 275 906 z m 492 961 b 668 1161 589 961 661 1022 l 536 1171 b 485 1103 531 1121 511 1103 b 294 1183 439 1103 393 1183 b 118 983 197 1183 125 1124 l 250 974 b 301 1042 256 1024 275 1042 b 492 961 347 1042 393 961 z "},"Ä":{"ha":796,"x_min":0,"x_max":0,"o":"m 319 458 b 390 750 344 549 368 654 l 396 750 b 469 458 419 656 444 549 l 490 375 l 297 375 z m -8 0 l 200 0 l 256 215 l 532 215 l 588 0 l 804 0 l 521 906 l 275 906 z m 239 972 b 336 1069 296 972 336 1014 b 239 1167 336 1125 296 1167 b 142 1069 182 1167 142 1125 b 239 972 142 1014 182 972 z m 547 972 b 644 1069 604 972 644 1014 b 547 1167 644 1125 604 1167 b 450 1069 490 1167 450 1125 b 547 972 450 1014 490 972 z "},"Ā":{"ha":796,"x_min":0,"x_max":0,"o":"m 319 458 b 390 750 344 549 368 654 l 396 750 b 469 458 419 656 444 549 l 490 375 l 297 375 z m -8 0 l 200 0 l 256 215 l 532 215 l 588 0 l 804 0 l 521 906 l 275 906 z m 183 1001 l 603 1001 l 603 1132 l 183 1132 z "},"Ă":{"ha":796,"x_min":0,"x_max":0,"o":"m 319 458 b 390 750 344 549 368 654 l 396 750 b 469 458 419 656 444 549 l 490 375 l 297 375 z m -8 0 l 200 0 l 256 215 l 532 215 l 588 0 l 804 0 l 521 906 l 275 906 z m 393 968 b 619 1158 531 968 607 1035 l 508 1178 b 393 1086 496 1121 456 1086 b 278 1178 331 1086 290 1121 l 167 1158 b 393 968 179 1035 256 968 z "},"Å":{"ha":796,"x_min":0,"x_max":0,"o":"m 319 458 b 390 750 344 549 368 654 l 396 750 b 469 458 419 656 444 549 l 490 375 l 297 375 z m -8 0 l 200 0 l 256 215 l 532 215 l 588 0 l 804 0 l 521 906 l 275 906 z m 393 968 b 551 1106 486 968 551 1022 b 393 1242 551 1189 486 1242 b 235 1106 299 1242 235 1189 b 393 968 235 1022 299 968 z m 393 1044 b 335 1106 361 1044 335 1068 b 393 1165 335 1142 361 1165 b 451 1106 425 1165 451 1142 b 393 1044 451 1068 425 1044 z "},"Ǎ":{"ha":796,"x_min":0,"x_max":0,"o":"m 319 458 b 390 750 344 549 368 654 l 396 750 b 469 458 419 656 444 549 l 490 375 l 297 375 z m -8 0 l 200 0 l 256 215 l 532 215 l 588 0 l 804 0 l 521 906 l 275 906 z m 282 975 l 504 975 l 629 1128 l 540 1183 l 396 1067 l 390 1067 l 246 1183 l 157 1128 z "},"Ạ":{"ha":796,"x_min":0,"x_max":0,"o":"m 319 458 b 390 750 344 549 368 654 l 396 750 b 469 458 419 656 444 549 l 490 375 l 297 375 z m -8 0 l 200 0 l 256 215 l 532 215 l 588 0 l 804 0 l 521 906 l 275 906 z m 393 -314 b 506 -207 460 -314 506 -269 b 393 -100 506 -144 460 -100 b 281 -207 326 -100 281 -144 b 393 -314 281 -269 326 -314 z "},"Ả":{"ha":796,"x_min":0,"x_max":0,"o":"m 319 458 b 390 750 344 549 368 654 l 396 750 b 469 458 419 656 444 549 l 490 375 l 297 375 z m -8 0 l 200 0 l 256 215 l 532 215 l 588 0 l 804 0 l 521 906 l 275 906 z m 333 960 b 526 1104 438 968 526 1008 b 292 1231 526 1178 464 1226 l 268 1129 b 379 1082 349 1124 379 1108 b 317 1040 379 1057 351 1047 z "},"Ấ":{"ha":796,"x_min":0,"x_max":0,"o":"m 319 458 b 390 750 344 549 368 654 l 396 750 b 469 458 419 656 444 549 l 490 375 l 297 375 z m -8 0 l 200 0 l 256 215 l 532 215 l 588 0 l 804 0 l 521 906 l 275 906 z m 263 951 l 390 1051 l 396 1051 l 524 951 l 606 1006 l 481 1144 l 306 1144 l 181 1006 z m 604 1054 l 750 1160 l 682 1243 l 543 1124 z "},"Ầ":{"ha":796,"x_min":0,"x_max":0,"o":"m 319 458 b 390 750 344 549 368 654 l 396 750 b 469 458 419 656 444 549 l 490 375 l 297 375 z m -8 0 l 200 0 l 256 215 l 532 215 l 588 0 l 804 0 l 521 906 l 275 906 z m 263 951 l 390 1051 l 396 1051 l 524 951 l 606 1006 l 481 1144 l 306 1144 l 181 1006 z m 243 1122 l 108 1243 l 42 1161 l 182 1054 z "},"Ẩ":{"ha":796,"x_min":0,"x_max":0,"o":"m 319 458 b 390 750 344 549 368 654 l 396 750 b 469 458 419 656 444 549 l 490 375 l 297 375 z m -8 0 l 200 0 l 256 215 l 532 215 l 588 0 l 804 0 l 521 906 l 275 906 z m 263 951 l 390 1051 l 396 1051 l 524 951 l 606 1006 l 481 1144 l 306 1144 l 181 1006 z m 583 1042 b 744 1163 674 1049 744 1081 b 540 1274 744 1224 693 1269 l 522 1190 b 613 1144 592 1185 613 1171 b 568 1107 613 1121 593 1113 z "},"Ẫ":{"ha":796,"x_min":0,"x_max":0,"o":"m 319 458 b 390 750 344 549 368 654 l 396 750 b 469 458 419 656 444 549 l 490 375 l 297 375 z m -8 0 l 200 0 l 256 215 l 532 215 l 588 0 l 804 0 l 521 906 l 275 906 z m 263 951 l 390 1039 l 396 1039 l 524 951 l 606 1006 l 481 1133 l 306 1133 l 181 1006 z m 181 1183 l 278 1172 b 322 1225 283 1210 297 1225 b 476 1164 361 1225 400 1164 b 606 1318 554 1164 600 1213 l 508 1331 b 464 1276 503 1293 489 1276 b 310 1338 425 1276 386 1338 b 181 1183 232 1338 186 1289 z "},"Ậ":{"ha":796,"x_min":0,"x_max":0,"o":"m 319 458 b 390 750 344 549 368 654 l 396 750 b 469 458 419 656 444 549 l 490 375 l 297 375 z m -8 0 l 200 0 l 256 215 l 532 215 l 588 0 l 804 0 l 521 906 l 275 906 z m 157 1006 l 246 951 l 390 1068 l 396 1068 l 540 951 l 629 1006 l 504 1160 l 282 1160 z m 393 -314 b 506 -207 460 -314 506 -269 b 393 -100 506 -144 460 -100 b 281 -207 326 -100 281 -144 b 393 -314 281 -269 326 -314 z "},"Ắ":{"ha":796,"x_min":0,"x_max":0,"o":"m 319 458 b 390 750 344 549 368 654 l 396 750 b 469 458 419 656 444 549 l 490 375 l 297 375 z m -8 0 l 200 0 l 256 215 l 532 215 l 588 0 l 804 0 l 521 906 l 275 906 z m 317 1183 l 417 1118 l 576 1294 l 449 1374 z m 393 968 b 619 1158 531 968 607 1035 l 519 1178 b 393 1075 506 1113 461 1075 b 267 1178 325 1075 281 1113 l 167 1158 b 393 968 179 1035 256 968 z "},"Ằ":{"ha":796,"x_min":0,"x_max":0,"o":"m 319 458 b 390 750 344 549 368 654 l 396 750 b 469 458 419 656 444 549 l 490 375 l 297 375 z m -8 0 l 200 0 l 256 215 l 532 215 l 588 0 l 804 0 l 521 906 l 275 906 z m 469 1183 l 338 1374 l 210 1294 l 369 1118 z m 393 968 b 619 1158 531 968 607 1035 l 519 1178 b 393 1075 506 1113 461 1075 b 267 1178 325 1075 281 1113 l 167 1158 b 393 968 179 1035 256 968 z "},"Ẳ":{"ha":796,"x_min":0,"x_max":0,"o":"m 319 458 b 390 750 344 549 368 654 l 396 750 b 469 458 419 656 444 549 l 490 375 l 297 375 z m -8 0 l 200 0 l 256 215 l 532 215 l 588 0 l 804 0 l 521 906 l 275 906 z m 349 1119 b 508 1240 438 1126 508 1158 b 306 1353 508 1301 457 1347 l 286 1268 b 378 1222 356 1263 378 1249 b 332 1185 378 1199 358 1190 z m 393 968 b 619 1158 531 968 607 1035 l 519 1178 b 393 1075 506 1113 461 1075 b 267 1178 325 1075 281 1113 l 167 1158 b 393 968 179 1035 256 968 z "},"Ẵ":{"ha":796,"x_min":0,"x_max":0,"o":"m 319 458 b 390 750 344 549 368 654 l 396 750 b 469 458 419 656 444 549 l 490 375 l 297 375 z m -8 0 l 200 0 l 256 215 l 532 215 l 588 0 l 804 0 l 521 906 l 275 906 z m 393 975 b 611 1131 531 975 600 1038 l 513 1147 b 393 1074 501 1107 469 1074 b 274 1147 317 1074 285 1107 l 175 1131 b 393 975 186 1038 256 975 z m 181 1194 l 278 1183 b 322 1238 283 1221 297 1238 b 476 1176 361 1238 400 1176 b 606 1329 554 1176 600 1225 l 508 1342 b 464 1288 503 1304 489 1288 b 310 1349 425 1288 386 1349 b 181 1194 232 1349 186 1300 z "},"Ặ":{"ha":796,"x_min":0,"x_max":0,"o":"m 319 458 b 390 750 344 549 368 654 l 396 750 b 469 458 419 656 444 549 l 490 375 l 297 375 z m -8 0 l 200 0 l 256 215 l 532 215 l 588 0 l 804 0 l 521 906 l 275 906 z m 393 968 b 619 1158 531 968 607 1035 l 508 1178 b 393 1086 496 1121 456 1086 b 278 1178 331 1086 290 1121 l 167 1158 b 393 968 179 1035 256 968 z m 393 -314 b 506 -207 460 -314 506 -269 b 393 -100 506 -144 460 -100 b 281 -207 326 -100 281 -144 b 393 -314 281 -269 326 -314 z "},"Ą":{"ha":796,"x_min":0,"x_max":0,"o":"m 689 -310 b 835 -261 738 -310 799 -289 l 788 -158 b 733 -178 774 -168 754 -178 b 679 -125 704 -178 679 -160 b 804 0 679 -69 728 -7 l 521 906 l 275 906 l -8 0 l 200 0 l 256 215 l 532 215 l 588 0 l 643 0 b 531 -179 597 -26 531 -93 b 689 -310 531 -262 600 -310 z m 319 458 b 390 750 344 549 368 654 l 396 750 b 469 458 419 656 444 549 l 490 375 l 297 375 z "},"Æ":{"ha":1174,"x_min":0,"x_max":0,"o":"m 421 494 b 531 751 457 574 493 663 l 536 751 l 536 365 l 363 365 z m -19 0 l 196 0 l 290 207 l 536 207 l 536 0 l 1101 0 l 1101 172 l 740 172 l 740 381 l 1033 381 l 1033 551 l 740 551 l 740 733 l 1088 733 l 1088 906 l 411 906 z "},"Ǽ":{"ha":1174,"x_min":0,"x_max":0,"o":"m 421 494 b 531 751 457 574 493 663 l 536 751 l 536 365 l 363 365 z m -19 0 l 196 0 l 290 207 l 536 207 l 536 0 l 1101 0 l 1101 172 l 740 172 l 740 381 l 1033 381 l 1033 551 l 740 551 l 740 733 l 1088 733 l 1088 906 l 411 906 z m 732 969 l 986 1135 l 878 1267 l 640 1072 z "},"Ǣ":{"ha":1174,"x_min":0,"x_max":0,"o":"m 421 494 b 531 751 457 574 493 663 l 536 751 l 536 365 l 363 365 z m -19 0 l 196 0 l 290 207 l 536 207 l 536 0 l 1101 0 l 1101 172 l 740 172 l 740 381 l 1033 381 l 1033 551 l 740 551 l 740 733 l 1088 733 l 1088 906 l 411 906 z m 536 1026 l 956 1026 l 956 1157 l 536 1157 z "},"Ƀ":{"ha":872,"x_min":0,"x_max":0,"o":"m 139 0 l 475 0 b 828 278 672 0 828 86 b 631 503 828 406 760 478 l 631 508 b 783 688 738 535 783 611 b 450 906 783 851 638 906 l 139 906 l 139 342 l 36 333 l 36 243 l 139 243 z m 344 551 l 344 758 l 442 758 b 588 664 536 758 588 731 b 440 551 588 594 539 551 z m 344 146 l 344 243 l 519 243 l 519 342 l 344 342 l 344 431 l 458 431 b 632 293 571 431 632 389 b 458 146 632 197 569 146 z "},"Ḇ":{"ha":840,"x_min":0,"x_max":0,"o":"m 107 0 l 443 0 b 794 267 639 0 794 82 b 632 479 794 388 724 456 l 632 485 b 750 681 706 513 750 600 b 417 906 750 854 604 906 l 107 906 z m 311 543 l 311 747 l 408 747 b 550 650 504 747 550 721 b 407 543 550 585 507 543 z m 311 158 l 311 392 l 426 392 b 594 281 539 392 594 360 b 426 158 594 197 538 158 z m 231 -261 l 642 -261 l 642 -132 l 231 -132 z "},"Ç":{"ha":808,"x_min":0,"x_max":0,"o":"m 344 -332 b 618 -189 518 -326 618 -283 b 513 -85 618 -131 582 -101 l 543 -12 b 778 117 636 0 715 44 l 669 244 b 493 160 625 197 567 160 b 274 454 360 160 274 268 b 496 746 274 636 372 746 b 656 674 561 746 610 715 l 764 804 b 492 922 703 867 608 922 b 64 447 263 922 64 747 b 424 -12 64 171 222 14 l 365 -131 b 472 -189 450 -142 472 -161 b 329 -250 472 -228 438 -244 z "},"Ć":{"ha":808,"x_min":0,"x_max":0,"o":"m 485 -17 b 778 117 603 -17 703 29 l 669 244 b 493 160 625 197 567 160 b 274 454 360 160 274 268 b 496 746 274 636 372 746 b 656 674 561 746 610 715 l 764 804 b 492 922 703 867 608 922 b 64 447 263 922 64 747 b 485 -17 64 143 256 -17 z m 463 944 l 717 1110 l 608 1242 l 371 1047 z "},"Ĉ":{"ha":808,"x_min":0,"x_max":0,"o":"m 485 -17 b 778 117 603 -17 703 29 l 669 244 b 493 160 625 197 567 160 b 274 454 360 160 274 268 b 496 746 274 636 372 746 b 656 674 561 746 610 715 l 764 804 b 492 922 703 867 608 922 b 64 447 263 922 64 747 b 485 -17 64 143 256 -17 z m 240 1006 l 329 951 l 474 1068 l 479 1068 l 624 951 l 713 1006 l 588 1160 l 365 1160 z "},"Č":{"ha":808,"x_min":0,"x_max":0,"o":"m 485 -17 b 778 117 603 -17 703 29 l 669 244 b 493 160 625 197 567 160 b 274 454 360 160 274 268 b 496 746 274 636 372 746 b 656 674 561 746 610 715 l 764 804 b 492 922 703 867 608 922 b 64 447 263 922 64 747 b 485 -17 64 143 256 -17 z m 365 975 l 588 975 l 713 1128 l 624 1183 l 479 1067 l 474 1067 l 329 1183 l 240 1128 z "},"Ċ":{"ha":808,"x_min":0,"x_max":0,"o":"m 485 -17 b 778 117 603 -17 703 29 l 669 244 b 493 160 625 197 567 160 b 274 454 360 160 274 268 b 496 746 274 636 372 746 b 656 674 561 746 610 715 l 764 804 b 492 922 703 867 608 922 b 64 447 263 922 64 747 b 485 -17 64 143 256 -17 z m 476 974 b 594 1081 544 974 594 1018 b 476 1188 594 1143 544 1188 b 358 1081 408 1188 358 1143 b 476 974 358 1018 408 974 z "},"Ď":{"ha":882,"x_min":0,"x_max":0,"o":"m 107 0 l 374 0 b 817 457 639 0 817 146 b 363 906 817 768 639 906 l 107 906 z m 311 165 l 311 740 l 350 740 b 607 457 504 740 607 674 b 350 165 607 240 504 165 z m 331 975 l 553 975 l 678 1128 l 589 1183 l 444 1067 l 439 1067 l 294 1183 l 206 1128 z "},"Ḍ":{"ha":882,"x_min":0,"x_max":0,"o":"m 107 0 l 374 0 b 817 457 639 0 817 146 b 363 906 817 768 639 906 l 107 906 z m 311 165 l 311 740 l 350 740 b 607 457 504 740 607 674 b 350 165 607 240 504 165 z m 435 -314 b 547 -207 501 -314 547 -269 b 435 -100 547 -144 501 -100 b 322 -207 368 -100 322 -144 b 435 -314 322 -269 368 -314 z "},"Ḏ":{"ha":882,"x_min":0,"x_max":0,"o":"m 107 0 l 374 0 b 817 457 639 0 817 146 b 363 906 817 768 639 906 l 107 906 z m 311 165 l 311 740 l 350 740 b 607 457 504 740 607 674 b 350 165 607 240 504 165 z m 229 -261 l 640 -261 l 640 -132 l 229 -132 z "},"Đ":{"ha":917,"x_min":0,"x_max":0,"o":"m 36 418 l 142 418 l 142 0 l 408 0 b 851 457 674 0 851 146 b 397 906 851 768 674 906 l 142 906 l 142 517 l 36 510 z m 346 165 l 346 418 l 519 418 l 519 517 l 346 517 l 346 740 l 385 740 b 642 457 539 740 642 674 b 385 165 642 240 539 165 z "},"È":{"ha":761,"x_min":0,"x_max":0,"o":"m 107 0 l 688 0 l 688 172 l 311 172 l 311 381 l 619 381 l 619 551 l 311 551 l 311 733 l 674 733 l 674 906 l 107 906 z m 414 944 l 506 1047 l 268 1242 l 160 1110 z "},"É":{"ha":761,"x_min":0,"x_max":0,"o":"m 107 0 l 688 0 l 688 172 l 311 172 l 311 381 l 619 381 l 619 551 l 311 551 l 311 733 l 674 733 l 674 906 l 107 906 z m 386 944 l 640 1110 l 532 1242 l 294 1047 z "},"Ê":{"ha":761,"x_min":0,"x_max":0,"o":"m 107 0 l 688 0 l 688 172 l 311 172 l 311 381 l 619 381 l 619 551 l 311 551 l 311 733 l 674 733 l 674 906 l 107 906 z m 164 1006 l 253 951 l 397 1068 l 403 1068 l 547 951 l 636 1006 l 511 1160 l 289 1160 z "},"Ě":{"ha":761,"x_min":0,"x_max":0,"o":"m 107 0 l 688 0 l 688 172 l 311 172 l 311 381 l 619 381 l 619 551 l 311 551 l 311 733 l 674 733 l 674 906 l 107 906 z m 289 975 l 511 975 l 636 1128 l 547 1183 l 403 1067 l 397 1067 l 253 1183 l 164 1128 z "},"Ë":{"ha":761,"x_min":0,"x_max":0,"o":"m 107 0 l 688 0 l 688 172 l 311 172 l 311 381 l 619 381 l 619 551 l 311 551 l 311 733 l 674 733 l 674 906 l 107 906 z m 246 972 b 343 1069 303 972 343 1014 b 246 1167 343 1125 303 1167 b 149 1069 189 1167 149 1125 b 246 972 149 1014 189 972 z m 554 972 b 651 1069 611 972 651 1014 b 554 1167 651 1125 611 1167 b 457 1069 497 1167 457 1125 b 554 972 457 1014 497 972 z "},"Ē":{"ha":761,"x_min":0,"x_max":0,"o":"m 107 0 l 688 0 l 688 172 l 311 172 l 311 381 l 619 381 l 619 551 l 311 551 l 311 733 l 674 733 l 674 906 l 107 906 z m 190 1001 l 610 1001 l 610 1132 l 190 1132 z "},"Ĕ":{"ha":761,"x_min":0,"x_max":0,"o":"m 107 0 l 688 0 l 688 172 l 311 172 l 311 381 l 619 381 l 619 551 l 311 551 l 311 733 l 674 733 l 674 906 l 107 906 z m 400 968 b 626 1158 538 968 614 1035 l 515 1178 b 400 1086 503 1121 463 1086 b 285 1178 338 1086 297 1121 l 174 1158 b 400 968 186 1035 263 968 z "},"Ė":{"ha":761,"x_min":0,"x_max":0,"o":"m 107 0 l 688 0 l 688 172 l 311 172 l 311 381 l 619 381 l 619 551 l 311 551 l 311 733 l 674 733 l 674 906 l 107 906 z m 400 974 b 518 1081 468 974 518 1018 b 400 1188 518 1143 468 1188 b 282 1081 332 1188 282 1143 b 400 974 282 1018 332 974 z "},"Ẹ":{"ha":761,"x_min":0,"x_max":0,"o":"m 107 0 l 688 0 l 688 172 l 311 172 l 311 381 l 619 381 l 619 551 l 311 551 l 311 733 l 674 733 l 674 906 l 107 906 z m 410 -314 b 522 -207 476 -314 522 -269 b 410 -100 522 -144 476 -100 b 297 -207 343 -100 297 -144 b 410 -314 297 -269 343 -314 z "},"Ẻ":{"ha":761,"x_min":0,"x_max":0,"o":"m 107 0 l 688 0 l 688 172 l 311 172 l 311 381 l 619 381 l 619 551 l 311 551 l 311 733 l 674 733 l 674 906 l 107 906 z m 340 960 b 533 1104 444 968 533 1008 b 299 1231 533 1178 471 1226 l 275 1129 b 386 1082 356 1124 386 1108 b 324 1040 386 1057 358 1047 z "},"Ẽ":{"ha":761,"x_min":0,"x_max":0,"o":"m 107 0 l 688 0 l 688 172 l 311 172 l 311 381 l 619 381 l 619 551 l 311 551 l 311 733 l 674 733 l 674 906 l 107 906 z m 499 961 b 675 1161 596 961 668 1022 l 543 1171 b 492 1103 538 1121 518 1103 b 301 1183 446 1103 400 1183 b 125 983 204 1183 132 1124 l 257 974 b 308 1042 263 1024 282 1042 b 499 961 354 1042 400 961 z "},"Ế":{"ha":761,"x_min":0,"x_max":0,"o":"m 107 0 l 688 0 l 688 172 l 311 172 l 311 381 l 619 381 l 619 551 l 311 551 l 311 733 l 674 733 l 674 906 l 107 906 z m 269 951 l 397 1051 l 403 1051 l 531 951 l 613 1006 l 488 1144 l 313 1144 l 188 1006 z m 611 1054 l 757 1160 l 689 1243 l 550 1124 z "},"Ề":{"ha":761,"x_min":0,"x_max":0,"o":"m 107 0 l 688 0 l 688 172 l 311 172 l 311 381 l 619 381 l 619 551 l 311 551 l 311 733 l 674 733 l 674 906 l 107 906 z m 269 951 l 397 1051 l 403 1051 l 531 951 l 613 1006 l 488 1144 l 313 1144 l 188 1006 z m 250 1122 l 115 1243 l 49 1161 l 189 1054 z "},"Ể":{"ha":761,"x_min":0,"x_max":0,"o":"m 107 0 l 688 0 l 688 172 l 311 172 l 311 381 l 619 381 l 619 551 l 311 551 l 311 733 l 674 733 l 674 906 l 107 906 z m 269 951 l 397 1051 l 403 1051 l 531 951 l 613 1006 l 488 1144 l 313 1144 l 188 1006 z m 590 1042 b 751 1163 681 1049 751 1081 b 547 1274 751 1224 700 1269 l 529 1190 b 619 1144 599 1185 619 1171 b 575 1107 619 1121 600 1113 z "},"Ễ":{"ha":761,"x_min":0,"x_max":0,"o":"m 107 0 l 688 0 l 688 172 l 311 172 l 311 381 l 619 381 l 619 551 l 311 551 l 311 733 l 674 733 l 674 906 l 107 906 z m 269 951 l 397 1039 l 403 1039 l 531 951 l 613 1006 l 488 1133 l 313 1133 l 188 1006 z m 188 1183 l 285 1172 b 329 1225 290 1210 304 1225 b 483 1164 368 1225 407 1164 b 613 1318 561 1164 607 1213 l 515 1331 b 471 1276 510 1293 496 1276 b 317 1338 432 1276 393 1338 b 188 1183 239 1338 193 1289 z "},"Ệ":{"ha":761,"x_min":0,"x_max":0,"o":"m 107 0 l 688 0 l 688 172 l 311 172 l 311 381 l 619 381 l 619 551 l 311 551 l 311 733 l 674 733 l 674 906 l 107 906 z m 164 1006 l 253 951 l 397 1068 l 403 1068 l 547 951 l 636 1006 l 511 1160 l 289 1160 z m 410 -314 b 522 -207 476 -314 522 -269 b 410 -100 522 -144 476 -100 b 297 -207 343 -100 297 -144 b 410 -314 297 -269 343 -314 z "},"Ę":{"ha":761,"x_min":0,"x_max":0,"o":"m 571 -310 b 717 -261 619 -310 681 -289 l 669 -158 b 619 -178 656 -168 638 -178 b 561 -125 590 -178 561 -161 b 681 0 561 -64 617 -3 l 688 0 l 688 172 l 311 172 l 311 381 l 619 381 l 619 551 l 311 551 l 311 733 l 674 733 l 674 906 l 107 906 l 107 0 l 521 0 b 411 -179 474 -29 411 -94 b 571 -310 411 -262 482 -310 z "},"Ḗ":{"ha":761,"x_min":0,"x_max":0,"o":"m 107 0 l 688 0 l 688 172 l 311 172 l 311 381 l 619 381 l 619 551 l 311 551 l 311 733 l 674 733 l 674 906 l 107 906 z m 357 1158 l 588 1286 l 504 1399 l 289 1250 z m 190 1001 l 610 1001 l 610 1132 l 190 1132 z "},"Ǵ":{"ha":886,"x_min":0,"x_max":0,"o":"m 507 -17 b 806 93 633 -17 743 32 l 806 510 l 475 510 l 475 343 l 625 343 l 625 188 b 528 160 603 169 565 160 b 274 454 358 160 274 268 b 513 746 274 636 372 746 b 683 674 590 746 638 714 l 790 804 b 506 922 731 865 636 922 b 64 447 264 922 64 747 b 507 -17 64 143 258 -17 z m 496 944 l 750 1110 l 642 1242 l 404 1047 z "},"Ĝ":{"ha":886,"x_min":0,"x_max":0,"o":"m 507 -17 b 806 93 633 -17 743 32 l 806 510 l 475 510 l 475 343 l 625 343 l 625 188 b 528 160 603 169 565 160 b 274 454 358 160 274 268 b 513 746 274 636 372 746 b 683 674 590 746 638 714 l 790 804 b 506 922 731 865 636 922 b 64 447 264 922 64 747 b 507 -17 64 143 258 -17 z m 274 1006 l 363 951 l 507 1068 l 513 1068 l 657 951 l 746 1006 l 621 1160 l 399 1160 z "},"Ğ":{"ha":886,"x_min":0,"x_max":0,"o":"m 507 -17 b 806 93 633 -17 743 32 l 806 510 l 475 510 l 475 343 l 625 343 l 625 188 b 528 160 603 169 565 160 b 274 454 358 160 274 268 b 513 746 274 636 372 746 b 683 674 590 746 638 714 l 790 804 b 506 922 731 865 636 922 b 64 447 264 922 64 747 b 507 -17 64 143 258 -17 z m 510 968 b 736 1158 647 968 724 1035 l 625 1178 b 510 1086 613 1121 572 1086 b 394 1178 447 1086 407 1121 l 283 1158 b 510 968 296 1035 372 968 z "},"Ġ":{"ha":886,"x_min":0,"x_max":0,"o":"m 507 -17 b 806 93 633 -17 743 32 l 806 510 l 475 510 l 475 343 l 625 343 l 625 188 b 528 160 603 169 565 160 b 274 454 358 160 274 268 b 513 746 274 636 372 746 b 683 674 590 746 638 714 l 790 804 b 506 922 731 865 636 922 b 64 447 264 922 64 747 b 507 -17 64 143 258 -17 z m 510 974 b 628 1081 578 974 628 1018 b 510 1188 628 1143 578 1188 b 392 1081 442 1188 392 1143 b 510 974 392 1018 442 974 z "},"Ģ":{"ha":886,"x_min":0,"x_max":0,"o":"m 507 -17 b 806 93 633 -17 743 32 l 806 510 l 475 510 l 475 343 l 625 343 l 625 188 b 528 160 603 169 565 160 b 274 454 358 160 274 268 b 513 746 274 636 372 746 b 683 674 590 746 638 714 l 790 804 b 506 922 731 865 636 922 b 64 447 264 922 64 747 b 507 -17 64 143 258 -17 z m 363 -332 b 636 -189 536 -326 636 -283 b 440 -72 636 -121 589 -85 l 401 -147 b 490 -196 464 -153 490 -169 b 347 -250 490 -228 456 -244 z "},"Ǧ":{"ha":886,"x_min":0,"x_max":0,"o":"m 507 -17 b 806 93 633 -17 743 32 l 806 510 l 475 510 l 475 343 l 625 343 l 625 188 b 528 160 603 169 565 160 b 274 454 358 160 274 268 b 513 746 274 636 372 746 b 683 674 590 746 638 714 l 790 804 b 506 922 731 865 636 922 b 64 447 264 922 64 747 b 507 -17 64 143 258 -17 z m 399 975 l 621 975 l 746 1128 l 657 1183 l 513 1067 l 507 1067 l 363 1183 l 274 1128 z "},"Ḡ":{"ha":886,"x_min":0,"x_max":0,"o":"m 507 -17 b 806 93 633 -17 743 32 l 806 510 l 475 510 l 475 343 l 625 343 l 625 188 b 528 160 603 169 565 160 b 274 454 358 160 274 268 b 513 746 274 636 372 746 b 683 674 590 746 638 714 l 790 804 b 506 922 731 865 636 922 b 64 447 264 922 64 747 b 507 -17 64 143 258 -17 z m 300 1001 l 719 1001 l 719 1132 l 300 1132 z "},"Ɠ":{"ha":886,"x_min":0,"x_max":0,"o":"m 507 -17 b 806 93 633 -17 743 32 l 806 510 l 475 510 l 475 343 l 625 343 l 625 188 b 528 160 603 169 565 160 b 274 454 358 160 274 268 b 513 746 274 636 372 746 b 683 689 590 746 638 721 l 790 821 b 749 910 768 849 749 874 b 819 976 749 953 778 976 b 858 967 835 976 844 972 l 894 1118 b 776 1136 867 1128 833 1136 b 576 940 650 1136 576 1047 b 578 917 576 932 578 925 b 506 922 556 921 531 922 b 64 447 264 922 64 747 b 507 -17 64 143 258 -17 z "},"Ĥ":{"ha":936,"x_min":0,"x_max":0,"o":"m 107 0 l 311 0 l 311 378 l 624 378 l 624 0 l 829 0 l 829 906 l 624 906 l 624 557 l 311 557 l 311 906 l 107 906 z m 231 1006 l 319 951 l 464 1068 l 469 1068 l 614 951 l 703 1006 l 578 1160 l 356 1160 z "},"Ḥ":{"ha":936,"x_min":0,"x_max":0,"o":"m 107 0 l 311 0 l 311 378 l 624 378 l 624 0 l 829 0 l 829 906 l 624 906 l 624 557 l 311 557 l 311 906 l 107 906 z m 467 -314 b 579 -207 533 -314 579 -269 b 467 -100 579 -144 533 -100 b 354 -207 400 -100 354 -144 b 467 -314 354 -269 400 -314 z "},"Ḫ":{"ha":936,"x_min":0,"x_max":0,"o":"m 107 0 l 311 0 l 311 378 l 624 378 l 624 0 l 829 0 l 829 906 l 624 906 l 624 557 l 311 557 l 311 906 l 107 906 z m 467 -324 b 701 -106 626 -324 697 -228 l 585 -86 b 467 -196 576 -146 540 -196 b 349 -86 393 -196 357 -146 l 232 -106 b 467 -324 236 -228 308 -324 z "},"Ħ":{"ha":989,"x_min":0,"x_max":0,"o":"m 35 675 l 135 675 l 135 0 l 339 0 l 339 378 l 651 378 l 651 0 l 857 0 l 857 675 l 954 675 l 954 774 l 857 774 l 857 906 l 651 906 l 651 774 l 339 774 l 339 906 l 135 906 l 135 774 l 35 765 z m 339 557 l 339 675 l 651 675 l 651 557 z "},"Ì":{"ha":418,"x_min":0,"x_max":0,"o":"m 107 0 l 311 0 l 311 906 l 107 906 z m 224 944 l 315 1047 l 78 1242 l -31 1110 z "},"Í":{"ha":418,"x_min":0,"x_max":0,"o":"m 107 0 l 311 0 l 311 906 l 107 906 z m 196 944 l 450 1110 l 342 1242 l 104 1047 z "},"Î":{"ha":418,"x_min":0,"x_max":0,"o":"m 107 0 l 311 0 l 311 906 l 107 906 z m -26 1006 l 63 951 l 207 1068 l 213 1068 l 357 951 l 446 1006 l 321 1160 l 99 1160 z "},"Ĩ":{"ha":418,"x_min":0,"x_max":0,"o":"m 107 0 l 311 0 l 311 906 l 107 906 z m 308 961 b 485 1161 406 961 478 1022 l 353 1171 b 301 1103 347 1121 328 1103 b 111 1183 256 1103 210 1183 b -65 983 14 1183 -58 1124 l 67 974 b 118 1042 72 1024 92 1042 b 308 961 164 1042 210 961 z "},"Ï":{"ha":418,"x_min":0,"x_max":0,"o":"m 107 0 l 311 0 l 311 906 l 107 906 z m 56 972 b 153 1069 113 972 153 1014 b 56 1167 153 1125 113 1167 b -42 1069 -1 1167 -42 1125 b 56 972 -42 1014 -1 972 z m 364 972 b 461 1069 421 972 461 1014 b 364 1167 461 1125 421 1167 b 267 1069 307 1167 267 1125 b 364 972 267 1014 307 972 z "},"Ī":{"ha":418,"x_min":0,"x_max":0,"o":"m 107 0 l 311 0 l 311 906 l 107 906 z m 0 1001 l 419 1001 l 419 1132 l 0 1132 z "},"İ":{"ha":418,"x_min":0,"x_max":0,"o":"m 107 0 l 311 0 l 311 906 l 107 906 z m 210 974 b 328 1081 278 974 328 1018 b 210 1188 328 1143 278 1188 b 92 1081 142 1188 92 1143 b 210 974 92 1018 142 974 z "},"Ǐ":{"ha":418,"x_min":0,"x_max":0,"o":"m 107 0 l 311 0 l 311 906 l 107 906 z m 99 975 l 321 975 l 446 1128 l 357 1183 l 213 1067 l 207 1067 l 63 1183 l -26 1128 z "},"Ỉ":{"ha":418,"x_min":0,"x_max":0,"o":"m 107 0 l 311 0 l 311 906 l 107 906 z m 150 960 b 343 1104 254 968 343 1008 b 108 1231 343 1178 281 1226 l 85 1129 b 196 1082 165 1124 196 1108 b 133 1040 196 1057 168 1047 z "},"Ị":{"ha":418,"x_min":0,"x_max":0,"o":"m 107 0 l 311 0 l 311 906 l 107 906 z m 210 -314 b 322 -207 276 -314 322 -269 b 210 -100 322 -144 276 -100 b 97 -207 143 -100 97 -144 b 210 -314 97 -269 143 -314 z "},"Į":{"ha":418,"x_min":0,"x_max":0,"o":"m 218 -310 b 363 -261 267 -310 328 -289 l 317 -158 b 265 -178 304 -168 285 -178 b 208 -125 238 -178 208 -161 b 311 0 208 -78 238 -31 l 311 906 l 107 906 l 107 0 l 161 0 b 58 -179 121 -29 58 -90 b 218 -310 58 -262 129 -310 z "},"Ĭ":{"ha":418,"x_min":0,"x_max":0,"o":"m 107 0 l 311 0 l 311 906 l 107 906 z m 210 968 b 436 1158 347 968 424 1035 l 325 1178 b 210 1086 313 1121 272 1086 b 94 1178 147 1086 107 1121 l -17 1158 b 210 968 -4 1035 72 968 z "},"Ĵ":{"ha":707,"x_min":0,"x_max":0,"o":"m 314 -17 b 604 301 514 -17 604 126 l 604 906 l 400 906 l 400 318 b 288 160 400 197 361 160 b 161 250 242 160 194 189 l 22 147 b 314 -17 85 38 176 -17 z m 263 1006 l 351 951 l 496 1068 l 501 1068 l 646 951 l 735 1006 l 610 1160 l 388 1160 z "},"Ķ":{"ha":853,"x_min":0,"x_max":0,"o":"m 107 0 l 311 0 l 311 243 l 417 382 l 638 0 l 861 0 l 538 544 l 811 906 l 586 906 l 317 535 l 311 535 l 311 906 l 107 906 z m 319 -332 b 593 -189 493 -326 593 -283 b 397 -72 593 -121 546 -85 l 358 -147 b 447 -196 421 -153 447 -169 b 304 -250 447 -228 413 -244 z "},"Ḳ":{"ha":853,"x_min":0,"x_max":0,"o":"m 107 0 l 311 0 l 311 243 l 417 382 l 638 0 l 861 0 l 538 544 l 811 906 l 586 906 l 317 535 l 311 535 l 311 906 l 107 906 z m 461 -314 b 574 -207 528 -314 574 -269 b 461 -100 574 -144 528 -100 b 349 -207 394 -100 349 -144 b 461 -314 349 -269 394 -314 z "},"Ḵ":{"ha":853,"x_min":0,"x_max":0,"o":"m 107 0 l 311 0 l 311 243 l 417 382 l 638 0 l 861 0 l 538 544 l 811 906 l 586 906 l 317 535 l 311 535 l 311 906 l 107 906 z m 256 -261 l 667 -261 l 667 -132 l 256 -132 z "},"Ĺ":{"ha":719,"x_min":0,"x_max":0,"o":"m 107 0 l 669 0 l 669 172 l 311 172 l 311 906 l 107 906 z m 200 944 l 454 1110 l 346 1242 l 108 1047 z "},"Ľ":{"ha":719,"x_min":0,"x_max":0,"o":"m 107 0 l 669 0 l 669 172 l 311 172 l 311 906 l 107 906 z m 490 708 l 578 708 l 611 921 l 614 1017 l 482 1017 z "},"Ļ":{"ha":719,"x_min":0,"x_max":0,"o":"m 107 0 l 669 0 l 669 172 l 311 172 l 311 906 l 107 906 z m 261 -332 b 535 -189 435 -326 535 -283 b 339 -72 535 -121 488 -85 l 300 -147 b 389 -196 363 -153 389 -169 b 246 -250 389 -228 354 -244 z "},"Ŀ":{"ha":719,"x_min":0,"x_max":0,"o":"m 107 0 l 669 0 l 669 172 l 311 172 l 311 906 l 107 906 z m 569 328 b 693 456 640 328 693 383 b 569 585 693 529 640 585 b 446 456 499 585 446 529 b 569 328 446 383 499 328 z "},"Ḷ":{"ha":719,"x_min":0,"x_max":0,"o":"m 107 0 l 669 0 l 669 172 l 311 172 l 311 906 l 107 906 z m 403 -314 b 515 -207 469 -314 515 -269 b 403 -100 515 -144 469 -100 b 290 -207 336 -100 290 -144 b 403 -314 290 -269 336 -314 z "},"Ḹ":{"ha":719,"x_min":0,"x_max":0,"o":"m 107 0 l 669 0 l 669 172 l 311 172 l 311 906 l 107 906 z m 4 1001 l 424 1001 l 424 1132 l 4 1132 z m 403 -314 b 515 -207 469 -314 515 -269 b 403 -100 515 -144 469 -100 b 290 -207 336 -100 290 -144 b 403 -314 290 -269 336 -314 z "},"Ḻ":{"ha":719,"x_min":0,"x_max":0,"o":"m 107 0 l 669 0 l 669 172 l 311 172 l 311 906 l 107 906 z m 197 -261 l 608 -261 l 608 -132 l 197 -132 z "},"Ł":{"ha":728,"x_min":0,"x_max":0,"o":"m 38 244 l 117 292 l 117 0 l 679 0 l 679 172 l 321 172 l 321 386 l 610 543 l 540 665 l 321 544 l 321 906 l 117 906 l 117 450 l -32 367 z "},"Ḿ":{"ha":1058,"x_min":0,"x_max":0,"o":"m 107 0 l 290 0 l 290 332 b 264 640 290 421 274 553 l 269 640 l 342 425 l 471 79 l 583 79 l 713 425 l 786 640 l 792 640 b 765 332 782 553 765 421 l 765 0 l 951 0 l 951 906 l 729 906 l 586 503 b 535 336 568 450 553 392 l 529 336 b 476 503 511 392 494 450 l 331 906 l 107 906 z m 515 944 l 769 1110 l 661 1242 l 424 1047 z "},"Ṁ":{"ha":1058,"x_min":0,"x_max":0,"o":"m 107 0 l 290 0 l 290 332 b 264 640 290 421 274 553 l 269 640 l 342 425 l 471 79 l 583 79 l 713 425 l 786 640 l 792 640 b 765 332 782 553 765 421 l 765 0 l 951 0 l 951 906 l 729 906 l 586 503 b 535 336 568 450 553 392 l 529 336 b 476 503 511 392 494 450 l 331 906 l 107 906 z m 529 974 b 647 1081 597 974 647 1018 b 529 1188 647 1143 597 1188 b 411 1081 461 1188 411 1143 b 529 974 411 1018 461 974 z "},"Ṃ":{"ha":1058,"x_min":0,"x_max":0,"o":"m 107 0 l 290 0 l 290 332 b 264 640 290 421 274 553 l 269 640 l 342 425 l 471 79 l 583 79 l 713 425 l 786 640 l 792 640 b 765 332 782 553 765 421 l 765 0 l 951 0 l 951 906 l 729 906 l 586 503 b 535 336 568 450 553 392 l 529 336 b 476 503 511 392 494 450 l 331 906 l 107 906 z m 532 -314 b 644 -207 599 -314 644 -269 b 532 -100 644 -144 599 -100 b 419 -207 465 -100 419 -144 b 532 -314 419 -269 465 -314 z "},"Ń":{"ha":924,"x_min":0,"x_max":0,"o":"m 107 0 l 301 0 l 301 321 b 276 649 301 428 285 549 l 282 649 l 371 451 l 607 0 l 817 0 l 817 906 l 622 906 l 622 586 b 647 256 622 479 639 351 l 642 256 l 553 456 l 317 906 l 107 906 z m 450 944 l 704 1110 l 596 1242 l 358 1047 z "},"Ǹ":{"ha":924,"x_min":0,"x_max":0,"o":"m 107 0 l 301 0 l 301 321 b 276 649 301 428 285 549 l 282 649 l 371 451 l 607 0 l 817 0 l 817 906 l 622 906 l 622 586 b 647 256 622 479 639 351 l 642 256 l 553 456 l 317 906 l 107 906 z m 478 944 l 569 1047 l 332 1242 l 224 1110 z "},"Ň":{"ha":924,"x_min":0,"x_max":0,"o":"m 107 0 l 301 0 l 301 321 b 276 649 301 428 285 549 l 282 649 l 371 451 l 607 0 l 817 0 l 817 906 l 622 906 l 622 586 b 647 256 622 479 639 351 l 642 256 l 553 456 l 317 906 l 107 906 z m 351 975 l 574 975 l 699 1128 l 610 1183 l 465 1067 l 460 1067 l 315 1183 l 226 1128 z "},"Ñ":{"ha":924,"x_min":0,"x_max":0,"o":"m 107 0 l 301 0 l 301 321 b 276 649 301 428 285 549 l 282 649 l 371 451 l 607 0 l 817 0 l 817 906 l 622 906 l 622 586 b 647 256 622 479 639 351 l 642 256 l 553 456 l 317 906 l 107 906 z m 561 961 b 738 1161 658 961 731 1022 l 606 1171 b 554 1103 600 1121 581 1103 b 364 1183 508 1103 463 1183 b 188 983 267 1183 194 1124 l 319 974 b 371 1042 325 1024 344 1042 b 561 961 417 1042 463 961 z "},"Ņ":{"ha":924,"x_min":0,"x_max":0,"o":"m 107 0 l 301 0 l 301 321 b 276 649 301 428 285 549 l 282 649 l 371 451 l 607 0 l 817 0 l 817 906 l 622 906 l 622 586 b 647 256 622 479 639 351 l 642 256 l 553 456 l 317 906 l 107 906 z m 336 -332 b 610 -189 510 -326 610 -283 b 414 -72 610 -121 563 -85 l 375 -147 b 464 -196 438 -153 464 -169 b 321 -250 464 -228 429 -244 z "},"Ṅ":{"ha":924,"x_min":0,"x_max":0,"o":"m 107 0 l 301 0 l 301 321 b 276 649 301 428 285 549 l 282 649 l 371 451 l 607 0 l 817 0 l 817 906 l 622 906 l 622 586 b 647 256 622 479 639 351 l 642 256 l 553 456 l 317 906 l 107 906 z m 463 974 b 581 1081 531 974 581 1018 b 463 1188 581 1143 531 1188 b 344 1081 394 1188 344 1143 b 463 974 344 1018 394 974 z "},"Ṇ":{"ha":924,"x_min":0,"x_max":0,"o":"m 107 0 l 301 0 l 301 321 b 276 649 301 428 285 549 l 282 649 l 371 451 l 607 0 l 817 0 l 817 906 l 622 906 l 622 586 b 647 256 622 479 639 351 l 642 256 l 553 456 l 317 906 l 107 906 z m 478 -314 b 590 -207 544 -314 590 -269 b 478 -100 590 -144 544 -100 b 365 -207 411 -100 365 -144 b 478 -314 365 -269 411 -314 z "},"Ṉ":{"ha":924,"x_min":0,"x_max":0,"o":"m 107 0 l 301 0 l 301 321 b 276 649 301 428 285 549 l 282 649 l 371 451 l 607 0 l 817 0 l 817 906 l 622 906 l 622 586 b 647 256 622 479 639 351 l 642 256 l 553 456 l 317 906 l 107 906 z m 272 -261 l 683 -261 l 683 -132 l 272 -132 z "},"Ò":{"ha":950,"x_min":0,"x_max":0,"o":"m 475 -17 b 886 457 719 -17 886 161 b 475 922 886 751 719 922 b 64 457 231 922 64 753 b 475 -17 64 161 231 -17 z m 475 160 b 274 457 351 160 274 275 b 475 746 274 638 351 746 b 676 457 599 746 676 638 b 475 160 676 275 599 160 z m 489 944 l 581 1047 l 343 1242 l 235 1110 z "},"Ó":{"ha":950,"x_min":0,"x_max":0,"o":"m 475 -17 b 886 457 719 -17 886 161 b 475 922 886 751 719 922 b 64 457 231 922 64 753 b 475 -17 64 161 231 -17 z m 475 160 b 274 457 351 160 274 275 b 475 746 274 638 351 746 b 676 457 599 746 676 638 b 475 160 676 275 599 160 z m 461 944 l 715 1110 l 607 1242 l 369 1047 z "},"Ô":{"ha":950,"x_min":0,"x_max":0,"o":"m 475 -17 b 886 457 719 -17 886 161 b 475 922 886 751 719 922 b 64 457 231 922 64 753 b 475 -17 64 161 231 -17 z m 475 160 b 274 457 351 160 274 275 b 475 746 274 638 351 746 b 676 457 599 746 676 638 b 475 160 676 275 599 160 z m 239 1006 l 328 951 l 472 1068 l 478 1068 l 622 951 l 711 1006 l 586 1160 l 364 1160 z "},"Õ":{"ha":950,"x_min":0,"x_max":0,"o":"m 475 -17 b 886 457 719 -17 886 161 b 475 922 886 751 719 922 b 64 457 231 922 64 753 b 475 -17 64 161 231 -17 z m 475 160 b 274 457 351 160 274 275 b 475 746 274 638 351 746 b 676 457 599 746 676 638 b 475 160 676 275 599 160 z m 574 961 b 750 1161 671 961 743 1022 l 618 1171 b 567 1103 613 1121 593 1103 b 376 1183 521 1103 475 1183 b 200 983 279 1183 207 1124 l 332 974 b 383 1042 338 1024 357 1042 b 574 961 429 1042 475 961 z "},"Ö":{"ha":950,"x_min":0,"x_max":0,"o":"m 475 -17 b 886 457 719 -17 886 161 b 475 922 886 751 719 922 b 64 457 231 922 64 753 b 475 -17 64 161 231 -17 z m 475 160 b 274 457 351 160 274 275 b 475 746 274 638 351 746 b 676 457 599 746 676 638 b 475 160 676 275 599 160 z m 321 972 b 418 1069 378 972 418 1014 b 321 1167 418 1125 378 1167 b 224 1069 264 1167 224 1125 b 321 972 224 1014 264 972 z m 629 972 b 726 1069 686 972 726 1014 b 629 1167 726 1125 686 1167 b 532 1069 572 1167 532 1125 b 629 972 532 1014 572 972 z "},"Ō":{"ha":950,"x_min":0,"x_max":0,"o":"m 475 -17 b 886 457 719 -17 886 161 b 475 922 886 751 719 922 b 64 457 231 922 64 753 b 475 -17 64 161 231 -17 z m 475 160 b 274 457 351 160 274 275 b 475 746 274 638 351 746 b 676 457 599 746 676 638 b 475 160 676 275 599 160 z m 265 1001 l 685 1001 l 685 1132 l 265 1132 z "},"Ő":{"ha":950,"x_min":0,"x_max":0,"o":"m 475 -17 b 886 457 719 -17 886 161 b 475 922 886 751 719 922 b 64 457 231 922 64 753 b 475 -17 64 161 231 -17 z m 475 160 b 274 457 351 160 274 275 b 475 746 274 638 351 746 b 676 457 599 746 676 638 b 475 160 676 275 599 160 z m 288 1011 l 388 964 l 557 1163 l 428 1235 z m 547 1011 l 649 964 l 818 1163 l 688 1235 z "},"Ǒ":{"ha":950,"x_min":0,"x_max":0,"o":"m 475 -17 b 886 457 719 -17 886 161 b 475 922 886 751 719 922 b 64 457 231 922 64 753 b 475 -17 64 161 231 -17 z m 475 160 b 274 457 351 160 274 275 b 475 746 274 638 351 746 b 676 457 599 746 676 638 b 475 160 676 275 599 160 z m 364 975 l 586 975 l 711 1128 l 622 1183 l 478 1067 l 472 1067 l 328 1183 l 239 1128 z "},"Ọ":{"ha":950,"x_min":0,"x_max":0,"o":"m 475 -17 b 886 457 719 -17 886 161 b 475 922 886 751 719 922 b 64 457 231 922 64 753 b 475 -17 64 161 231 -17 z m 475 160 b 274 457 351 160 274 275 b 475 746 274 638 351 746 b 676 457 599 746 676 638 b 475 160 676 275 599 160 z m 475 -314 b 588 -207 542 -314 588 -269 b 475 -100 588 -144 542 -100 b 363 -207 408 -100 363 -144 b 475 -314 363 -269 408 -314 z "},"Ỏ":{"ha":950,"x_min":0,"x_max":0,"o":"m 475 -17 b 886 457 719 -17 886 161 b 475 922 886 751 719 922 b 64 457 231 922 64 753 b 475 -17 64 161 231 -17 z m 475 160 b 274 457 351 160 274 275 b 475 746 274 638 351 746 b 676 457 599 746 676 638 b 475 160 676 275 599 160 z m 415 960 b 608 1104 519 968 608 1008 b 374 1231 608 1178 546 1226 l 350 1129 b 461 1082 431 1124 461 1108 b 399 1040 461 1057 433 1047 z "},"Ố":{"ha":950,"x_min":0,"x_max":0,"o":"m 475 -17 b 886 457 719 -17 886 161 b 475 922 886 751 719 922 b 64 457 231 922 64 753 b 475 -17 64 161 231 -17 z m 475 160 b 274 457 351 160 274 275 b 475 746 274 638 351 746 b 676 457 599 746 676 638 b 475 160 676 275 599 160 z m 344 951 l 472 1051 l 478 1051 l 606 951 l 688 1006 l 563 1144 l 388 1144 l 263 1006 z m 686 1054 l 832 1160 l 764 1243 l 625 1124 z "},"Ồ":{"ha":950,"x_min":0,"x_max":0,"o":"m 475 -17 b 886 457 719 -17 886 161 b 475 922 886 751 719 922 b 64 457 231 922 64 753 b 475 -17 64 161 231 -17 z m 475 160 b 274 457 351 160 274 275 b 475 746 274 638 351 746 b 676 457 599 746 676 638 b 475 160 676 275 599 160 z m 344 951 l 472 1051 l 478 1051 l 606 951 l 688 1006 l 563 1144 l 388 1144 l 263 1006 z m 325 1122 l 190 1243 l 124 1161 l 264 1054 z "},"Ổ":{"ha":950,"x_min":0,"x_max":0,"o":"m 475 -17 b 886 457 719 -17 886 161 b 475 922 886 751 719 922 b 64 457 231 922 64 753 b 475 -17 64 161 231 -17 z m 475 160 b 274 457 351 160 274 275 b 475 746 274 638 351 746 b 676 457 599 746 676 638 b 475 160 676 275 599 160 z m 344 951 l 472 1051 l 478 1051 l 606 951 l 688 1006 l 563 1144 l 388 1144 l 263 1006 z m 665 1042 b 826 1163 756 1049 826 1081 b 622 1274 826 1224 775 1269 l 604 1190 b 694 1144 674 1185 694 1171 b 650 1107 694 1121 675 1113 z "},"Ỗ":{"ha":950,"x_min":0,"x_max":0,"o":"m 475 -17 b 886 457 719 -17 886 161 b 475 922 886 751 719 922 b 64 457 231 922 64 753 b 475 -17 64 161 231 -17 z m 475 160 b 274 457 351 160 274 275 b 475 746 274 638 351 746 b 676 457 599 746 676 638 b 475 160 676 275 599 160 z m 344 951 l 472 1039 l 478 1039 l 606 951 l 688 1006 l 563 1133 l 388 1133 l 263 1006 z m 263 1183 l 360 1172 b 404 1225 365 1210 379 1225 b 558 1164 443 1225 482 1164 b 688 1318 636 1164 682 1213 l 590 1331 b 546 1276 585 1293 571 1276 b 392 1338 507 1276 468 1338 b 263 1183 314 1338 268 1289 z "},"Ộ":{"ha":950,"x_min":0,"x_max":0,"o":"m 475 -17 b 886 457 719 -17 886 161 b 475 922 886 751 719 922 b 64 457 231 922 64 753 b 475 -17 64 161 231 -17 z m 475 160 b 274 457 351 160 274 275 b 475 746 274 638 351 746 b 676 457 599 746 676 638 b 475 160 676 275 599 160 z m 239 1006 l 328 951 l 472 1068 l 478 1068 l 622 951 l 711 1006 l 586 1160 l 364 1160 z m 475 -314 b 588 -207 542 -314 588 -269 b 475 -100 588 -144 542 -100 b 363 -207 408 -100 363 -144 b 475 -314 363 -269 408 -314 z "},"Ŏ":{"ha":950,"x_min":0,"x_max":0,"o":"m 475 -17 b 886 457 719 -17 886 161 b 475 922 886 751 719 922 b 64 457 231 922 64 753 b 475 -17 64 161 231 -17 z m 475 160 b 274 457 351 160 274 275 b 475 746 274 638 351 746 b 676 457 599 746 676 638 b 475 160 676 275 599 160 z m 475 968 b 701 1158 613 968 689 1035 l 590 1178 b 475 1086 578 1121 538 1086 b 360 1178 413 1086 372 1121 l 249 1158 b 475 968 261 1035 338 968 z "},"Ṓ":{"ha":950,"x_min":0,"x_max":0,"o":"m 475 -17 b 886 457 719 -17 886 161 b 475 922 886 751 719 922 b 64 457 231 922 64 753 b 475 -17 64 161 231 -17 z m 475 160 b 274 457 351 160 274 275 b 475 746 274 638 351 746 b 676 457 599 746 676 638 b 475 160 676 275 599 160 z m 432 1158 l 663 1286 l 579 1399 l 364 1250 z m 265 1001 l 685 1001 l 685 1132 l 265 1132 z "},"Ø":{"ha":950,"x_min":0,"x_max":0,"o":"m 476 -17 b 888 457 721 -17 888 161 b 811 750 888 576 860 675 l 917 881 l 811 963 l 719 849 b 476 922 653 897 571 922 b 65 457 232 922 65 753 b 151 143 65 329 97 222 l 56 24 l 161 -57 l 247 50 b 476 -17 311 7 389 -17 z m 275 457 b 476 746 275 638 353 746 b 599 699 525 746 567 729 l 293 319 b 275 457 282 358 275 406 z m 476 160 b 367 199 435 160 397 174 l 665 569 b 678 457 674 536 678 499 b 476 160 678 275 600 160 z "},"Œ":{"ha":1210,"x_min":0,"x_max":0,"o":"m 518 0 l 1136 0 l 1136 172 l 779 172 l 779 381 l 1068 381 l 1068 551 l 779 551 l 779 733 l 1122 733 l 1122 906 l 529 906 b 64 457 260 906 64 768 b 518 0 64 146 260 0 z m 542 165 b 274 457 383 165 274 238 b 542 740 274 675 383 740 l 574 740 l 574 165 z "},"Ơ":{"ha":950,"x_min":0,"x_max":0,"o":"m 476 -17 b 888 457 721 -17 888 161 b 764 811 888 611 842 731 b 924 994 869 839 924 894 b 882 1131 924 1050 904 1100 l 731 1069 b 753 979 742 1049 753 1015 b 669 879 753 919 724 894 b 476 922 614 907 549 922 b 65 457 232 922 65 753 b 476 -17 65 161 232 -17 z m 476 160 b 275 457 353 160 275 275 b 476 746 275 638 353 746 b 678 457 600 746 678 638 b 476 160 678 275 600 160 z "},"Ớ":{"ha":950,"x_min":0,"x_max":0,"o":"m 476 -17 b 888 457 721 -17 888 161 b 764 811 888 611 842 731 b 924 994 869 839 924 894 b 882 1131 924 1050 904 1100 l 731 1069 b 753 979 742 1049 753 1015 b 669 879 753 919 724 894 b 476 922 614 907 549 922 b 65 457 232 922 65 753 b 476 -17 65 161 232 -17 z m 476 160 b 275 457 353 160 275 275 b 476 746 275 638 353 746 b 678 457 600 746 678 638 b 476 160 678 275 600 160 z m 461 944 l 715 1110 l 607 1242 l 369 1047 z "},"Ờ":{"ha":950,"x_min":0,"x_max":0,"o":"m 476 -17 b 888 457 721 -17 888 161 b 764 811 888 611 842 731 b 924 994 869 839 924 894 b 882 1131 924 1050 904 1100 l 731 1069 b 753 979 742 1049 753 1015 b 669 879 753 919 724 894 b 476 922 614 907 549 922 b 65 457 232 922 65 753 b 476 -17 65 161 232 -17 z m 476 160 b 275 457 353 160 275 275 b 476 746 275 638 353 746 b 678 457 600 746 678 638 b 476 160 678 275 600 160 z m 489 944 l 581 1047 l 343 1242 l 235 1110 z "},"Ở":{"ha":950,"x_min":0,"x_max":0,"o":"m 476 -17 b 888 457 721 -17 888 161 b 764 811 888 611 842 731 b 924 994 869 839 924 894 b 882 1131 924 1050 904 1100 l 731 1069 b 753 979 742 1049 753 1015 b 669 879 753 919 724 894 b 476 922 614 907 549 922 b 65 457 232 922 65 753 b 476 -17 65 161 232 -17 z m 476 160 b 275 457 353 160 275 275 b 476 746 275 638 353 746 b 678 457 600 746 678 638 b 476 160 678 275 600 160 z m 415 960 b 608 1104 519 968 608 1008 b 374 1231 608 1178 546 1226 l 350 1129 b 461 1082 431 1124 461 1108 b 399 1040 461 1057 433 1047 z "},"Ỡ":{"ha":950,"x_min":0,"x_max":0,"o":"m 476 -17 b 888 457 721 -17 888 161 b 764 811 888 611 842 731 b 924 994 869 839 924 894 b 882 1131 924 1050 904 1100 l 731 1069 b 753 979 742 1049 753 1015 b 669 879 753 919 724 894 b 476 922 614 907 549 922 b 65 457 232 922 65 753 b 476 -17 65 161 232 -17 z m 476 160 b 275 457 353 160 275 275 b 476 746 275 638 353 746 b 678 457 600 746 678 638 b 476 160 678 275 600 160 z m 551 961 b 728 1161 649 961 721 1022 l 596 1171 b 544 1103 590 1121 571 1103 b 354 1183 499 1103 453 1183 b 178 983 257 1183 185 1124 l 310 974 b 361 1042 315 1024 335 1042 b 551 961 407 1042 453 961 z "},"Ợ":{"ha":950,"x_min":0,"x_max":0,"o":"m 476 -17 b 888 457 721 -17 888 161 b 764 811 888 611 842 731 b 924 994 869 839 924 894 b 882 1131 924 1050 904 1100 l 731 1069 b 753 979 742 1049 753 1015 b 669 879 753 919 724 894 b 476 922 614 907 549 922 b 65 457 232 922 65 753 b 476 -17 65 161 232 -17 z m 476 160 b 275 457 353 160 275 275 b 476 746 275 638 353 746 b 678 457 600 746 678 638 b 476 160 678 275 600 160 z m 475 -314 b 588 -207 542 -314 588 -269 b 475 -100 588 -144 542 -100 b 363 -207 408 -100 363 -144 b 475 -314 363 -269 408 -314 z "},"Ǫ":{"ha":950,"x_min":0,"x_max":0,"o":"m 511 -310 b 656 -261 558 -310 619 -289 l 608 -158 b 558 -178 594 -168 578 -178 b 500 -125 529 -178 500 -161 b 599 -7 500 -86 529 -37 b 886 457 778 75 886 201 b 475 922 886 751 719 922 b 64 457 231 922 64 753 b 439 -14 64 178 210 3 b 351 -179 397 -50 351 -107 b 511 -310 351 -262 422 -310 z m 475 160 b 274 457 351 160 274 275 b 475 746 274 638 351 746 b 676 457 599 746 676 638 b 475 160 676 275 599 160 z "},"Ŕ":{"ha":851,"x_min":0,"x_max":0,"o":"m 107 0 l 311 0 l 311 326 l 424 326 l 597 0 l 826 0 l 621 363 b 782 624 718 406 782 490 b 433 906 782 839 625 906 l 107 906 z m 311 489 l 311 743 l 417 743 b 582 624 524 743 582 713 b 417 489 582 535 524 489 z m 414 944 l 668 1110 l 560 1242 l 322 1047 z "},"Ř":{"ha":851,"x_min":0,"x_max":0,"o":"m 107 0 l 311 0 l 311 326 l 424 326 l 597 0 l 826 0 l 621 363 b 782 624 718 406 782 490 b 433 906 782 839 625 906 l 107 906 z m 311 489 l 311 743 l 417 743 b 582 624 524 743 582 713 b 417 489 582 535 524 489 z m 317 975 l 539 975 l 664 1128 l 575 1183 l 431 1067 l 425 1067 l 281 1183 l 192 1128 z "},"Ṙ":{"ha":851,"x_min":0,"x_max":0,"o":"m 107 0 l 311 0 l 311 326 l 424 326 l 597 0 l 826 0 l 621 363 b 782 624 718 406 782 490 b 433 906 782 839 625 906 l 107 906 z m 311 489 l 311 743 l 417 743 b 582 624 524 743 582 713 b 417 489 582 535 524 489 z m 428 974 b 546 1081 496 974 546 1018 b 428 1188 546 1143 496 1188 b 310 1081 360 1188 310 1143 b 428 974 310 1018 360 974 z "},"Ŗ":{"ha":851,"x_min":0,"x_max":0,"o":"m 107 0 l 311 0 l 311 326 l 424 326 l 597 0 l 826 0 l 621 363 b 782 624 718 406 782 490 b 433 906 782 839 625 906 l 107 906 z m 311 489 l 311 743 l 417 743 b 582 624 524 743 582 713 b 417 489 582 535 524 489 z m 311 -332 b 585 -189 485 -326 585 -283 b 389 -72 585 -121 538 -85 l 350 -147 b 439 -196 413 -153 439 -169 b 296 -250 439 -228 404 -244 z "},"Ṛ":{"ha":851,"x_min":0,"x_max":0,"o":"m 107 0 l 311 0 l 311 326 l 424 326 l 597 0 l 826 0 l 621 363 b 782 624 718 406 782 490 b 433 906 782 839 625 906 l 107 906 z m 311 489 l 311 743 l 417 743 b 582 624 524 743 582 713 b 417 489 582 535 524 489 z m 453 -314 b 565 -207 519 -314 565 -269 b 453 -100 565 -144 519 -100 b 340 -207 386 -100 340 -144 b 453 -314 340 -269 386 -314 z "},"Ṝ":{"ha":851,"x_min":0,"x_max":0,"o":"m 107 0 l 311 0 l 311 326 l 424 326 l 597 0 l 826 0 l 621 363 b 782 624 718 406 782 490 b 433 906 782 839 625 906 l 107 906 z m 311 489 l 311 743 l 417 743 b 582 624 524 743 582 713 b 417 489 582 535 524 489 z m 218 1001 l 638 1001 l 638 1132 l 218 1132 z m 453 -314 b 565 -207 519 -314 565 -269 b 453 -100 565 -144 519 -100 b 340 -207 386 -100 340 -144 b 453 -314 340 -269 386 -314 z "},"Ṟ":{"ha":851,"x_min":0,"x_max":0,"o":"m 107 0 l 311 0 l 311 326 l 424 326 l 597 0 l 826 0 l 621 363 b 782 624 718 406 782 490 b 433 906 782 839 625 906 l 107 906 z m 311 489 l 311 743 l 417 743 b 582 624 524 743 582 713 b 417 489 582 535 524 489 z m 247 -261 l 658 -261 l 658 -132 l 247 -132 z "},"Ś":{"ha":772,"x_min":0,"x_max":0,"o":"m 383 -17 b 725 264 600 -17 725 114 b 546 510 725 392 656 465 l 429 557 b 292 664 351 589 292 608 b 407 746 292 715 336 746 b 594 674 479 746 535 719 l 699 803 b 407 922 621 881 511 922 b 85 653 218 922 85 803 b 267 406 85 521 174 443 l 385 356 b 515 247 464 322 515 304 b 389 160 515 193 474 160 b 165 254 314 160 231 199 l 49 114 b 383 -17 140 28 265 -17 z m 390 944 l 644 1110 l 536 1242 l 299 1047 z "},"Ŝ":{"ha":772,"x_min":0,"x_max":0,"o":"m 383 -17 b 725 264 600 -17 725 114 b 546 510 725 392 656 465 l 429 557 b 292 664 351 589 292 608 b 407 746 292 715 336 746 b 594 674 479 746 535 719 l 699 803 b 407 922 621 881 511 922 b 85 653 218 922 85 803 b 267 406 85 521 174 443 l 385 356 b 515 247 464 322 515 304 b 389 160 515 193 474 160 b 165 254 314 160 231 199 l 49 114 b 383 -17 140 28 265 -17 z m 168 1006 l 257 951 l 401 1068 l 407 1068 l 551 951 l 640 1006 l 515 1160 l 293 1160 z "},"Š":{"ha":772,"x_min":0,"x_max":0,"o":"m 383 -17 b 725 264 600 -17 725 114 b 546 510 725 392 656 465 l 429 557 b 292 664 351 589 292 608 b 407 746 292 715 336 746 b 594 674 479 746 535 719 l 699 803 b 407 922 621 881 511 922 b 85 653 218 922 85 803 b 267 406 85 521 174 443 l 385 356 b 515 247 464 322 515 304 b 389 160 515 193 474 160 b 165 254 314 160 231 199 l 49 114 b 383 -17 140 28 265 -17 z m 293 975 l 515 975 l 640 1128 l 551 1183 l 407 1067 l 401 1067 l 257 1183 l 168 1128 z "},"Ş":{"ha":772,"x_min":0,"x_max":0,"o":"m 246 -332 b 519 -189 419 -326 519 -283 b 414 -85 519 -131 483 -101 l 444 -12 b 725 264 624 10 725 129 b 546 510 725 392 656 465 l 429 557 b 292 664 351 589 292 608 b 407 746 292 715 336 746 b 594 674 479 746 535 719 l 699 803 b 407 922 621 881 511 922 b 85 653 218 922 85 803 b 267 406 85 521 174 443 l 385 356 b 515 247 464 322 515 304 b 389 160 515 193 474 160 b 165 254 314 160 231 199 l 49 114 b 324 -12 125 42 225 -1 l 267 -131 b 374 -189 351 -142 374 -161 b 231 -250 374 -228 339 -244 z "},"Ș":{"ha":772,"x_min":0,"x_max":0,"o":"m 383 -17 b 725 264 600 -17 725 114 b 546 510 725 392 656 465 l 429 557 b 292 664 351 589 292 608 b 407 746 292 715 336 746 b 594 674 479 746 535 719 l 699 803 b 407 922 621 881 511 922 b 85 653 218 922 85 803 b 267 406 85 521 174 443 l 385 356 b 515 247 464 322 515 304 b 389 160 515 193 474 160 b 165 254 314 160 231 199 l 49 114 b 383 -17 140 28 265 -17 z m 246 -332 b 519 -189 419 -326 519 -283 b 324 -72 519 -121 472 -85 l 285 -147 b 374 -196 347 -153 374 -169 b 231 -250 374 -228 339 -244 z "},"Ṡ":{"ha":772,"x_min":0,"x_max":0,"o":"m 383 -17 b 725 264 600 -17 725 114 b 546 510 725 392 656 465 l 429 557 b 292 664 351 589 292 608 b 407 746 292 715 336 746 b 594 674 479 746 535 719 l 699 803 b 407 922 621 881 511 922 b 85 653 218 922 85 803 b 267 406 85 521 174 443 l 385 356 b 515 247 464 322 515 304 b 389 160 515 193 474 160 b 165 254 314 160 231 199 l 49 114 b 383 -17 140 28 265 -17 z m 404 974 b 522 1081 472 974 522 1018 b 404 1188 522 1143 472 1188 b 286 1081 336 1188 286 1143 b 404 974 286 1018 336 974 z "},"Ṣ":{"ha":772,"x_min":0,"x_max":0,"o":"m 383 -17 b 725 264 600 -17 725 114 b 546 510 725 392 656 465 l 429 557 b 292 664 351 589 292 608 b 407 746 292 715 336 746 b 594 674 479 746 535 719 l 699 803 b 407 922 621 881 511 922 b 85 653 218 922 85 803 b 267 406 85 521 174 443 l 385 356 b 515 247 464 322 515 304 b 389 160 515 193 474 160 b 165 254 314 160 231 199 l 49 114 b 383 -17 140 28 265 -17 z m 388 -314 b 500 -207 454 -314 500 -269 b 388 -100 500 -144 454 -100 b 275 -207 321 -100 275 -144 b 388 -314 275 -269 321 -314 z "},"ẞ":{"ha":979,"x_min":0,"x_max":0,"o":"m 643 -17 b 925 247 825 -17 925 99 b 696 499 925 383 832 456 l 846 668 b 501 922 804 819 682 922 b 111 568 232 922 111 771 l 111 0 l 317 0 l 317 540 b 496 757 317 685 376 757 b 643 675 571 757 619 718 l 492 501 l 506 382 b 715 249 658 354 715 304 b 618 149 715 189 678 149 b 492 208 578 149 536 164 l 385 83 b 643 -17 436 32 524 -17 z "},"Ť":{"ha":772,"x_min":0,"x_max":0,"o":"m 283 0 l 489 0 l 489 733 l 738 733 l 738 906 l 35 906 l 35 733 l 283 733 z m 275 975 l 497 975 l 622 1128 l 533 1183 l 389 1067 l 383 1067 l 239 1183 l 150 1128 z "},"Ţ":{"ha":772,"x_min":0,"x_max":0,"o":"m 283 0 l 332 0 l 268 -131 b 375 -189 353 -142 375 -161 b 232 -250 375 -228 340 -244 l 247 -332 b 521 -189 421 -326 521 -283 b 415 -85 521 -131 485 -101 l 451 0 l 489 0 l 489 733 l 738 733 l 738 906 l 35 906 l 35 733 l 283 733 z "},"Ț":{"ha":772,"x_min":0,"x_max":0,"o":"m 283 0 l 489 0 l 489 733 l 738 733 l 738 906 l 35 906 l 35 733 l 283 733 z m 244 -332 b 518 -189 418 -326 518 -283 b 322 -72 518 -121 471 -85 l 283 -147 b 372 -196 346 -153 372 -169 b 229 -250 372 -228 338 -244 z "},"Ṭ":{"ha":772,"x_min":0,"x_max":0,"o":"m 283 0 l 489 0 l 489 733 l 738 733 l 738 906 l 35 906 l 35 733 l 283 733 z m 386 -314 b 499 -207 453 -314 499 -269 b 386 -100 499 -144 453 -100 b 274 -207 319 -100 274 -144 b 386 -314 274 -269 319 -314 z "},"Ṯ":{"ha":772,"x_min":0,"x_max":0,"o":"m 283 0 l 489 0 l 489 733 l 738 733 l 738 906 l 35 906 l 35 733 l 283 733 z m 181 -261 l 592 -261 l 592 -132 l 181 -132 z "},"Ŧ":{"ha":772,"x_min":0,"x_max":0,"o":"m 283 0 l 489 0 l 489 396 l 653 396 l 653 494 l 489 494 l 489 733 l 738 733 l 738 906 l 35 906 l 35 733 l 283 733 l 283 494 l 250 494 l 119 486 l 119 396 l 283 396 z "},"Ù":{"ha":924,"x_min":0,"x_max":0,"o":"m 464 -17 b 821 419 697 -17 821 115 l 821 906 l 624 906 l 624 399 b 464 160 624 221 565 160 b 307 399 363 160 307 221 l 307 906 l 101 906 l 101 419 b 464 -17 101 115 229 -17 z m 475 944 l 567 1047 l 329 1242 l 221 1110 z "},"Ú":{"ha":924,"x_min":0,"x_max":0,"o":"m 464 -17 b 821 419 697 -17 821 115 l 821 906 l 624 906 l 624 399 b 464 160 624 221 565 160 b 307 399 363 160 307 221 l 307 906 l 101 906 l 101 419 b 464 -17 101 115 229 -17 z m 447 944 l 701 1110 l 593 1242 l 356 1047 z "},"Û":{"ha":924,"x_min":0,"x_max":0,"o":"m 464 -17 b 821 419 697 -17 821 115 l 821 906 l 624 906 l 624 399 b 464 160 624 221 565 160 b 307 399 363 160 307 221 l 307 906 l 101 906 l 101 419 b 464 -17 101 115 229 -17 z m 225 1006 l 314 951 l 458 1068 l 464 1068 l 608 951 l 697 1006 l 572 1160 l 350 1160 z "},"Ũ":{"ha":924,"x_min":0,"x_max":0,"o":"m 464 -17 b 821 419 697 -17 821 115 l 821 906 l 624 906 l 624 399 b 464 160 624 221 565 160 b 307 399 363 160 307 221 l 307 906 l 101 906 l 101 419 b 464 -17 101 115 229 -17 z m 560 961 b 736 1161 657 961 729 1022 l 604 1171 b 553 1103 599 1121 579 1103 b 363 1183 507 1103 461 1183 b 186 983 265 1183 193 1124 l 318 974 b 369 1042 324 1024 343 1042 b 560 961 415 1042 461 961 z "},"Ü":{"ha":924,"x_min":0,"x_max":0,"o":"m 464 -17 b 821 419 697 -17 821 115 l 821 906 l 624 906 l 624 399 b 464 160 624 221 565 160 b 307 399 363 160 307 221 l 307 906 l 101 906 l 101 419 b 464 -17 101 115 229 -17 z m 307 972 b 404 1069 364 972 404 1014 b 307 1167 404 1125 364 1167 b 210 1069 250 1167 210 1125 b 307 972 210 1014 250 972 z m 615 972 b 713 1069 672 972 713 1014 b 615 1167 713 1125 672 1167 b 518 1069 558 1167 518 1125 b 615 972 518 1014 558 972 z "},"Ū":{"ha":924,"x_min":0,"x_max":0,"o":"m 464 -17 b 821 419 697 -17 821 115 l 821 906 l 624 906 l 624 399 b 464 160 624 221 565 160 b 307 399 363 160 307 221 l 307 906 l 101 906 l 101 419 b 464 -17 101 115 229 -17 z m 251 1001 l 671 1001 l 671 1132 l 251 1132 z "},"Ŭ":{"ha":924,"x_min":0,"x_max":0,"o":"m 464 -17 b 821 419 697 -17 821 115 l 821 906 l 624 906 l 624 399 b 464 160 624 221 565 160 b 307 399 363 160 307 221 l 307 906 l 101 906 l 101 419 b 464 -17 101 115 229 -17 z m 461 968 b 688 1158 599 968 675 1035 l 576 1178 b 461 1086 564 1121 524 1086 b 346 1178 399 1086 358 1121 l 235 1158 b 461 968 247 1035 324 968 z "},"Ů":{"ha":924,"x_min":0,"x_max":0,"o":"m 464 -17 b 821 419 697 -17 821 115 l 821 906 l 624 906 l 624 399 b 464 160 624 221 565 160 b 307 399 363 160 307 221 l 307 906 l 101 906 l 101 419 b 464 -17 101 115 229 -17 z m 461 968 b 619 1106 554 968 619 1022 b 461 1242 619 1189 554 1242 b 303 1106 367 1242 303 1189 b 461 968 303 1022 367 968 z m 461 1044 b 403 1106 429 1044 403 1068 b 461 1165 403 1142 429 1165 b 519 1106 493 1165 519 1142 b 461 1044 519 1068 493 1044 z "},"Ű":{"ha":924,"x_min":0,"x_max":0,"o":"m 464 -17 b 821 419 697 -17 821 115 l 821 906 l 624 906 l 624 399 b 464 160 624 221 565 160 b 307 399 363 160 307 221 l 307 906 l 101 906 l 101 419 b 464 -17 101 115 229 -17 z m 274 1011 l 374 964 l 543 1163 l 414 1235 z m 533 1011 l 635 964 l 804 1163 l 674 1235 z "},"Ǔ":{"ha":924,"x_min":0,"x_max":0,"o":"m 464 -17 b 821 419 697 -17 821 115 l 821 906 l 624 906 l 624 399 b 464 160 624 221 565 160 b 307 399 363 160 307 221 l 307 906 l 101 906 l 101 419 b 464 -17 101 115 229 -17 z m 350 975 l 572 975 l 697 1128 l 608 1183 l 464 1067 l 458 1067 l 314 1183 l 225 1128 z "},"Ǖ":{"ha":924,"x_min":0,"x_max":0,"o":"m 464 -17 b 821 419 697 -17 821 115 l 821 906 l 624 906 l 624 399 b 464 160 624 221 565 160 b 307 399 363 160 307 221 l 307 906 l 101 906 l 101 419 b 464 -17 101 115 229 -17 z m 307 972 b 393 1058 357 972 393 1010 b 307 1143 393 1106 357 1143 b 222 1058 257 1143 222 1106 b 307 972 222 1010 257 972 z m 251 1211 l 671 1211 l 671 1307 l 251 1307 z m 615 972 b 700 1058 665 972 700 1010 b 615 1143 700 1106 665 1143 b 529 1058 565 1143 529 1106 b 615 972 529 1010 565 972 z "},"Ǘ":{"ha":924,"x_min":0,"x_max":0,"o":"m 464 -17 b 821 419 697 -17 821 115 l 821 906 l 624 906 l 624 399 b 464 160 624 221 565 160 b 307 399 363 160 307 221 l 307 906 l 101 906 l 101 419 b 464 -17 101 115 229 -17 z m 307 972 b 393 1058 357 972 393 1010 b 307 1143 393 1106 357 1143 b 222 1058 257 1143 222 1106 b 307 972 222 1010 257 972 z m 385 1200 l 472 1146 l 644 1322 l 517 1401 z m 615 972 b 700 1058 665 972 700 1010 b 615 1143 700 1106 665 1143 b 529 1058 565 1143 529 1106 b 615 972 529 1010 565 972 z "},"Ǚ":{"ha":924,"x_min":0,"x_max":0,"o":"m 464 -17 b 821 419 697 -17 821 115 l 821 906 l 624 906 l 624 399 b 464 160 624 221 565 160 b 307 399 363 160 307 221 l 307 906 l 101 906 l 101 419 b 464 -17 101 115 229 -17 z m 374 1186 l 549 1186 l 676 1328 l 594 1382 l 464 1281 l 458 1281 l 328 1382 l 246 1328 z m 307 972 b 393 1058 357 972 393 1010 b 307 1143 393 1106 357 1143 b 222 1058 257 1143 222 1106 b 307 972 222 1010 257 972 z m 615 972 b 700 1058 665 972 700 1010 b 615 1143 700 1106 665 1143 b 529 1058 565 1143 529 1106 b 615 972 529 1010 565 972 z "},"Ǜ":{"ha":924,"x_min":0,"x_max":0,"o":"m 464 -17 b 821 419 697 -17 821 115 l 821 906 l 624 906 l 624 399 b 464 160 624 221 565 160 b 307 399 363 160 307 221 l 307 906 l 101 906 l 101 419 b 464 -17 101 115 229 -17 z m 538 1200 l 406 1401 l 278 1322 l 450 1146 z m 307 972 b 393 1058 357 972 393 1010 b 307 1143 393 1106 357 1143 b 222 1058 257 1143 222 1106 b 307 972 222 1010 257 972 z m 615 972 b 700 1058 665 972 700 1010 b 615 1143 700 1106 665 1143 b 529 1058 565 1143 529 1106 b 615 972 529 1010 565 972 z "},"Ụ":{"ha":924,"x_min":0,"x_max":0,"o":"m 464 -17 b 821 419 697 -17 821 115 l 821 906 l 624 906 l 624 399 b 464 160 624 221 565 160 b 307 399 363 160 307 221 l 307 906 l 101 906 l 101 419 b 464 -17 101 115 229 -17 z m 461 -314 b 574 -207 528 -314 574 -269 b 461 -100 574 -144 528 -100 b 349 -207 394 -100 349 -144 b 461 -314 349 -269 394 -314 z "},"Ủ":{"ha":924,"x_min":0,"x_max":0,"o":"m 464 -17 b 821 419 697 -17 821 115 l 821 906 l 624 906 l 624 399 b 464 160 624 221 565 160 b 307 399 363 160 307 221 l 307 906 l 101 906 l 101 419 b 464 -17 101 115 229 -17 z m 401 960 b 594 1104 506 968 594 1008 b 360 1231 594 1178 532 1226 l 336 1129 b 447 1082 417 1124 447 1108 b 385 1040 447 1057 419 1047 z "},"Ų":{"ha":924,"x_min":0,"x_max":0,"o":"m 496 -310 b 642 -261 544 -310 606 -289 l 594 -158 b 544 -178 581 -168 563 -178 b 486 -125 515 -178 486 -161 b 585 -7 486 -87 515 -39 b 821 419 749 68 821 163 l 821 906 l 624 906 l 624 399 b 464 160 624 221 565 160 b 307 399 363 160 307 221 l 307 906 l 101 906 l 101 419 b 426 -14 101 135 214 -1 b 338 -179 401 -36 338 -93 b 496 -310 338 -262 407 -310 z "},"Ư":{"ha":949,"x_min":0,"x_max":0,"o":"m 464 -17 b 821 419 697 -17 821 115 l 821 831 b 1007 1022 936 851 1007 908 b 965 1158 1007 1078 986 1128 l 814 1097 b 836 1007 825 1076 836 1043 b 721 906 836 922 776 908 l 624 906 l 624 399 b 464 160 624 221 565 160 b 307 399 363 160 307 221 l 307 906 l 101 906 l 101 419 b 464 -17 101 115 229 -17 z "},"Ứ":{"ha":949,"x_min":0,"x_max":0,"o":"m 464 -17 b 821 419 697 -17 821 115 l 821 831 b 1007 1022 936 851 1007 908 b 965 1158 1007 1078 986 1128 l 814 1097 b 836 1007 825 1076 836 1043 b 721 906 836 922 776 908 l 624 906 l 624 399 b 464 160 624 221 565 160 b 307 399 363 160 307 221 l 307 906 l 101 906 l 101 419 b 464 -17 101 115 229 -17 z m 447 944 l 701 1110 l 593 1242 l 356 1047 z "},"Ừ":{"ha":949,"x_min":0,"x_max":0,"o":"m 464 -17 b 821 419 697 -17 821 115 l 821 831 b 1007 1022 936 851 1007 908 b 965 1158 1007 1078 986 1128 l 814 1097 b 836 1007 825 1076 836 1043 b 721 906 836 922 776 908 l 624 906 l 624 399 b 464 160 624 221 565 160 b 307 399 363 160 307 221 l 307 906 l 101 906 l 101 419 b 464 -17 101 115 229 -17 z m 475 944 l 567 1047 l 329 1242 l 221 1110 z "},"Ử":{"ha":949,"x_min":0,"x_max":0,"o":"m 464 -17 b 821 419 697 -17 821 115 l 821 831 b 1007 1022 936 851 1007 908 b 965 1158 1007 1078 986 1128 l 814 1097 b 836 1007 825 1076 836 1043 b 721 906 836 922 776 908 l 624 906 l 624 399 b 464 160 624 221 565 160 b 307 399 363 160 307 221 l 307 906 l 101 906 l 101 419 b 464 -17 101 115 229 -17 z m 401 960 b 594 1104 506 968 594 1008 b 360 1231 594 1178 532 1226 l 336 1129 b 447 1082 417 1124 447 1108 b 385 1040 447 1057 419 1047 z "},"Ữ":{"ha":949,"x_min":0,"x_max":0,"o":"m 464 -17 b 821 419 697 -17 821 115 l 821 831 b 1007 1022 936 851 1007 908 b 965 1158 1007 1078 986 1128 l 814 1097 b 836 1007 825 1076 836 1043 b 721 906 836 922 776 908 l 624 906 l 624 399 b 464 160 624 221 565 160 b 307 399 363 160 307 221 l 307 906 l 101 906 l 101 419 b 464 -17 101 115 229 -17 z m 560 961 b 736 1161 657 961 729 1022 l 604 1171 b 553 1103 599 1121 579 1103 b 363 1183 507 1103 461 1183 b 186 983 265 1183 193 1124 l 318 974 b 369 1042 324 1024 343 1042 b 560 961 415 1042 461 961 z "},"Ự":{"ha":949,"x_min":0,"x_max":0,"o":"m 464 -17 b 821 419 697 -17 821 115 l 821 831 b 1007 1022 936 851 1007 908 b 965 1158 1007 1078 986 1128 l 814 1097 b 836 1007 825 1076 836 1043 b 721 906 836 922 776 908 l 624 906 l 624 399 b 464 160 624 221 565 160 b 307 399 363 160 307 221 l 307 906 l 101 906 l 101 419 b 464 -17 101 115 229 -17 z m 461 -314 b 574 -207 528 -314 574 -269 b 461 -100 574 -144 528 -100 b 349 -207 394 -100 349 -144 b 461 -314 349 -269 394 -314 z "},"Ẁ":{"ha":1129,"x_min":0,"x_max":0,"o":"m 188 0 l 440 0 l 525 411 b 563 621 540 481 551 554 l 568 621 b 604 411 578 554 589 481 l 693 0 l 950 0 l 1111 906 l 915 906 l 853 482 b 815 196 840 389 828 293 l 810 196 b 756 482 792 293 774 390 l 658 906 l 485 906 l 388 482 b 333 196 369 388 351 292 l 328 196 b 292 482 317 292 303 388 l 229 906 l 19 906 z m 579 944 l 671 1047 l 433 1242 l 325 1110 z "},"Ẃ":{"ha":1129,"x_min":0,"x_max":0,"o":"m 188 0 l 440 0 l 525 411 b 563 621 540 481 551 554 l 568 621 b 604 411 578 554 589 481 l 693 0 l 950 0 l 1111 906 l 915 906 l 853 482 b 815 196 840 389 828 293 l 810 196 b 756 482 792 293 774 390 l 658 906 l 485 906 l 388 482 b 333 196 369 388 351 292 l 328 196 b 292 482 317 292 303 388 l 229 906 l 19 906 z m 551 944 l 806 1110 l 697 1242 l 460 1047 z "},"Ŵ":{"ha":1129,"x_min":0,"x_max":0,"o":"m 188 0 l 440 0 l 525 411 b 563 621 540 481 551 554 l 568 621 b 604 411 578 554 589 481 l 693 0 l 950 0 l 1111 906 l 915 906 l 853 482 b 815 196 840 389 828 293 l 810 196 b 756 482 792 293 774 390 l 658 906 l 485 906 l 388 482 b 333 196 369 388 351 292 l 328 196 b 292 482 317 292 303 388 l 229 906 l 19 906 z m 329 1006 l 418 951 l 563 1068 l 568 1068 l 713 951 l 801 1006 l 676 1160 l 454 1160 z "},"Ẅ":{"ha":1129,"x_min":0,"x_max":0,"o":"m 188 0 l 440 0 l 525 411 b 563 621 540 481 551 554 l 568 621 b 604 411 578 554 589 481 l 693 0 l 950 0 l 1111 906 l 915 906 l 853 482 b 815 196 840 389 828 293 l 810 196 b 756 482 792 293 774 390 l 658 906 l 485 906 l 388 482 b 333 196 369 388 351 292 l 328 196 b 292 482 317 292 303 388 l 229 906 l 19 906 z m 411 972 b 508 1069 468 972 508 1014 b 411 1167 508 1125 468 1167 b 314 1069 354 1167 314 1125 b 411 972 314 1014 354 972 z m 719 972 b 817 1069 776 972 817 1014 b 719 1167 817 1125 776 1167 b 622 1069 663 1167 622 1125 b 719 972 622 1014 663 972 z "},"Ỳ":{"ha":729,"x_min":0,"x_max":0,"o":"m 263 0 l 467 0 l 467 322 l 740 906 l 526 906 l 444 697 b 368 497 419 629 394 567 l 363 497 b 289 697 338 567 314 629 l 208 906 l -11 906 l 263 322 z m 378 944 l 469 1047 l 232 1242 l 124 1110 z "},"Ý":{"ha":729,"x_min":0,"x_max":0,"o":"m 263 0 l 467 0 l 467 322 l 740 906 l 526 906 l 444 697 b 368 497 419 629 394 567 l 363 497 b 289 697 338 567 314 629 l 208 906 l -11 906 l 263 322 z m 350 944 l 604 1110 l 496 1242 l 258 1047 z "},"Ŷ":{"ha":729,"x_min":0,"x_max":0,"o":"m 263 0 l 467 0 l 467 322 l 740 906 l 526 906 l 444 697 b 368 497 419 629 394 567 l 363 497 b 289 697 338 567 314 629 l 208 906 l -11 906 l 263 322 z m 128 1006 l 217 951 l 361 1068 l 367 1068 l 511 951 l 600 1006 l 475 1160 l 253 1160 z "},"Ÿ":{"ha":729,"x_min":0,"x_max":0,"o":"m 263 0 l 467 0 l 467 322 l 740 906 l 526 906 l 444 697 b 368 497 419 629 394 567 l 363 497 b 289 697 338 567 314 629 l 208 906 l -11 906 l 263 322 z m 210 972 b 307 1069 267 972 307 1014 b 210 1167 307 1125 267 1167 b 113 1069 153 1167 113 1125 b 210 972 113 1014 153 972 z m 518 972 b 615 1069 575 972 615 1014 b 518 1167 615 1125 575 1167 b 421 1069 461 1167 421 1125 b 518 972 421 1014 461 972 z "},"Ẏ":{"ha":729,"x_min":0,"x_max":0,"o":"m 263 0 l 467 0 l 467 322 l 740 906 l 526 906 l 444 697 b 368 497 419 629 394 567 l 363 497 b 289 697 338 567 314 629 l 208 906 l -11 906 l 263 322 z m 364 974 b 482 1081 432 974 482 1018 b 364 1188 482 1143 432 1188 b 246 1081 296 1188 246 1143 b 364 974 246 1018 296 974 z "},"Ỵ":{"ha":729,"x_min":0,"x_max":0,"o":"m 263 0 l 467 0 l 467 322 l 740 906 l 526 906 l 444 697 b 368 497 419 629 394 567 l 363 497 b 289 697 338 567 314 629 l 208 906 l -11 906 l 263 322 z m 367 -314 b 479 -207 433 -314 479 -269 b 367 -100 479 -144 433 -100 b 254 -207 300 -100 254 -144 b 367 -314 254 -269 300 -314 z "},"Ỷ":{"ha":729,"x_min":0,"x_max":0,"o":"m 263 0 l 467 0 l 467 322 l 740 906 l 526 906 l 444 697 b 368 497 419 629 394 567 l 363 497 b 289 697 338 567 314 629 l 208 906 l -11 906 l 263 322 z m 304 960 b 497 1104 408 968 497 1008 b 263 1231 497 1178 435 1226 l 239 1129 b 350 1082 319 1124 350 1108 b 288 1040 350 1057 322 1047 z "},"Ỹ":{"ha":729,"x_min":0,"x_max":0,"o":"m 263 0 l 467 0 l 467 322 l 740 906 l 526 906 l 444 697 b 368 497 419 629 394 567 l 363 497 b 289 697 338 567 314 629 l 208 906 l -11 906 l 263 322 z m 463 961 b 639 1161 560 961 632 1022 l 507 1171 b 456 1103 501 1121 482 1103 b 265 1183 410 1103 364 1183 b 89 983 168 1183 96 1124 l 221 974 b 272 1042 226 1024 246 1042 b 463 961 318 1042 364 961 z "},"Ź":{"ha":751,"x_min":0,"x_max":0,"o":"m 50 0 l 706 0 l 706 172 l 301 172 l 701 782 l 701 906 l 88 906 l 88 733 l 450 733 l 50 124 z m 379 944 l 633 1110 l 525 1242 l 288 1047 z "},"Ž":{"ha":751,"x_min":0,"x_max":0,"o":"m 50 0 l 706 0 l 706 172 l 301 172 l 701 782 l 701 906 l 88 906 l 88 733 l 450 733 l 50 124 z m 282 975 l 504 975 l 629 1128 l 540 1183 l 396 1067 l 390 1067 l 246 1183 l 157 1128 z "},"Ż":{"ha":751,"x_min":0,"x_max":0,"o":"m 50 0 l 706 0 l 706 172 l 301 172 l 701 782 l 701 906 l 88 906 l 88 733 l 450 733 l 50 124 z m 393 974 b 511 1081 461 974 511 1018 b 393 1188 511 1143 461 1188 b 275 1081 325 1188 275 1143 b 393 974 275 1018 325 974 z "},"Ẓ":{"ha":751,"x_min":0,"x_max":0,"o":"m 50 0 l 706 0 l 706 172 l 301 172 l 701 782 l 701 906 l 88 906 l 88 733 l 450 733 l 50 124 z m 392 -314 b 504 -207 458 -314 504 -269 b 392 -100 504 -144 458 -100 b 279 -207 325 -100 279 -144 b 392 -314 279 -269 325 -314 z "},"Ẕ":{"ha":751,"x_min":0,"x_max":0,"o":"m 50 0 l 706 0 l 706 172 l 301 172 l 701 782 l 701 906 l 88 906 l 88 733 l 450 733 l 50 124 z m 186 -261 l 597 -261 l 597 -132 l 186 -132 z "},"Ð":{"ha":917,"x_min":0,"x_max":0,"o":"m 36 418 l 142 418 l 142 0 l 408 0 b 851 457 674 0 851 146 b 397 906 851 768 674 906 l 142 906 l 142 517 l 36 510 z m 346 165 l 346 418 l 519 418 l 519 517 l 346 517 l 346 740 l 385 740 b 642 457 539 740 642 674 b 385 165 642 240 539 165 z "},"Þ":{"ha":857,"x_min":0,"x_max":0,"o":"m 107 0 l 311 0 l 311 171 l 438 171 b 792 478 629 171 792 264 b 438 768 792 697 633 768 l 311 768 l 311 906 l 107 906 z m 311 333 l 311 606 l 425 606 b 592 478 533 606 592 572 b 425 333 592 383 538 333 z "},"Ə":{"ha":938,"x_min":0,"x_max":0,"o":"m 467 -17 b 874 454 711 -17 874 147 b 472 922 874 761 711 922 b 157 810 332 922 228 875 l 250 669 b 449 754 299 714 363 754 b 668 517 581 754 654 679 l 75 517 b 71 449 72 493 71 469 b 467 -17 71 146 224 -17 z m 467 150 b 279 367 360 150 290 215 l 665 367 b 467 150 646 217 572 150 z "},"Ŋ":{"ha":925,"x_min":0,"x_max":0,"o":"m 572 -17 b 861 460 769 -17 861 138 b 550 922 861 797 728 922 b 304 808 457 922 374 882 l 304 906 l 107 906 l 107 0 l 311 0 l 311 632 b 489 746 357 706 432 746 b 651 460 590 746 651 668 b 549 174 651 225 604 174 b 492 186 525 174 507 179 l 447 10 b 572 -17 475 -8 529 -17 z "},"Ĳ":{"ha":836,"x_min":0,"x_max":0,"o":"m 107 0 l 311 0 l 311 906 l 107 906 z m 483 -253 b 731 25 671 -253 731 -126 l 731 906 l 525 906 l 525 19 b 451 -92 525 -57 507 -92 b 399 -82 433 -92 417 -87 l 361 -233 b 483 -253 390 -244 426 -253 z "},"à":{"ha":732,"x_min":0,"x_max":0,"o":"m 264 -17 b 464 71 342 -17 406 19 l 469 71 l 483 0 l 650 0 l 650 394 b 376 706 650 606 553 706 b 82 615 268 706 169 668 l 156 481 b 338 543 222 519 279 543 b 446 443 413 543 442 504 b 58 192 174 415 58 336 b 264 -17 58 75 138 -17 z m 333 142 b 254 207 285 142 254 163 b 446 321 254 260 301 301 l 446 200 b 333 142 410 164 379 142 z m 369 794 l 469 894 l 256 1147 l 118 1013 z "},"á":{"ha":732,"x_min":0,"x_max":0,"o":"m 264 -17 b 464 71 342 -17 406 19 l 469 71 l 483 0 l 650 0 l 650 394 b 376 706 650 606 553 706 b 82 615 268 706 169 668 l 156 481 b 338 543 222 519 279 543 b 446 443 413 543 442 504 b 58 192 174 415 58 336 b 264 -17 58 75 138 -17 z m 333 142 b 254 207 285 142 254 163 b 446 321 254 260 301 301 l 446 200 b 333 142 410 164 379 142 z m 397 794 l 649 1013 l 511 1147 l 297 894 z "},"â":{"ha":732,"x_min":0,"x_max":0,"o":"m 264 -17 b 464 71 342 -17 406 19 l 469 71 l 483 0 l 650 0 l 650 394 b 376 706 650 606 553 706 b 82 615 268 706 169 668 l 156 481 b 338 543 222 519 279 543 b 446 443 413 543 442 504 b 58 192 174 415 58 336 b 264 -17 58 75 138 -17 z m 333 142 b 254 207 285 142 254 163 b 446 321 254 260 301 301 l 446 200 b 333 142 410 164 379 142 z m 129 851 l 207 779 l 381 907 l 386 907 l 560 779 l 638 851 l 488 1033 l 279 1033 z "},"ã":{"ha":732,"x_min":0,"x_max":0,"o":"m 264 -17 b 464 71 342 -17 406 19 l 469 71 l 483 0 l 650 0 l 650 394 b 376 706 650 606 553 706 b 82 615 268 706 169 668 l 156 481 b 338 543 222 519 279 543 b 446 443 413 543 442 504 b 58 192 174 415 58 336 b 264 -17 58 75 138 -17 z m 333 142 b 254 207 285 142 254 163 b 446 321 254 260 301 301 l 446 200 b 333 142 410 164 379 142 z m 475 796 b 647 1007 582 796 643 864 l 519 1014 b 471 938 514 961 499 938 b 292 1026 428 938 379 1026 b 119 815 185 1026 124 958 l 247 808 b 296 885 253 863 268 885 b 475 796 339 885 388 796 z "},"ä":{"ha":732,"x_min":0,"x_max":0,"o":"m 264 -17 b 464 71 342 -17 406 19 l 469 71 l 483 0 l 650 0 l 650 394 b 376 706 650 606 553 706 b 82 615 268 706 169 668 l 156 481 b 338 543 222 519 279 543 b 446 443 413 543 442 504 b 58 192 174 415 58 336 b 264 -17 58 75 138 -17 z m 333 142 b 254 207 285 142 254 163 b 446 321 254 260 301 301 l 446 200 b 333 142 410 164 379 142 z m 232 790 b 331 890 290 790 331 833 b 232 989 331 946 290 989 b 132 890 174 989 132 946 b 232 790 132 833 174 790 z m 535 790 b 635 890 593 790 635 833 b 535 989 635 946 593 989 b 436 890 476 989 436 946 b 535 790 436 833 476 790 z "},"ā":{"ha":732,"x_min":0,"x_max":0,"o":"m 264 -17 b 464 71 342 -17 406 19 l 469 71 l 483 0 l 650 0 l 650 394 b 376 706 650 606 553 706 b 82 615 268 706 169 668 l 156 481 b 338 543 222 519 279 543 b 446 443 413 543 442 504 b 58 192 174 415 58 336 b 264 -17 58 75 138 -17 z m 333 142 b 254 207 285 142 254 163 b 446 321 254 260 301 301 l 446 200 b 333 142 410 164 379 142 z m 178 822 l 589 822 l 589 951 l 178 951 z "},"ă":{"ha":732,"x_min":0,"x_max":0,"o":"m 264 -17 b 464 71 342 -17 406 19 l 469 71 l 483 0 l 650 0 l 650 394 b 376 706 650 606 553 706 b 82 615 268 706 169 668 l 156 481 b 338 543 222 519 279 543 b 446 443 413 543 442 504 b 58 192 174 415 58 336 b 264 -17 58 75 138 -17 z m 333 142 b 254 207 285 142 254 163 b 446 321 254 260 301 301 l 446 200 b 333 142 410 164 379 142 z m 383 794 b 618 1013 543 794 614 890 l 501 1032 b 383 922 493 972 457 922 b 265 1032 310 922 274 972 l 149 1013 b 383 794 153 890 225 794 z "},"å":{"ha":732,"x_min":0,"x_max":0,"o":"m 264 -17 b 464 71 342 -17 406 19 l 469 71 l 483 0 l 650 0 l 650 394 b 376 706 650 606 553 706 b 82 615 268 706 169 668 l 156 481 b 338 543 222 519 279 543 b 446 443 413 543 442 504 b 58 192 174 415 58 336 b 264 -17 58 75 138 -17 z m 333 142 b 254 207 285 142 254 163 b 446 321 254 260 301 301 l 446 200 b 333 142 410 164 379 142 z m 383 783 b 567 928 504 783 567 847 b 383 1072 567 1008 504 1072 b 200 928 263 1072 200 1008 b 383 783 200 847 263 783 z m 383 860 b 324 928 350 860 324 888 b 383 996 324 968 350 996 b 443 928 417 996 443 968 b 383 860 443 888 417 860 z "},"ǎ":{"ha":732,"x_min":0,"x_max":0,"o":"m 264 -17 b 464 71 342 -17 406 19 l 469 71 l 483 0 l 650 0 l 650 394 b 376 706 650 606 553 706 b 82 615 268 706 169 668 l 156 481 b 338 543 222 519 279 543 b 446 443 413 543 442 504 b 58 192 174 415 58 336 b 264 -17 58 75 138 -17 z m 333 142 b 254 207 285 142 254 163 b 446 321 254 260 301 301 l 446 200 b 333 142 410 164 379 142 z m 279 801 l 488 801 l 638 983 l 560 1056 l 386 928 l 381 928 l 207 1056 l 129 983 z "},"ạ":{"ha":732,"x_min":0,"x_max":0,"o":"m 264 -17 b 464 71 342 -17 406 19 l 469 71 l 483 0 l 650 0 l 650 394 b 376 706 650 606 553 706 b 82 615 268 706 169 668 l 156 481 b 338 543 222 519 279 543 b 446 443 413 543 442 504 b 58 192 174 415 58 336 b 264 -17 58 75 138 -17 z m 333 142 b 254 207 285 142 254 163 b 446 321 254 260 301 301 l 446 200 b 333 142 410 164 379 142 z m 360 -314 b 472 -207 426 -314 472 -269 b 360 -100 472 -144 426 -100 b 247 -207 293 -100 247 -144 b 360 -314 247 -269 293 -314 z "},"ả":{"ha":732,"x_min":0,"x_max":0,"o":"m 264 -17 b 464 71 342 -17 406 19 l 469 71 l 483 0 l 650 0 l 650 394 b 376 706 650 606 553 706 b 82 615 268 706 169 668 l 156 481 b 338 543 222 519 279 543 b 446 443 413 543 442 504 b 58 192 174 415 58 336 b 264 -17 58 75 138 -17 z m 333 142 b 254 207 285 142 254 163 b 446 321 254 260 301 301 l 446 200 b 333 142 410 164 379 142 z m 324 789 b 518 933 428 797 518 839 b 271 1101 518 1031 453 1097 l 258 976 b 369 918 339 971 369 951 b 307 869 369 889 342 876 z "},"ấ":{"ha":732,"x_min":0,"x_max":0,"o":"m 264 -17 b 464 71 342 -17 406 19 l 469 71 l 483 0 l 650 0 l 650 394 b 376 706 650 606 553 706 b 82 615 268 706 169 668 l 156 481 b 338 543 222 519 279 543 b 446 443 413 543 442 504 b 58 192 174 415 58 336 b 264 -17 58 75 138 -17 z m 333 142 b 254 207 285 142 254 163 b 446 321 254 260 301 301 l 446 200 b 333 142 410 164 379 142 z m 239 786 l 381 876 l 386 876 l 528 786 l 593 858 l 464 986 l 303 986 l 174 858 z m 550 947 l 628 886 l 768 1053 l 660 1124 z "},"ầ":{"ha":732,"x_min":0,"x_max":0,"o":"m 264 -17 b 464 71 342 -17 406 19 l 469 71 l 483 0 l 650 0 l 650 394 b 376 706 650 606 553 706 b 82 615 268 706 169 668 l 156 481 b 338 543 222 519 279 543 b 446 443 413 543 442 504 b 58 192 174 415 58 336 b 264 -17 58 75 138 -17 z m 333 142 b 254 207 285 142 254 163 b 446 321 254 260 301 301 l 446 200 b 333 142 410 164 379 142 z m 239 786 l 381 876 l 386 876 l 528 786 l 593 858 l 464 986 l 303 986 l 174 858 z m 217 947 l 101 1124 l -7 1051 l 139 886 z "},"ẩ":{"ha":732,"x_min":0,"x_max":0,"o":"m 264 -17 b 464 71 342 -17 406 19 l 469 71 l 483 0 l 650 0 l 650 394 b 376 706 650 606 553 706 b 82 615 268 706 169 668 l 156 481 b 338 543 222 519 279 543 b 446 443 413 543 442 504 b 58 192 174 415 58 336 b 264 -17 58 75 138 -17 z m 333 142 b 254 207 285 142 254 163 b 446 321 254 260 301 301 l 446 200 b 333 142 410 164 379 142 z m 239 786 l 381 876 l 386 876 l 528 786 l 593 858 l 464 986 l 303 986 l 174 858 z m 575 894 b 736 1025 663 907 736 935 b 532 1136 736 1090 683 1131 l 513 1050 b 603 1004 583 1044 603 1031 b 561 964 603 979 586 971 z "},"ẫ":{"ha":732,"x_min":0,"x_max":0,"o":"m 264 -17 b 464 71 342 -17 406 19 l 469 71 l 483 0 l 650 0 l 650 394 b 376 706 650 606 553 706 b 82 615 268 706 169 668 l 156 481 b 338 543 222 519 279 543 b 446 443 413 543 442 504 b 58 192 174 415 58 336 b 264 -17 58 75 138 -17 z m 333 142 b 254 207 285 142 254 163 b 446 321 254 260 301 301 l 446 200 b 333 142 410 164 379 142 z m 239 786 l 381 864 l 386 864 l 528 786 l 593 858 l 464 975 l 303 975 l 174 858 z m 178 1010 l 271 1000 b 314 1053 279 1038 292 1053 b 464 994 354 1053 388 994 b 589 1149 535 994 578 1043 l 496 1158 b 453 1106 488 1121 475 1106 b 303 1164 413 1106 379 1164 b 178 1010 232 1164 189 1115 z "},"ậ":{"ha":732,"x_min":0,"x_max":0,"o":"m 264 -17 b 464 71 342 -17 406 19 l 469 71 l 483 0 l 650 0 l 650 394 b 376 706 650 606 553 706 b 82 615 268 706 169 668 l 156 481 b 338 543 222 519 279 543 b 446 443 413 543 442 504 b 58 192 174 415 58 336 b 264 -17 58 75 138 -17 z m 333 142 b 254 207 285 142 254 163 b 446 321 254 260 301 301 l 446 200 b 333 142 410 164 379 142 z m 129 851 l 207 779 l 381 907 l 386 907 l 560 779 l 638 851 l 488 1033 l 279 1033 z m 360 -314 b 472 -207 426 -314 472 -269 b 360 -100 472 -144 426 -100 b 247 -207 293 -100 247 -144 b 360 -314 247 -269 293 -314 z "},"ắ":{"ha":732,"x_min":0,"x_max":0,"o":"m 264 -17 b 464 71 342 -17 406 19 l 469 71 l 483 0 l 650 0 l 650 394 b 376 706 650 606 553 706 b 82 615 268 706 169 668 l 156 481 b 338 543 222 519 279 543 b 446 443 413 543 442 504 b 58 192 174 415 58 336 b 264 -17 58 75 138 -17 z m 333 142 b 254 207 285 142 254 163 b 446 321 254 260 301 301 l 446 200 b 333 142 410 164 379 142 z m 396 971 l 557 1138 l 436 1228 l 307 1032 z m 383 794 b 618 1013 543 794 614 890 l 514 1032 b 383 910 503 965 464 910 b 253 1032 303 910 264 965 l 149 1013 b 383 794 153 890 225 794 z "},"ằ":{"ha":732,"x_min":0,"x_max":0,"o":"m 264 -17 b 464 71 342 -17 406 19 l 469 71 l 483 0 l 650 0 l 650 394 b 376 706 650 606 553 706 b 82 615 268 706 169 668 l 156 481 b 338 543 222 519 279 543 b 446 443 413 543 442 504 b 58 192 174 415 58 336 b 264 -17 58 75 138 -17 z m 333 142 b 254 207 285 142 254 163 b 446 321 254 260 301 301 l 446 200 b 333 142 410 164 379 142 z m 371 971 l 460 1032 l 331 1228 l 210 1138 z m 383 794 b 618 1013 543 794 614 890 l 514 1032 b 383 910 503 965 464 910 b 253 1032 303 910 264 965 l 149 1013 b 383 794 153 890 225 794 z "},"ẳ":{"ha":732,"x_min":0,"x_max":0,"o":"m 264 -17 b 464 71 342 -17 406 19 l 469 71 l 483 0 l 650 0 l 650 394 b 376 706 650 606 553 706 b 82 615 268 706 169 668 l 156 481 b 338 543 222 519 279 543 b 446 443 413 543 442 504 b 58 192 174 415 58 336 b 264 -17 58 75 138 -17 z m 333 142 b 254 207 285 142 254 163 b 446 321 254 260 301 301 l 446 200 b 333 142 410 164 379 142 z m 335 968 b 500 1099 425 979 500 1008 b 292 1235 500 1178 446 1229 l 272 1124 b 367 1078 344 1118 367 1104 b 322 1039 367 1053 349 1043 z m 383 794 b 618 1013 543 794 614 890 l 514 1032 b 383 910 503 965 464 910 b 253 1032 303 910 264 965 l 149 1013 b 383 794 153 890 225 794 z "},"ẵ":{"ha":732,"x_min":0,"x_max":0,"o":"m 264 -17 b 464 71 342 -17 406 19 l 469 71 l 483 0 l 650 0 l 650 394 b 376 706 650 606 553 706 b 82 615 268 706 169 668 l 156 481 b 338 543 222 519 279 543 b 446 443 413 543 442 504 b 58 192 174 415 58 336 b 264 -17 58 75 138 -17 z m 333 142 b 254 207 285 142 254 163 b 446 321 254 260 301 301 l 446 200 b 333 142 410 164 379 142 z m 383 794 b 597 951 528 794 589 868 l 497 968 b 383 896 488 932 457 896 b 269 968 310 896 279 932 l 169 951 b 383 794 178 868 239 794 z m 167 1007 l 271 997 b 314 1050 279 1035 292 1050 b 464 992 354 1050 388 992 b 600 1146 540 992 589 1040 l 496 1156 b 453 1104 488 1119 475 1104 b 303 1163 413 1104 379 1163 b 167 1007 226 1163 178 1114 z "},"ặ":{"ha":732,"x_min":0,"x_max":0,"o":"m 264 -17 b 464 71 342 -17 406 19 l 469 71 l 483 0 l 650 0 l 650 394 b 376 706 650 606 553 706 b 82 615 268 706 169 668 l 156 481 b 338 543 222 519 279 543 b 446 443 413 543 442 504 b 58 192 174 415 58 336 b 264 -17 58 75 138 -17 z m 333 142 b 254 207 285 142 254 163 b 446 321 254 260 301 301 l 446 200 b 333 142 410 164 379 142 z m 383 794 b 618 1013 543 794 614 890 l 501 1032 b 383 922 493 972 457 922 b 265 1032 310 922 274 972 l 149 1013 b 383 794 153 890 225 794 z m 360 -314 b 472 -207 426 -314 472 -269 b 360 -100 472 -144 426 -100 b 247 -207 293 -100 247 -144 b 360 -314 247 -269 293 -314 z "},"ą":{"ha":732,"x_min":0,"x_max":0,"o":"m 538 -292 b 679 -246 582 -292 643 -274 l 636 -154 b 586 -171 624 -162 604 -171 b 529 -118 557 -171 529 -156 b 650 0 529 -76 561 -25 l 650 394 b 376 706 650 606 553 706 b 82 615 268 706 169 668 l 156 481 b 338 543 222 519 279 543 b 446 443 413 543 442 504 b 58 190 174 415 58 336 b 264 -17 58 75 138 -17 b 464 71 342 -17 406 19 l 469 71 l 486 -3 b 390 -165 451 -26 390 -83 b 538 -292 390 -249 457 -292 z m 333 142 b 254 207 285 142 254 163 b 446 321 254 260 301 301 l 446 200 b 333 142 410 164 379 142 z "},"æ":{"ha":1092,"x_min":0,"x_max":0,"o":"m 269 -17 b 535 90 361 -17 438 13 b 772 -17 593 26 669 -17 b 1015 61 853 -17 944 13 l 946 193 b 800 143 896 164 851 143 b 635 285 717 143 650 189 l 1032 285 b 1040 371 1036 301 1040 333 b 767 706 1040 558 949 706 b 563 601 685 706 621 668 b 371 706 522 667 456 706 b 89 615 271 706 176 668 l 161 481 b 342 543 228 519 286 543 b 449 444 418 543 444 504 b 65 190 178 417 65 336 b 269 -17 65 75 144 -17 z m 339 142 b 260 207 290 142 260 163 b 447 321 260 261 313 301 l 449 292 b 468 200 451 261 458 228 b 339 142 431 164 386 142 z m 635 410 b 760 550 646 506 696 550 b 867 410 835 550 867 493 z "},"ǽ":{"ha":1092,"x_min":0,"x_max":0,"o":"m 269 -17 b 535 90 361 -17 438 13 b 772 -17 593 26 669 -17 b 1015 61 853 -17 944 13 l 946 193 b 800 143 896 164 851 143 b 635 285 717 143 650 189 l 1032 285 b 1040 371 1036 301 1040 333 b 767 706 1040 558 949 706 b 563 601 685 706 621 668 b 371 706 522 667 456 706 b 89 615 271 706 176 668 l 161 481 b 342 543 228 519 286 543 b 449 444 418 543 444 504 b 65 190 178 417 65 336 b 269 -17 65 75 144 -17 z m 339 142 b 260 207 290 142 260 163 b 447 321 260 261 313 301 l 449 292 b 468 200 451 261 458 228 b 339 142 431 164 386 142 z m 635 410 b 760 550 646 506 696 550 b 867 410 835 550 867 493 z m 585 794 l 836 1013 l 699 1147 l 485 894 z "},"ǣ":{"ha":1092,"x_min":0,"x_max":0,"o":"m 269 -17 b 535 90 361 -17 438 13 b 772 -17 593 26 669 -17 b 1015 61 853 -17 944 13 l 946 193 b 800 143 896 164 851 143 b 635 285 717 143 650 189 l 1032 285 b 1040 371 1036 301 1040 333 b 767 706 1040 558 949 706 b 563 601 685 706 621 668 b 371 706 522 667 456 706 b 89 615 271 706 176 668 l 161 481 b 342 543 228 519 286 543 b 449 444 418 543 444 504 b 65 190 178 417 65 336 b 269 -17 65 75 144 -17 z m 339 142 b 260 207 290 142 260 163 b 447 321 260 261 313 301 l 449 292 b 468 200 451 261 458 228 b 339 142 431 164 386 142 z m 635 410 b 760 550 646 506 696 550 b 867 410 835 550 867 493 z m 365 822 l 776 822 l 776 951 l 365 951 z "},"ƀ":{"ha":793,"x_min":0,"x_max":0,"o":"m 451 -17 b 742 325 600 -17 742 113 b 471 639 742 511 638 639 b 289 563 407 639 342 608 l 294 668 l 294 772 l 529 772 l 529 871 l 294 871 l 294 974 l 90 974 l 90 869 l -4 863 l -4 772 l 90 772 l 90 0 l 250 0 l 267 74 l 272 74 b 451 -17 326 14 390 -17 z m 404 150 b 294 194 369 150 331 161 l 294 410 b 413 471 333 453 371 471 b 532 322 494 471 532 415 b 404 150 532 208 475 150 z "},"ḇ":{"ha":796,"x_min":0,"x_max":0,"o":"m 451 -17 b 742 357 600 -17 742 119 b 471 706 742 568 638 706 b 289 629 407 706 342 676 l 294 735 l 294 974 l 90 974 l 90 0 l 250 0 l 267 74 l 272 74 b 451 -17 326 14 390 -17 z m 404 150 b 294 194 369 150 331 161 l 294 476 b 413 539 333 519 371 539 b 532 353 494 539 532 476 b 404 150 532 211 475 150 z m 201 -261 l 613 -261 l 613 -132 l 201 -132 z "},"ç":{"ha":649,"x_min":0,"x_max":0,"o":"m 251 -332 b 525 -189 425 -326 525 -283 b 419 -85 525 -131 489 -101 l 451 -11 b 618 65 508 -3 568 21 l 538 199 b 414 149 501 171 458 149 b 260 344 325 149 260 225 b 421 540 260 464 322 540 b 514 500 453 540 481 528 l 610 632 b 408 706 558 675 493 706 b 50 344 218 706 50 574 b 331 -12 50 140 168 13 l 272 -131 b 379 -189 357 -142 379 -161 b 236 -250 379 -228 344 -244 z "},"ć":{"ha":649,"x_min":0,"x_max":0,"o":"m 390 -17 b 618 65 465 -17 550 6 l 538 199 b 414 149 501 171 458 149 b 260 344 325 149 260 225 b 421 540 260 464 322 540 b 514 500 453 540 481 528 l 610 632 b 408 706 558 675 493 706 b 50 344 218 706 50 574 b 390 -17 50 115 199 -17 z m 417 794 l 668 1013 l 531 1147 l 317 894 z "},"ĉ":{"ha":649,"x_min":0,"x_max":0,"o":"m 390 -17 b 618 65 465 -17 550 6 l 538 199 b 414 149 501 171 458 149 b 260 344 325 149 260 225 b 421 540 260 464 322 540 b 514 500 453 540 481 528 l 610 632 b 408 706 558 675 493 706 b 50 344 218 706 50 574 b 390 -17 50 115 199 -17 z m 149 851 l 226 779 l 400 907 l 406 907 l 579 779 l 657 851 l 507 1033 l 299 1033 z "},"č":{"ha":649,"x_min":0,"x_max":0,"o":"m 390 -17 b 618 65 465 -17 550 6 l 538 199 b 414 149 501 171 458 149 b 260 344 325 149 260 225 b 421 540 260 464 322 540 b 514 500 453 540 481 528 l 610 632 b 408 706 558 675 493 706 b 50 344 218 706 50 574 b 390 -17 50 115 199 -17 z m 299 801 l 507 801 l 657 983 l 579 1056 l 406 928 l 400 928 l 226 1056 l 149 983 z "},"ċ":{"ha":649,"x_min":0,"x_max":0,"o":"m 390 -17 b 618 65 465 -17 550 6 l 538 199 b 414 149 501 171 458 149 b 260 344 325 149 260 225 b 421 540 260 464 322 540 b 514 500 453 540 481 528 l 610 632 b 408 706 558 675 493 706 b 50 344 218 706 50 574 b 390 -17 50 115 199 -17 z m 403 790 b 515 897 469 790 515 835 b 403 1004 515 960 469 1004 b 290 897 336 1004 290 960 b 403 790 290 835 336 790 z "},"ď":{"ha":853,"x_min":0,"x_max":0,"o":"m 336 -17 b 519 68 403 -17 471 19 l 525 68 l 539 0 l 706 0 l 706 974 l 501 974 l 501 739 l 510 633 b 340 706 463 678 417 706 b 54 344 194 706 54 569 b 336 -17 54 119 165 -17 z m 389 150 b 264 347 310 150 264 211 b 388 539 264 478 322 539 b 501 494 425 539 465 528 l 501 213 b 389 150 468 167 433 150 z m 767 761 l 854 761 l 888 974 l 890 1069 l 758 1069 z "},"ḍ":{"ha":796,"x_min":0,"x_max":0,"o":"m 336 -17 b 519 68 403 -17 471 19 l 525 68 l 539 0 l 706 0 l 706 974 l 501 974 l 501 739 l 510 633 b 340 706 463 678 417 706 b 54 344 194 706 54 569 b 336 -17 54 119 165 -17 z m 389 150 b 264 347 310 150 264 211 b 388 539 264 478 322 539 b 501 494 425 539 465 528 l 501 213 b 389 150 468 167 433 150 z m 433 -314 b 546 -207 500 -314 546 -269 b 433 -100 546 -144 500 -100 b 321 -207 367 -100 321 -144 b 433 -314 321 -269 367 -314 z "},"ḏ":{"ha":796,"x_min":0,"x_max":0,"o":"m 336 -17 b 519 68 403 -17 471 19 l 525 68 l 539 0 l 706 0 l 706 974 l 501 974 l 501 739 l 510 633 b 340 706 463 678 417 706 b 54 344 194 706 54 569 b 336 -17 54 119 165 -17 z m 389 150 b 264 347 310 150 264 211 b 388 539 264 478 322 539 b 501 494 425 539 465 528 l 501 213 b 389 150 468 167 433 150 z m 228 -261 l 639 -261 l 639 -132 l 228 -132 z "},"đ":{"ha":796,"x_min":0,"x_max":0,"o":"m 336 -17 b 517 61 406 -17 469 15 l 522 61 l 535 0 l 706 0 l 706 774 l 800 781 l 800 871 l 706 871 l 706 974 l 501 974 l 501 871 l 294 871 l 294 772 l 501 772 l 501 671 l 510 567 b 340 639 463 610 417 639 b 54 313 194 639 54 508 b 336 -17 54 114 165 -17 z m 389 150 b 264 315 310 150 264 207 b 388 471 264 417 322 471 b 501 428 425 471 465 460 l 501 213 b 389 150 468 167 433 150 z "},"è":{"ha":719,"x_min":0,"x_max":0,"o":"m 399 -17 b 643 61 481 -17 572 13 l 575 185 b 426 139 525 154 478 139 b 247 285 335 139 265 185 l 660 285 b 668 375 664 301 668 339 b 375 706 668 563 571 706 b 50 344 210 706 50 568 b 399 -17 50 117 201 -17 z m 246 419 b 379 550 260 507 315 550 b 494 419 461 550 494 496 z m 361 794 l 461 894 l 247 1147 l 110 1013 z "},"é":{"ha":719,"x_min":0,"x_max":0,"o":"m 399 -17 b 643 61 481 -17 572 13 l 575 185 b 426 139 525 154 478 139 b 247 285 335 139 265 185 l 660 285 b 668 375 664 301 668 339 b 375 706 668 563 571 706 b 50 344 210 706 50 568 b 399 -17 50 117 201 -17 z m 246 419 b 379 550 260 507 315 550 b 494 419 461 550 494 496 z m 389 794 l 640 1013 l 503 1147 l 289 894 z "},"ê":{"ha":719,"x_min":0,"x_max":0,"o":"m 399 -17 b 643 61 481 -17 572 13 l 575 185 b 426 139 525 154 478 139 b 247 285 335 139 265 185 l 660 285 b 668 375 664 301 668 339 b 375 706 668 563 571 706 b 50 344 210 706 50 568 b 399 -17 50 117 201 -17 z m 246 419 b 379 550 260 507 315 550 b 494 419 461 550 494 496 z m 121 851 l 199 779 l 372 907 l 378 907 l 551 779 l 629 851 l 479 1033 l 271 1033 z "},"ě":{"ha":719,"x_min":0,"x_max":0,"o":"m 399 -17 b 643 61 481 -17 572 13 l 575 185 b 426 139 525 154 478 139 b 247 285 335 139 265 185 l 660 285 b 668 375 664 301 668 339 b 375 706 668 563 571 706 b 50 344 210 706 50 568 b 399 -17 50 117 201 -17 z m 246 419 b 379 550 260 507 315 550 b 494 419 461 550 494 496 z m 271 801 l 479 801 l 629 983 l 551 1056 l 378 928 l 372 928 l 199 1056 l 121 983 z "},"ë":{"ha":719,"x_min":0,"x_max":0,"o":"m 399 -17 b 643 61 481 -17 572 13 l 575 185 b 426 139 525 154 478 139 b 247 285 335 139 265 185 l 660 285 b 668 375 664 301 668 339 b 375 706 668 563 571 706 b 50 344 210 706 50 568 b 399 -17 50 117 201 -17 z m 246 419 b 379 550 260 507 315 550 b 494 419 461 550 494 496 z m 224 790 b 322 890 282 790 322 833 b 224 989 322 946 282 989 b 124 890 165 989 124 946 b 224 790 124 833 165 790 z m 526 790 b 626 890 585 790 626 833 b 526 989 626 946 585 989 b 428 890 468 989 428 946 b 526 790 428 833 468 790 z "},"ē":{"ha":719,"x_min":0,"x_max":0,"o":"m 399 -17 b 643 61 481 -17 572 13 l 575 185 b 426 139 525 154 478 139 b 247 285 335 139 265 185 l 660 285 b 668 375 664 301 668 339 b 375 706 668 563 571 706 b 50 344 210 706 50 568 b 399 -17 50 117 201 -17 z m 246 419 b 379 550 260 507 315 550 b 494 419 461 550 494 496 z m 169 822 l 581 822 l 581 951 l 169 951 z "},"ĕ":{"ha":719,"x_min":0,"x_max":0,"o":"m 399 -17 b 643 61 481 -17 572 13 l 575 185 b 426 139 525 154 478 139 b 247 285 335 139 265 185 l 660 285 b 668 375 664 301 668 339 b 375 706 668 563 571 706 b 50 344 210 706 50 568 b 399 -17 50 117 201 -17 z m 246 419 b 379 550 260 507 315 550 b 494 419 461 550 494 496 z m 375 794 b 610 1013 535 794 606 890 l 493 1032 b 375 922 485 972 449 922 b 257 1032 301 922 265 972 l 140 1013 b 375 794 144 890 217 794 z "},"ė":{"ha":719,"x_min":0,"x_max":0,"o":"m 399 -17 b 643 61 481 -17 572 13 l 575 185 b 426 139 525 154 478 139 b 247 285 335 139 265 185 l 660 285 b 668 375 664 301 668 339 b 375 706 668 563 571 706 b 50 344 210 706 50 568 b 399 -17 50 117 201 -17 z m 246 419 b 379 550 260 507 315 550 b 494 419 461 550 494 496 z m 375 790 b 488 897 442 790 488 835 b 375 1004 488 960 442 1004 b 263 897 308 1004 263 960 b 375 790 263 835 308 790 z "},"ẹ":{"ha":719,"x_min":0,"x_max":0,"o":"m 399 -17 b 643 61 481 -17 572 13 l 575 185 b 426 139 525 154 478 139 b 247 285 335 139 265 185 l 660 285 b 668 375 664 301 668 339 b 375 706 668 563 571 706 b 50 344 210 706 50 568 b 399 -17 50 117 201 -17 z m 246 419 b 379 550 260 507 315 550 b 494 419 461 550 494 496 z m 374 -314 b 486 -207 440 -314 486 -269 b 374 -100 486 -144 440 -100 b 261 -207 307 -100 261 -144 b 374 -314 261 -269 307 -314 z "},"ẻ":{"ha":719,"x_min":0,"x_max":0,"o":"m 399 -17 b 643 61 481 -17 572 13 l 575 185 b 426 139 525 154 478 139 b 247 285 335 139 265 185 l 660 285 b 668 375 664 301 668 339 b 375 706 668 563 571 706 b 50 344 210 706 50 568 b 399 -17 50 117 201 -17 z m 246 419 b 379 550 260 507 315 550 b 494 419 461 550 494 496 z m 315 789 b 510 933 419 797 510 839 b 263 1101 510 1031 444 1097 l 250 976 b 361 918 331 971 361 951 b 299 869 361 889 333 876 z "},"ẽ":{"ha":719,"x_min":0,"x_max":0,"o":"m 399 -17 b 643 61 481 -17 572 13 l 575 185 b 426 139 525 154 478 139 b 247 285 335 139 265 185 l 660 285 b 668 375 664 301 668 339 b 375 706 668 563 571 706 b 50 344 210 706 50 568 b 399 -17 50 117 201 -17 z m 246 419 b 379 550 260 507 315 550 b 494 419 461 550 494 496 z m 467 796 b 639 1007 574 796 635 864 l 511 1014 b 463 938 506 961 490 938 b 283 1026 419 938 371 1026 b 111 815 176 1026 115 958 l 239 808 b 288 885 244 863 260 885 b 467 796 331 885 379 796 z "},"ế":{"ha":719,"x_min":0,"x_max":0,"o":"m 399 -17 b 643 61 481 -17 572 13 l 575 185 b 426 139 525 154 478 139 b 247 285 335 139 265 185 l 660 285 b 668 375 664 301 668 339 b 375 706 668 563 571 706 b 50 344 210 706 50 568 b 399 -17 50 117 201 -17 z m 246 419 b 379 550 260 507 315 550 b 494 419 461 550 494 496 z m 231 786 l 372 876 l 378 876 l 519 786 l 585 858 l 456 986 l 294 986 l 165 858 z m 542 947 l 619 886 l 760 1053 l 651 1124 z "},"ề":{"ha":719,"x_min":0,"x_max":0,"o":"m 399 -17 b 643 61 481 -17 572 13 l 575 185 b 426 139 525 154 478 139 b 247 285 335 139 265 185 l 660 285 b 668 375 664 301 668 339 b 375 706 668 563 571 706 b 50 344 210 706 50 568 b 399 -17 50 117 201 -17 z m 246 419 b 379 550 260 507 315 550 b 494 419 461 550 494 496 z m 231 786 l 372 876 l 378 876 l 519 786 l 585 858 l 456 986 l 294 986 l 165 858 z m 208 947 l 93 1124 l -15 1051 l 131 886 z "},"ể":{"ha":719,"x_min":0,"x_max":0,"o":"m 399 -17 b 643 61 481 -17 572 13 l 575 185 b 426 139 525 154 478 139 b 247 285 335 139 265 185 l 660 285 b 668 375 664 301 668 339 b 375 706 668 563 571 706 b 50 344 210 706 50 568 b 399 -17 50 117 201 -17 z m 246 419 b 379 550 260 507 315 550 b 494 419 461 550 494 496 z m 231 786 l 372 876 l 378 876 l 519 786 l 585 858 l 456 986 l 294 986 l 165 858 z m 567 894 b 728 1025 654 907 728 935 b 524 1136 728 1090 675 1131 l 504 1050 b 594 1004 575 1044 594 1031 b 553 964 594 979 578 971 z "},"ễ":{"ha":719,"x_min":0,"x_max":0,"o":"m 399 -17 b 643 61 481 -17 572 13 l 575 185 b 426 139 525 154 478 139 b 247 285 335 139 265 185 l 660 285 b 668 375 664 301 668 339 b 375 706 668 563 571 706 b 50 344 210 706 50 568 b 399 -17 50 117 201 -17 z m 246 419 b 379 550 260 507 315 550 b 494 419 461 550 494 496 z m 231 786 l 372 864 l 378 864 l 519 786 l 585 858 l 456 975 l 294 975 l 165 858 z m 169 1010 l 263 1000 b 306 1053 271 1038 283 1053 b 456 994 346 1053 379 994 b 581 1149 526 994 569 1043 l 488 1158 b 444 1106 479 1121 467 1106 b 294 1164 404 1106 371 1164 b 169 1010 224 1164 181 1115 z "},"ệ":{"ha":719,"x_min":0,"x_max":0,"o":"m 399 -17 b 643 61 481 -17 572 13 l 575 185 b 426 139 525 154 478 139 b 247 285 335 139 265 185 l 660 285 b 668 375 664 301 668 339 b 375 706 668 563 571 706 b 50 344 210 706 50 568 b 399 -17 50 117 201 -17 z m 246 419 b 379 550 260 507 315 550 b 494 419 461 550 494 496 z m 121 851 l 199 779 l 372 907 l 378 907 l 551 779 l 629 851 l 479 1033 l 271 1033 z m 374 -314 b 486 -207 440 -314 486 -269 b 374 -100 486 -144 440 -100 b 261 -207 307 -100 261 -144 b 374 -314 261 -269 307 -314 z "},"ę":{"ha":719,"x_min":0,"x_max":0,"o":"m 503 -292 b 643 -246 547 -292 608 -274 l 601 -154 b 553 -171 588 -162 571 -171 b 493 -118 519 -171 493 -154 b 643 61 493 -64 521 -24 l 575 185 b 426 139 525 154 478 139 b 247 285 335 139 265 185 l 660 285 b 668 375 664 301 668 339 b 375 706 668 563 571 706 b 50 344 210 706 50 568 b 399 -17 50 117 201 -17 b 436 -12 408 -17 419 -17 b 358 -165 401 -43 358 -97 b 503 -292 358 -249 421 -292 z m 246 419 b 379 550 260 507 315 550 b 494 419 461 550 494 496 z "},"ḗ":{"ha":719,"x_min":0,"x_max":0,"o":"m 399 -17 b 643 61 481 -17 572 13 l 575 185 b 426 139 525 154 478 139 b 247 285 335 139 265 185 l 660 285 b 668 375 664 301 668 339 b 375 706 668 563 571 706 b 50 344 210 706 50 568 b 399 -17 50 117 201 -17 z m 246 419 b 379 550 260 507 315 550 b 494 419 461 550 494 496 z m 336 990 l 551 1117 l 468 1219 l 268 1074 z m 169 822 l 581 822 l 581 951 l 169 951 z "},"ǵ":{"ha":742,"x_min":0,"x_max":0,"o":"m 336 -293 b 721 -46 572 -293 721 -189 b 458 129 721 78 628 129 l 347 129 b 243 181 271 129 243 146 b 268 232 243 204 250 217 b 351 218 299 222 326 218 b 622 450 503 218 622 292 b 600 540 622 486 613 519 l 710 540 l 710 689 l 458 689 b 351 706 428 700 390 706 b 67 457 203 706 67 622 b 160 278 67 376 111 311 l 160 272 b 82 143 115 242 82 193 b 146 26 82 86 110 50 l 146 21 b 47 -118 82 -15 47 -61 b 336 -293 47 -240 175 -293 z m 351 342 b 257 457 297 342 257 381 b 351 568 257 531 297 568 b 446 457 406 568 446 529 b 351 342 446 381 406 342 z m 368 -165 b 215 -86 276 -165 215 -137 b 253 -18 215 -61 228 -40 b 350 -26 275 -24 303 -26 l 421 -26 b 526 -81 489 -26 526 -37 b 368 -165 526 -128 460 -165 z m 401 794 l 653 1013 l 515 1147 l 301 894 z "},"ĝ":{"ha":742,"x_min":0,"x_max":0,"o":"m 336 -293 b 721 -46 572 -293 721 -189 b 458 129 721 78 628 129 l 347 129 b 243 181 271 129 243 146 b 268 232 243 204 250 217 b 351 218 299 222 326 218 b 622 450 503 218 622 292 b 600 540 622 486 613 519 l 710 540 l 710 689 l 458 689 b 351 706 428 700 390 706 b 67 457 203 706 67 622 b 160 278 67 376 111 311 l 160 272 b 82 143 115 242 82 193 b 146 26 82 86 110 50 l 146 21 b 47 -118 82 -15 47 -61 b 336 -293 47 -240 175 -293 z m 351 342 b 257 457 297 342 257 381 b 351 568 257 531 297 568 b 446 457 406 568 446 529 b 351 342 446 381 406 342 z m 368 -165 b 215 -86 276 -165 215 -137 b 253 -18 215 -61 228 -40 b 350 -26 275 -24 303 -26 l 421 -26 b 526 -81 489 -26 526 -37 b 368 -165 526 -128 460 -165 z m 133 851 l 211 779 l 385 907 l 390 907 l 564 779 l 642 851 l 492 1033 l 283 1033 z "},"ğ":{"ha":742,"x_min":0,"x_max":0,"o":"m 336 -293 b 721 -46 572 -293 721 -189 b 458 129 721 78 628 129 l 347 129 b 243 181 271 129 243 146 b 268 232 243 204 250 217 b 351 218 299 222 326 218 b 622 450 503 218 622 292 b 600 540 622 486 613 519 l 710 540 l 710 689 l 458 689 b 351 706 428 700 390 706 b 67 457 203 706 67 622 b 160 278 67 376 111 311 l 160 272 b 82 143 115 242 82 193 b 146 26 82 86 110 50 l 146 21 b 47 -118 82 -15 47 -61 b 336 -293 47 -240 175 -293 z m 351 342 b 257 457 297 342 257 381 b 351 568 257 531 297 568 b 446 457 406 568 446 529 b 351 342 446 381 406 342 z m 368 -165 b 215 -86 276 -165 215 -137 b 253 -18 215 -61 228 -40 b 350 -26 275 -24 303 -26 l 421 -26 b 526 -81 489 -26 526 -37 b 368 -165 526 -128 460 -165 z m 388 794 b 622 1013 547 794 618 890 l 506 1032 b 388 922 497 972 461 922 b 269 1032 314 922 278 972 l 153 1013 b 388 794 157 890 229 794 z "},"ġ":{"ha":742,"x_min":0,"x_max":0,"o":"m 336 -293 b 721 -46 572 -293 721 -189 b 458 129 721 78 628 129 l 347 129 b 243 181 271 129 243 146 b 268 232 243 204 250 217 b 351 218 299 222 326 218 b 622 450 503 218 622 292 b 600 540 622 486 613 519 l 710 540 l 710 689 l 458 689 b 351 706 428 700 390 706 b 67 457 203 706 67 622 b 160 278 67 376 111 311 l 160 272 b 82 143 115 242 82 193 b 146 26 82 86 110 50 l 146 21 b 47 -118 82 -15 47 -61 b 336 -293 47 -240 175 -293 z m 351 342 b 257 457 297 342 257 381 b 351 568 257 531 297 568 b 446 457 406 568 446 529 b 351 342 446 381 406 342 z m 368 -165 b 215 -86 276 -165 215 -137 b 253 -18 215 -61 228 -40 b 350 -26 275 -24 303 -26 l 421 -26 b 526 -81 489 -26 526 -37 b 368 -165 526 -128 460 -165 z m 388 790 b 500 897 454 790 500 835 b 388 1004 500 960 454 1004 b 275 897 321 1004 275 960 b 388 790 275 835 321 790 z "},"ģ":{"ha":742,"x_min":0,"x_max":0,"o":"m 336 -293 b 721 -46 572 -293 721 -189 b 458 129 721 78 628 129 l 347 129 b 243 181 271 129 243 146 b 268 232 243 204 250 217 b 351 218 299 222 326 218 b 622 450 503 218 622 292 b 600 540 622 486 613 519 l 710 540 l 710 689 l 458 689 b 351 706 428 700 390 706 b 67 457 203 706 67 622 b 160 278 67 376 111 311 l 160 272 b 82 143 115 242 82 193 b 146 26 82 86 110 50 l 146 21 b 47 -118 82 -15 47 -61 b 336 -293 47 -240 175 -293 z m 351 342 b 257 457 297 342 257 381 b 351 568 257 531 297 568 b 446 457 406 568 446 529 b 351 342 446 381 406 342 z m 368 -165 b 215 -86 276 -165 215 -137 b 253 -18 215 -61 228 -40 b 350 -26 275 -24 303 -26 l 421 -26 b 526 -81 489 -26 526 -37 b 368 -165 526 -128 460 -165 z m 451 789 l 490 864 b 401 913 428 869 401 886 b 544 967 401 946 436 961 l 529 1049 b 256 906 356 1043 256 1000 b 451 789 256 838 303 801 z "},"ǧ":{"ha":742,"x_min":0,"x_max":0,"o":"m 336 -293 b 721 -46 572 -293 721 -189 b 458 129 721 78 628 129 l 347 129 b 243 181 271 129 243 146 b 268 232 243 204 250 217 b 351 218 299 222 326 218 b 622 450 503 218 622 292 b 600 540 622 486 613 519 l 710 540 l 710 689 l 458 689 b 351 706 428 700 390 706 b 67 457 203 706 67 622 b 160 278 67 376 111 311 l 160 272 b 82 143 115 242 82 193 b 146 26 82 86 110 50 l 146 21 b 47 -118 82 -15 47 -61 b 336 -293 47 -240 175 -293 z m 351 342 b 257 457 297 342 257 381 b 351 568 257 531 297 568 b 446 457 406 568 446 529 b 351 342 446 381 406 342 z m 368 -165 b 215 -86 276 -165 215 -137 b 253 -18 215 -61 228 -40 b 350 -26 275 -24 303 -26 l 421 -26 b 526 -81 489 -26 526 -37 b 368 -165 526 -128 460 -165 z m 283 801 l 492 801 l 642 983 l 564 1056 l 390 928 l 385 928 l 211 1056 l 133 983 z "},"ḡ":{"ha":742,"x_min":0,"x_max":0,"o":"m 336 -293 b 721 -46 572 -293 721 -189 b 458 129 721 78 628 129 l 347 129 b 243 181 271 129 243 146 b 268 232 243 204 250 217 b 351 218 299 222 326 218 b 622 450 503 218 622 292 b 600 540 622 486 613 519 l 710 540 l 710 689 l 458 689 b 351 706 428 700 390 706 b 67 457 203 706 67 622 b 160 278 67 376 111 311 l 160 272 b 82 143 115 242 82 193 b 146 26 82 86 110 50 l 146 21 b 47 -118 82 -15 47 -61 b 336 -293 47 -240 175 -293 z m 351 342 b 257 457 297 342 257 381 b 351 568 257 531 297 568 b 446 457 406 568 446 529 b 351 342 446 381 406 342 z m 368 -165 b 215 -86 276 -165 215 -137 b 253 -18 215 -61 228 -40 b 350 -26 275 -24 303 -26 l 421 -26 b 526 -81 489 -26 526 -37 b 368 -165 526 -128 460 -165 z m 182 822 l 593 822 l 593 951 l 182 951 z "},"ĥ":{"ha":793,"x_min":0,"x_max":0,"o":"m 90 0 l 294 0 l 294 465 b 422 532 339 508 371 532 b 507 401 481 532 507 501 l 507 0 l 711 0 l 711 428 b 497 706 711 600 647 706 b 285 611 404 706 336 657 l 294 735 l 294 974 l 90 974 z m -46 1072 l 43 1018 l 188 1135 l 193 1135 l 338 1018 l 426 1072 l 301 1226 l 79 1226 z "},"ḥ":{"ha":793,"x_min":0,"x_max":0,"o":"m 90 0 l 294 0 l 294 465 b 422 532 339 508 371 532 b 507 401 481 532 507 501 l 507 0 l 711 0 l 711 428 b 497 706 711 600 647 706 b 285 611 404 706 336 657 l 294 735 l 294 974 l 90 974 z m 407 -314 b 519 -207 474 -314 519 -269 b 407 -100 519 -144 474 -100 b 294 -207 340 -100 294 -144 b 407 -314 294 -269 340 -314 z "},"ẖ":{"ha":793,"x_min":0,"x_max":0,"o":"m 90 0 l 294 0 l 294 465 b 422 532 339 508 371 532 b 507 401 481 532 507 501 l 507 0 l 711 0 l 711 428 b 497 706 711 600 647 706 b 285 611 404 706 336 657 l 294 735 l 294 974 l 90 974 z m 201 -261 l 613 -261 l 613 -132 l 201 -132 z "},"ḫ":{"ha":793,"x_min":0,"x_max":0,"o":"m 90 0 l 294 0 l 294 465 b 422 532 339 508 371 532 b 507 401 481 532 507 501 l 507 0 l 711 0 l 711 428 b 497 706 711 600 647 706 b 285 611 404 706 336 657 l 294 735 l 294 974 l 90 974 z m 407 -324 b 642 -106 567 -324 638 -228 l 525 -86 b 407 -196 517 -146 481 -196 b 289 -86 333 -196 297 -146 l 172 -106 b 407 -324 176 -228 249 -324 z "},"ħ":{"ha":793,"x_min":0,"x_max":0,"o":"m 90 0 l 294 0 l 294 397 b 422 464 339 440 371 464 b 507 335 481 464 507 433 l 507 0 l 711 0 l 711 361 b 497 639 711 533 647 639 b 285 543 404 639 336 590 l 294 668 l 294 772 l 529 772 l 529 871 l 294 871 l 294 974 l 90 974 l 90 869 l -4 863 l -4 772 l 90 772 z "},"ì":{"ha":383,"x_min":0,"x_max":0,"o":"m 90 0 l 294 0 l 294 689 l 90 689 z m 178 794 l 278 894 l 64 1147 l -74 1013 z "},"í":{"ha":383,"x_min":0,"x_max":0,"o":"m 90 0 l 294 0 l 294 689 l 90 689 z m 206 794 l 457 1013 l 319 1147 l 106 894 z "},"î":{"ha":383,"x_min":0,"x_max":0,"o":"m 90 0 l 294 0 l 294 689 l 90 689 z m -62 851 l 15 779 l 189 907 l 194 907 l 368 779 l 446 851 l 296 1033 l 88 1033 z "},"ĩ":{"ha":383,"x_min":0,"x_max":0,"o":"m 90 0 l 294 0 l 294 689 l 90 689 z m 283 796 b 456 1007 390 796 451 864 l 328 1014 b 279 938 322 961 307 938 b 100 1026 236 938 188 1026 b -72 815 -7 1026 -68 958 l 56 808 b 104 885 61 863 76 885 b 283 796 147 885 196 796 z "},"ï":{"ha":383,"x_min":0,"x_max":0,"o":"m 90 0 l 294 0 l 294 689 l 90 689 z m 40 790 b 139 890 99 790 139 833 b 40 989 139 946 99 989 b -60 890 -18 989 -60 946 b 40 790 -60 833 -18 790 z m 343 790 b 443 890 401 790 443 833 b 343 989 443 946 401 989 b 244 890 285 989 244 946 b 343 790 244 833 285 790 z "},"ī":{"ha":383,"x_min":0,"x_max":0,"o":"m 90 0 l 294 0 l 294 689 l 90 689 z m -14 822 l 397 822 l 397 951 l -14 951 z "},"ǐ":{"ha":383,"x_min":0,"x_max":0,"o":"m 90 0 l 294 0 l 294 689 l 90 689 z m 88 801 l 296 801 l 446 983 l 368 1056 l 194 928 l 189 928 l 15 1056 l -62 983 z "},"ỉ":{"ha":383,"x_min":0,"x_max":0,"o":"m 90 0 l 294 0 l 294 689 l 90 689 z m 132 789 b 326 933 236 797 326 839 b 79 1101 326 1031 261 1097 l 67 976 b 178 918 147 971 178 951 b 115 869 178 889 150 876 z "},"ị":{"ha":383,"x_min":0,"x_max":0,"o":"m 90 0 l 294 0 l 294 689 l 90 689 z m 192 790 b 310 897 261 790 310 835 b 192 1003 310 960 261 1003 b 74 897 124 1003 74 960 b 192 790 74 835 124 790 z m 192 -314 b 304 -207 258 -314 304 -269 b 192 -100 304 -144 258 -100 b 79 -207 125 -100 79 -144 b 192 -314 79 -269 125 -314 z "},"į":{"ha":383,"x_min":0,"x_max":0,"o":"m 204 -292 b 344 -246 247 -292 310 -274 l 303 -154 b 254 -171 286 -162 271 -171 b 194 -118 222 -171 194 -154 b 294 0 194 -76 221 -28 l 294 689 l 90 689 l 90 0 l 147 0 b 57 -165 113 -28 57 -85 b 204 -292 57 -249 122 -292 z m 192 790 b 310 897 260 790 310 835 b 192 1003 310 960 260 1003 b 74 897 124 1003 74 960 b 192 790 74 835 124 790 z "},"ĭ":{"ha":383,"x_min":0,"x_max":0,"o":"m 90 0 l 294 0 l 294 689 l 90 689 z m 192 794 b 426 1013 351 794 422 890 l 310 1032 b 192 922 301 972 265 922 b 74 1032 118 922 82 972 l -43 1013 b 192 794 -39 890 33 794 z "},"ı":{"ha":383,"x_min":0,"x_max":0,"o":"m 90 0 l 294 0 l 294 689 l 90 689 z "},"ĵ":{"ha":386,"x_min":0,"x_max":0,"o":"m 50 -272 b 296 4 238 -272 296 -146 l 296 689 l 92 689 l 92 -1 b 19 -112 92 -78 74 -112 b -35 -103 0 -112 -17 -108 l -71 -253 b 50 -272 -43 -264 -7 -272 z m -60 851 l 18 779 l 192 907 l 197 907 l 371 779 l 449 851 l 299 1033 l 90 1033 z "},"ķ":{"ha":761,"x_min":0,"x_max":0,"o":"m 90 0 l 289 0 l 289 169 l 376 268 l 532 0 l 753 0 l 493 406 l 735 689 l 513 689 l 294 415 l 289 415 l 289 974 l 90 974 z m 268 -332 b 542 -189 442 -326 542 -283 b 346 -72 542 -121 494 -85 l 307 -147 b 396 -196 369 -153 396 -169 b 253 -250 396 -228 361 -244 z "},"ḳ":{"ha":761,"x_min":0,"x_max":0,"o":"m 90 0 l 289 0 l 289 169 l 376 268 l 532 0 l 753 0 l 493 406 l 735 689 l 513 689 l 294 415 l 289 415 l 289 974 l 90 974 z m 410 -314 b 522 -207 476 -314 522 -269 b 410 -100 522 -144 476 -100 b 297 -207 343 -100 297 -144 b 410 -314 297 -269 343 -314 z "},"ḵ":{"ha":761,"x_min":0,"x_max":0,"o":"m 90 0 l 289 0 l 289 169 l 376 268 l 532 0 l 753 0 l 493 406 l 735 689 l 513 689 l 294 415 l 289 415 l 289 974 l 90 974 z m 204 -261 l 615 -261 l 615 -132 l 204 -132 z "},"ĸ":{"ha":761,"x_min":0,"x_max":0,"o":"m 90 0 l 294 0 l 294 163 l 376 263 l 532 0 l 753 0 l 499 406 l 735 689 l 513 689 l 299 411 l 294 411 l 294 689 l 90 689 z "},"ĺ":{"ha":397,"x_min":0,"x_max":0,"o":"m 278 -17 b 381 0 324 -17 358 -10 l 356 151 b 331 149 344 149 339 149 b 294 206 314 149 294 163 l 294 974 l 90 974 l 90 214 b 278 -17 90 75 138 -17 z m 182 1021 l 436 1186 l 328 1318 l 90 1124 z "},"ľ":{"ha":443,"x_min":0,"x_max":0,"o":"m 278 -17 b 381 0 324 -17 358 -10 l 356 151 b 331 149 344 149 339 149 b 294 206 314 149 294 163 l 294 974 l 90 974 l 90 214 b 278 -17 90 75 138 -17 z m 354 761 l 442 761 l 475 974 l 478 1069 l 346 1069 z "},"ŀ":{"ha":629,"x_min":0,"x_max":0,"o":"m 278 -17 b 381 0 324 -17 358 -10 l 356 151 b 331 149 344 149 339 149 b 294 206 314 149 294 163 l 294 974 l 90 974 l 90 214 b 278 -17 90 75 138 -17 z m 506 328 b 629 456 576 328 629 383 b 506 585 629 529 576 585 b 382 456 435 585 382 529 b 506 328 382 383 435 328 z "},"ļ":{"ha":397,"x_min":0,"x_max":0,"o":"m 278 -17 b 381 0 324 -17 358 -10 l 356 151 b 331 149 344 149 339 149 b 294 206 314 149 294 163 l 294 974 l 90 974 l 90 214 b 278 -17 90 75 138 -17 z m 118 -332 b 392 -189 292 -326 392 -283 b 196 -72 392 -121 344 -85 l 157 -147 b 246 -196 219 -153 246 -169 b 103 -250 246 -228 211 -244 z "},"ḷ":{"ha":397,"x_min":0,"x_max":0,"o":"m 278 -17 b 381 0 324 -17 358 -10 l 356 151 b 331 149 344 149 339 149 b 294 206 314 149 294 163 l 294 974 l 90 974 l 90 214 b 278 -17 90 75 138 -17 z m 260 -314 b 372 -207 326 -314 372 -269 b 260 -100 372 -144 326 -100 b 147 -207 193 -100 147 -144 b 260 -314 147 -269 193 -314 z "},"ḹ":{"ha":397,"x_min":0,"x_max":0,"o":"m 278 -17 b 381 0 324 -17 358 -10 l 356 151 b 331 149 344 149 339 149 b 294 206 314 149 294 163 l 294 974 l 90 974 l 90 214 b 278 -17 90 75 138 -17 z m -15 1117 l 396 1117 l 396 1246 l -15 1246 z m 260 -314 b 372 -207 326 -314 372 -269 b 260 -100 372 -144 326 -100 b 147 -207 193 -100 147 -144 b 260 -314 147 -269 193 -314 z "},"ḻ":{"ha":397,"x_min":0,"x_max":0,"o":"m 278 -17 b 381 0 324 -17 358 -10 l 356 151 b 331 149 344 149 339 149 b 294 206 314 149 294 163 l 294 974 l 90 974 l 90 214 b 278 -17 90 75 138 -17 z m 54 -261 l 465 -261 l 465 -132 l 54 -132 z "},"ł":{"ha":421,"x_min":0,"x_max":0,"o":"m 292 -17 b 394 0 338 -17 372 -10 l 369 151 b 344 149 358 149 353 149 b 308 206 328 149 308 163 l 308 483 l 444 560 l 375 686 l 308 649 l 308 974 l 104 974 l 104 549 l -29 474 l 42 347 l 104 383 l 104 214 b 292 -17 104 75 151 -17 z "},"ḿ":{"ha":1190,"x_min":0,"x_max":0,"o":"m 90 0 l 294 0 l 294 465 b 411 532 338 510 378 532 b 496 401 469 532 496 501 l 496 0 l 700 0 l 700 465 b 818 532 744 510 783 532 b 903 401 876 532 903 501 l 903 0 l 1107 0 l 1107 428 b 892 706 1107 600 1040 706 b 675 590 800 706 736 653 b 485 706 640 664 582 706 b 276 600 394 706 333 657 l 271 600 l 257 689 l 90 689 z m 624 794 l 875 1013 l 738 1147 l 524 894 z "},"ṁ":{"ha":1190,"x_min":0,"x_max":0,"o":"m 90 0 l 294 0 l 294 465 b 411 532 338 510 378 532 b 496 401 469 532 496 501 l 496 0 l 700 0 l 700 465 b 818 532 744 510 783 532 b 903 401 876 532 903 501 l 903 0 l 1107 0 l 1107 428 b 892 706 1107 600 1040 706 b 675 590 800 706 736 653 b 485 706 640 664 582 706 b 276 600 394 706 333 657 l 271 600 l 257 689 l 90 689 z m 610 790 b 722 897 676 790 722 835 b 610 1004 722 960 676 1004 b 497 897 543 1004 497 960 b 610 790 497 835 543 790 z "},"ṃ":{"ha":1190,"x_min":0,"x_max":0,"o":"m 90 0 l 294 0 l 294 465 b 411 532 338 510 378 532 b 496 401 469 532 496 501 l 496 0 l 700 0 l 700 465 b 818 532 744 510 783 532 b 903 401 876 532 903 501 l 903 0 l 1107 0 l 1107 428 b 892 706 1107 600 1040 706 b 675 590 800 706 736 653 b 485 706 640 664 582 706 b 276 600 394 706 333 657 l 271 600 l 257 689 l 90 689 z m 610 -314 b 722 -207 676 -314 722 -269 b 610 -100 722 -144 676 -100 b 497 -207 543 -100 497 -144 b 610 -314 497 -269 543 -314 z "},"ń":{"ha":794,"x_min":0,"x_max":0,"o":"m 90 0 l 294 0 l 294 465 b 422 532 339 508 371 532 b 507 401 481 532 507 501 l 507 0 l 711 0 l 711 428 b 497 706 711 600 647 706 b 276 601 404 706 335 657 l 271 601 l 257 689 l 90 689 z m 442 794 l 693 1013 l 556 1147 l 342 894 z "},"ǹ":{"ha":794,"x_min":0,"x_max":0,"o":"m 90 0 l 294 0 l 294 465 b 422 532 339 508 371 532 b 507 401 481 532 507 501 l 507 0 l 711 0 l 711 428 b 497 706 711 600 647 706 b 276 601 404 706 335 657 l 271 601 l 257 689 l 90 689 z m 414 794 l 514 894 l 300 1147 l 163 1013 z "},"ň":{"ha":794,"x_min":0,"x_max":0,"o":"m 90 0 l 294 0 l 294 465 b 422 532 339 508 371 532 b 507 401 481 532 507 501 l 507 0 l 711 0 l 711 428 b 497 706 711 600 647 706 b 276 601 404 706 335 657 l 271 601 l 257 689 l 90 689 z m 324 801 l 532 801 l 682 983 l 604 1056 l 431 928 l 425 928 l 251 1056 l 174 983 z "},"ñ":{"ha":794,"x_min":0,"x_max":0,"o":"m 90 0 l 294 0 l 294 465 b 422 532 339 508 371 532 b 507 401 481 532 507 501 l 507 0 l 711 0 l 711 428 b 497 706 711 600 647 706 b 276 601 404 706 335 657 l 271 601 l 257 689 l 90 689 z m 519 796 b 692 1007 626 796 688 864 l 564 1014 b 515 938 558 961 543 938 b 336 1026 472 938 424 1026 b 164 815 229 1026 168 958 l 292 808 b 340 885 297 863 313 885 b 519 796 383 885 432 796 z "},"ņ":{"ha":794,"x_min":0,"x_max":0,"o":"m 90 0 l 294 0 l 294 465 b 422 532 339 508 371 532 b 507 401 481 532 507 501 l 507 0 l 711 0 l 711 428 b 497 706 711 600 647 706 b 276 601 404 706 335 657 l 271 601 l 257 689 l 90 689 z m 263 -332 b 536 -189 436 -326 536 -283 b 340 -72 536 -121 489 -85 l 301 -147 b 390 -196 364 -153 390 -169 b 247 -250 390 -228 356 -244 z "},"ṅ":{"ha":794,"x_min":0,"x_max":0,"o":"m 90 0 l 294 0 l 294 465 b 422 532 339 508 371 532 b 507 401 481 532 507 501 l 507 0 l 711 0 l 711 428 b 497 706 711 600 647 706 b 276 601 404 706 335 657 l 271 601 l 257 689 l 90 689 z m 428 790 b 540 897 494 790 540 835 b 428 1004 540 960 494 1004 b 315 897 361 1004 315 960 b 428 790 315 835 361 790 z "},"ṇ":{"ha":794,"x_min":0,"x_max":0,"o":"m 90 0 l 294 0 l 294 465 b 422 532 339 508 371 532 b 507 401 481 532 507 501 l 507 0 l 711 0 l 711 428 b 497 706 711 600 647 706 b 276 601 404 706 335 657 l 271 601 l 257 689 l 90 689 z m 404 -314 b 517 -207 471 -314 517 -269 b 404 -100 517 -144 471 -100 b 292 -207 338 -100 292 -144 b 404 -314 292 -269 338 -314 z "},"ṉ":{"ha":794,"x_min":0,"x_max":0,"o":"m 90 0 l 294 0 l 294 465 b 422 532 339 508 371 532 b 507 401 481 532 507 501 l 507 0 l 711 0 l 711 428 b 497 706 711 600 647 706 b 276 601 404 706 335 657 l 271 601 l 257 689 l 90 689 z m 199 -261 l 610 -261 l 610 -132 l 199 -132 z "},"ŉ":{"ha":1183,"x_min":0,"x_max":0,"o":"m 476 0 l 681 0 l 681 465 b 808 532 725 508 757 532 b 893 401 867 532 893 501 l 893 0 l 1097 0 l 1097 428 b 883 706 1097 600 1033 706 b 663 601 790 706 721 657 l 657 601 l 643 689 l 476 689 z m 143 489 b 342 786 276 554 342 656 b 211 968 342 901 296 968 b 104 854 149 968 104 924 b 211 753 104 792 151 753 b 224 754 215 753 219 753 b 99 578 224 672 182 619 z "},"ò":{"ha":771,"x_min":0,"x_max":0,"o":"m 386 -17 b 721 344 560 -17 721 115 b 386 706 721 574 560 706 b 50 344 211 706 50 574 b 386 -17 50 115 211 -17 z m 386 149 b 260 344 301 149 260 225 b 386 540 260 464 301 540 b 513 344 469 540 513 464 b 386 149 513 225 469 149 z m 372 794 l 472 894 l 258 1147 l 121 1013 z "},"ó":{"ha":771,"x_min":0,"x_max":0,"o":"m 386 -17 b 721 344 560 -17 721 115 b 386 706 721 574 560 706 b 50 344 211 706 50 574 b 386 -17 50 115 211 -17 z m 386 149 b 260 344 301 149 260 225 b 386 540 260 464 301 540 b 513 344 469 540 513 464 b 386 149 513 225 469 149 z m 400 794 l 651 1013 l 514 1147 l 300 894 z "},"ô":{"ha":771,"x_min":0,"x_max":0,"o":"m 386 -17 b 721 344 560 -17 721 115 b 386 706 721 574 560 706 b 50 344 211 706 50 574 b 386 -17 50 115 211 -17 z m 386 149 b 260 344 301 149 260 225 b 386 540 260 464 301 540 b 513 344 469 540 513 464 b 386 149 513 225 469 149 z m 132 851 l 210 779 l 383 907 l 389 907 l 563 779 l 640 851 l 490 1033 l 282 1033 z "},"õ":{"ha":771,"x_min":0,"x_max":0,"o":"m 386 -17 b 721 344 560 -17 721 115 b 386 706 721 574 560 706 b 50 344 211 706 50 574 b 386 -17 50 115 211 -17 z m 386 149 b 260 344 301 149 260 225 b 386 540 260 464 301 540 b 513 344 469 540 513 464 b 386 149 513 225 469 149 z m 478 796 b 650 1007 585 796 646 864 l 522 1014 b 474 938 517 961 501 938 b 294 1026 431 938 382 1026 b 122 815 188 1026 126 958 l 250 808 b 299 885 256 863 271 885 b 478 796 342 885 390 796 z "},"ö":{"ha":771,"x_min":0,"x_max":0,"o":"m 386 -17 b 721 344 560 -17 721 115 b 386 706 721 574 560 706 b 50 344 211 706 50 574 b 386 -17 50 115 211 -17 z m 386 149 b 260 344 301 149 260 225 b 386 540 260 464 301 540 b 513 344 469 540 513 464 b 386 149 513 225 469 149 z m 235 790 b 333 890 293 790 333 833 b 235 989 333 946 293 989 b 135 890 176 989 135 946 b 235 790 135 833 176 790 z m 538 790 b 638 890 596 790 638 833 b 538 989 638 946 596 989 b 439 890 479 989 439 946 b 538 790 439 833 479 790 z "},"ō":{"ha":771,"x_min":0,"x_max":0,"o":"m 386 -17 b 721 344 560 -17 721 115 b 386 706 721 574 560 706 b 50 344 211 706 50 574 b 386 -17 50 115 211 -17 z m 386 149 b 260 344 301 149 260 225 b 386 540 260 464 301 540 b 513 344 469 540 513 464 b 386 149 513 225 469 149 z m 181 822 l 592 822 l 592 951 l 181 951 z "},"ő":{"ha":771,"x_min":0,"x_max":0,"o":"m 386 -17 b 721 344 560 -17 721 115 b 386 706 721 574 560 706 b 50 344 211 706 50 574 b 386 -17 50 115 211 -17 z m 386 149 b 260 344 301 149 260 225 b 386 540 260 464 301 540 b 513 344 469 540 513 464 b 386 149 513 225 469 149 z m 314 785 l 465 1024 l 328 1085 l 207 833 z m 563 785 l 714 1024 l 576 1085 l 456 833 z "},"ǒ":{"ha":771,"x_min":0,"x_max":0,"o":"m 386 -17 b 721 344 560 -17 721 115 b 386 706 721 574 560 706 b 50 344 211 706 50 574 b 386 -17 50 115 211 -17 z m 386 149 b 260 344 301 149 260 225 b 386 540 260 464 301 540 b 513 344 469 540 513 464 b 386 149 513 225 469 149 z m 282 801 l 490 801 l 640 983 l 563 1056 l 389 928 l 383 928 l 210 1056 l 132 983 z "},"ọ":{"ha":771,"x_min":0,"x_max":0,"o":"m 386 -17 b 721 344 560 -17 721 115 b 386 706 721 574 560 706 b 50 344 211 706 50 574 b 386 -17 50 115 211 -17 z m 386 149 b 260 344 301 149 260 225 b 386 540 260 464 301 540 b 513 344 469 540 513 464 b 386 149 513 225 469 149 z m 386 -314 b 499 -207 453 -314 499 -269 b 386 -100 499 -144 453 -100 b 274 -207 319 -100 274 -144 b 386 -314 274 -269 319 -314 z "},"ỏ":{"ha":771,"x_min":0,"x_max":0,"o":"m 386 -17 b 721 344 560 -17 721 115 b 386 706 721 574 560 706 b 50 344 211 706 50 574 b 386 -17 50 115 211 -17 z m 386 149 b 260 344 301 149 260 225 b 386 540 260 464 301 540 b 513 344 469 540 513 464 b 386 149 513 225 469 149 z m 326 789 b 521 933 431 797 521 839 b 274 1101 521 1031 456 1097 l 261 976 b 372 918 342 971 372 951 b 310 869 372 889 344 876 z "},"ố":{"ha":771,"x_min":0,"x_max":0,"o":"m 386 -17 b 721 344 560 -17 721 115 b 386 706 721 574 560 706 b 50 344 211 706 50 574 b 386 -17 50 115 211 -17 z m 386 149 b 260 344 301 149 260 225 b 386 540 260 464 301 540 b 513 344 469 540 513 464 b 386 149 513 225 469 149 z m 242 786 l 383 876 l 389 876 l 531 786 l 596 858 l 467 986 l 306 986 l 176 858 z m 553 947 l 631 886 l 771 1053 l 663 1124 z "},"ồ":{"ha":771,"x_min":0,"x_max":0,"o":"m 386 -17 b 721 344 560 -17 721 115 b 386 706 721 574 560 706 b 50 344 211 706 50 574 b 386 -17 50 115 211 -17 z m 386 149 b 260 344 301 149 260 225 b 386 540 260 464 301 540 b 513 344 469 540 513 464 b 386 149 513 225 469 149 z m 242 786 l 383 876 l 389 876 l 531 786 l 596 858 l 467 986 l 306 986 l 176 858 z m 219 947 l 104 1124 l -4 1051 l 142 886 z "},"ổ":{"ha":771,"x_min":0,"x_max":0,"o":"m 386 -17 b 721 344 560 -17 721 115 b 386 706 721 574 560 706 b 50 344 211 706 50 574 b 386 -17 50 115 211 -17 z m 386 149 b 260 344 301 149 260 225 b 386 540 260 464 301 540 b 513 344 469 540 513 464 b 386 149 513 225 469 149 z m 242 786 l 383 876 l 389 876 l 531 786 l 596 858 l 467 986 l 306 986 l 176 858 z m 578 894 b 739 1025 665 907 739 935 b 535 1136 739 1090 686 1131 l 515 1050 b 606 1004 586 1044 606 1031 b 564 964 606 979 589 971 z "},"ỗ":{"ha":771,"x_min":0,"x_max":0,"o":"m 386 -17 b 721 344 560 -17 721 115 b 386 706 721 574 560 706 b 50 344 211 706 50 574 b 386 -17 50 115 211 -17 z m 386 149 b 260 344 301 149 260 225 b 386 540 260 464 301 540 b 513 344 469 540 513 464 b 386 149 513 225 469 149 z m 242 786 l 383 864 l 389 864 l 531 786 l 596 858 l 467 975 l 306 975 l 176 858 z m 181 1010 l 274 1000 b 317 1053 282 1038 294 1053 b 467 994 357 1053 390 994 b 592 1149 538 994 581 1043 l 499 1158 b 456 1106 490 1121 478 1106 b 306 1164 415 1106 382 1164 b 181 1010 235 1164 192 1115 z "},"ộ":{"ha":771,"x_min":0,"x_max":0,"o":"m 386 -17 b 721 344 560 -17 721 115 b 386 706 721 574 560 706 b 50 344 211 706 50 574 b 386 -17 50 115 211 -17 z m 386 149 b 260 344 301 149 260 225 b 386 540 260 464 301 540 b 513 344 469 540 513 464 b 386 149 513 225 469 149 z m 132 851 l 210 779 l 383 907 l 389 907 l 563 779 l 640 851 l 490 1033 l 282 1033 z m 386 -314 b 499 -207 453 -314 499 -269 b 386 -100 499 -144 453 -100 b 274 -207 319 -100 274 -144 b 386 -314 274 -269 319 -314 z "},"ŏ":{"ha":771,"x_min":0,"x_max":0,"o":"m 386 -17 b 721 344 560 -17 721 115 b 386 706 721 574 560 706 b 50 344 211 706 50 574 b 386 -17 50 115 211 -17 z m 386 149 b 260 344 301 149 260 225 b 386 540 260 464 301 540 b 513 344 469 540 513 464 b 386 149 513 225 469 149 z m 386 794 b 621 1013 546 794 617 890 l 504 1032 b 386 922 496 972 460 922 b 268 1032 313 922 276 972 l 151 1013 b 386 794 156 890 228 794 z "},"ṓ":{"ha":771,"x_min":0,"x_max":0,"o":"m 386 -17 b 721 344 560 -17 721 115 b 386 706 721 574 560 706 b 50 344 211 706 50 574 b 386 -17 50 115 211 -17 z m 386 149 b 260 344 301 149 260 225 b 386 540 260 464 301 540 b 513 344 469 540 513 464 b 386 149 513 225 469 149 z m 347 990 l 563 1117 l 479 1219 l 279 1074 z m 181 822 l 592 822 l 592 951 l 181 951 z "},"ø":{"ha":771,"x_min":0,"x_max":0,"o":"m 386 -17 b 721 344 560 -17 721 115 b 642 586 721 444 690 525 l 707 667 l 631 726 l 569 651 b 386 706 515 686 451 706 b 50 344 211 706 50 574 b 129 104 50 244 81 164 l 64 24 l 140 -35 l 200 39 b 386 -17 254 3 319 -17 z m 247 356 b 386 547 247 471 301 547 b 464 521 417 547 443 539 l 257 263 b 247 356 250 289 247 319 z m 386 142 b 306 169 354 142 326 151 l 514 428 b 524 333 521 401 524 369 b 386 142 524 218 469 142 z "},"œ":{"ha":1142,"x_min":0,"x_max":0,"o":"m 371 -17 b 600 104 472 -17 543 25 b 822 -17 657 28 739 -17 b 1067 61 903 -17 996 13 l 996 193 b 850 143 946 164 901 143 b 685 285 767 143 700 189 l 1083 285 b 1092 371 1088 301 1092 333 b 817 706 1092 558 999 706 b 599 585 733 706 654 661 b 375 706 546 660 472 706 b 50 344 200 706 50 574 b 371 -17 50 115 194 -17 z m 375 149 b 257 344 300 149 257 225 b 375 540 257 464 300 540 b 496 344 450 540 496 464 b 375 149 496 225 450 149 z m 685 410 b 810 550 696 506 746 550 b 917 410 885 550 917 493 z "},"ơ":{"ha":771,"x_min":0,"x_max":0,"o":"m 386 -17 b 721 344 560 -17 721 115 b 618 611 721 458 681 549 b 785 817 710 639 785 706 b 743 947 785 868 764 919 l 592 882 b 614 803 604 863 614 833 b 519 678 614 725 575 692 b 386 706 478 696 432 706 b 50 344 211 706 50 574 b 386 -17 50 115 211 -17 z m 386 149 b 260 344 301 149 260 225 b 386 540 260 464 301 540 b 513 344 469 540 513 464 b 386 149 513 225 469 149 z "},"ớ":{"ha":771,"x_min":0,"x_max":0,"o":"m 386 -17 b 721 344 560 -17 721 115 b 618 611 721 458 681 549 b 785 817 710 639 785 706 b 743 947 785 868 764 919 l 592 882 b 614 803 604 863 614 833 b 519 678 614 725 575 692 b 386 706 478 696 432 706 b 50 344 211 706 50 574 b 386 -17 50 115 211 -17 z m 386 149 b 260 344 301 149 260 225 b 386 540 260 464 301 540 b 513 344 469 540 513 464 b 386 149 513 225 469 149 z m 400 794 l 651 1013 l 514 1147 l 300 894 z "},"ờ":{"ha":771,"x_min":0,"x_max":0,"o":"m 386 -17 b 721 344 560 -17 721 115 b 618 611 721 458 681 549 b 785 817 710 639 785 706 b 743 947 785 868 764 919 l 592 882 b 614 803 604 863 614 833 b 519 678 614 725 575 692 b 386 706 478 696 432 706 b 50 344 211 706 50 574 b 386 -17 50 115 211 -17 z m 386 149 b 260 344 301 149 260 225 b 386 540 260 464 301 540 b 513 344 469 540 513 464 b 386 149 513 225 469 149 z m 372 794 l 472 894 l 258 1147 l 121 1013 z "},"ở":{"ha":771,"x_min":0,"x_max":0,"o":"m 386 -17 b 721 344 560 -17 721 115 b 618 611 721 458 681 549 b 785 817 710 639 785 706 b 743 947 785 868 764 919 l 592 882 b 614 803 604 863 614 833 b 519 678 614 725 575 692 b 386 706 478 696 432 706 b 50 344 211 706 50 574 b 386 -17 50 115 211 -17 z m 386 149 b 260 344 301 149 260 225 b 386 540 260 464 301 540 b 513 344 469 540 513 464 b 386 149 513 225 469 149 z m 326 789 b 521 933 431 797 521 839 b 274 1101 521 1031 456 1097 l 261 976 b 372 918 342 971 372 951 b 310 869 372 889 344 876 z "},"ỡ":{"ha":771,"x_min":0,"x_max":0,"o":"m 386 -17 b 721 344 560 -17 721 115 b 618 611 721 458 681 549 b 785 817 710 639 785 706 b 743 947 785 868 764 919 l 592 882 b 614 803 604 863 614 833 b 519 678 614 725 575 692 b 386 706 478 696 432 706 b 50 344 211 706 50 574 b 386 -17 50 115 211 -17 z m 386 149 b 260 344 301 149 260 225 b 386 540 260 464 301 540 b 513 344 469 540 513 464 b 386 149 513 225 469 149 z m 432 796 b 604 1007 539 796 600 864 l 476 1014 b 428 938 471 961 456 938 b 249 1026 385 938 336 1026 b 76 815 142 1026 81 958 l 204 808 b 253 885 210 863 225 885 b 432 796 296 885 344 796 z "},"ợ":{"ha":771,"x_min":0,"x_max":0,"o":"m 386 -17 b 721 344 560 -17 721 115 b 618 611 721 458 681 549 b 785 817 710 639 785 706 b 743 947 785 868 764 919 l 592 882 b 614 803 604 863 614 833 b 519 678 614 725 575 692 b 386 706 478 696 432 706 b 50 344 211 706 50 574 b 386 -17 50 115 211 -17 z m 386 149 b 260 344 301 149 260 225 b 386 540 260 464 301 540 b 513 344 469 540 513 464 b 386 149 513 225 469 149 z m 386 -314 b 499 -207 453 -314 499 -269 b 386 -100 499 -144 453 -100 b 274 -207 319 -100 274 -144 b 386 -314 274 -269 319 -314 z "},"ǫ":{"ha":771,"x_min":0,"x_max":0,"o":"m 413 -292 b 553 -246 457 -292 518 -274 l 511 -154 b 461 -171 497 -162 479 -171 b 403 -118 432 -171 403 -156 b 496 0 403 -78 428 -31 b 721 344 631 64 721 161 b 386 706 721 574 560 706 b 50 344 211 706 50 574 b 342 -14 50 135 185 6 b 265 -165 310 -42 265 -96 b 413 -292 265 -249 331 -292 z m 386 149 b 260 344 301 149 260 225 b 386 540 260 464 301 540 b 513 344 469 540 513 464 b 386 149 513 225 469 149 z "},"ŕ":{"ha":553,"x_min":0,"x_max":0,"o":"m 90 0 l 294 0 l 294 400 b 446 526 331 493 394 526 b 521 515 475 526 496 522 l 554 692 b 472 706 535 700 511 706 b 276 568 401 706 326 661 l 271 568 l 257 689 l 90 689 z m 357 794 l 608 1013 l 471 1147 l 257 894 z "},"ŗ":{"ha":553,"x_min":0,"x_max":0,"o":"m 90 0 l 294 0 l 294 400 b 446 526 331 493 394 526 b 521 515 475 526 496 522 l 554 692 b 472 706 535 700 511 706 b 276 568 401 706 326 661 l 271 568 l 257 689 l 90 689 z m 50 -332 b 324 -189 224 -326 324 -283 b 128 -72 324 -121 276 -85 l 89 -147 b 178 -196 151 -153 178 -169 b 35 -250 178 -228 143 -244 z "},"ř":{"ha":553,"x_min":0,"x_max":0,"o":"m 90 0 l 294 0 l 294 400 b 446 526 331 493 394 526 b 521 515 475 526 496 522 l 554 692 b 472 706 535 700 511 706 b 276 568 401 706 326 661 l 271 568 l 257 689 l 90 689 z m 239 801 l 447 801 l 597 983 l 519 1056 l 346 928 l 340 928 l 167 1056 l 89 983 z "},"ṙ":{"ha":553,"x_min":0,"x_max":0,"o":"m 90 0 l 294 0 l 294 400 b 446 526 331 493 394 526 b 521 515 475 526 496 522 l 554 692 b 472 706 535 700 511 706 b 276 568 401 706 326 661 l 271 568 l 257 689 l 90 689 z m 342 790 b 454 897 408 790 454 835 b 342 1004 454 960 408 1004 b 229 897 275 1004 229 960 b 342 790 229 835 275 790 z "},"ṛ":{"ha":553,"x_min":0,"x_max":0,"o":"m 90 0 l 294 0 l 294 400 b 446 526 331 493 394 526 b 521 515 475 526 496 522 l 554 692 b 472 706 535 700 511 706 b 276 568 401 706 326 661 l 271 568 l 257 689 l 90 689 z m 192 -314 b 304 -207 258 -314 304 -269 b 192 -100 304 -144 258 -100 b 79 -207 125 -100 79 -144 b 192 -314 79 -269 125 -314 z "},"ṝ":{"ha":553,"x_min":0,"x_max":0,"o":"m 90 0 l 294 0 l 294 400 b 446 526 331 493 394 526 b 521 515 475 526 496 522 l 554 692 b 472 706 535 700 511 706 b 276 568 401 706 326 661 l 271 568 l 257 689 l 90 689 z m 138 822 l 549 822 l 549 951 l 138 951 z m 192 -314 b 304 -207 258 -314 304 -269 b 192 -100 304 -144 258 -100 b 79 -207 125 -100 79 -144 b 192 -314 79 -269 125 -314 z "},"ṟ":{"ha":553,"x_min":0,"x_max":0,"o":"m 90 0 l 294 0 l 294 400 b 446 526 331 493 394 526 b 521 515 475 526 496 522 l 554 692 b 472 706 535 700 511 706 b 276 568 401 706 326 661 l 271 568 l 257 689 l 90 689 z m -14 -261 l 397 -261 l 397 -132 l -14 -132 z "},"ś":{"ha":615,"x_min":0,"x_max":0,"o":"m 293 -17 b 576 206 478 -17 576 81 b 390 413 576 332 478 381 b 256 500 319 439 256 456 b 333 554 256 535 281 554 b 479 496 382 554 429 532 l 571 618 b 328 706 511 663 433 706 b 64 490 168 706 64 618 b 246 288 64 376 163 319 b 386 193 317 260 386 239 b 299 135 386 157 360 135 b 121 207 240 135 183 160 l 29 79 b 293 -17 99 22 203 -17 z m 342 794 l 593 1013 l 456 1147 l 242 894 z "},"ŝ":{"ha":615,"x_min":0,"x_max":0,"o":"m 293 -17 b 576 206 478 -17 576 81 b 390 413 576 332 478 381 b 256 500 319 439 256 456 b 333 554 256 535 281 554 b 479 496 382 554 429 532 l 571 618 b 328 706 511 663 433 706 b 64 490 168 706 64 618 b 246 288 64 376 163 319 b 386 193 317 260 386 239 b 299 135 386 157 360 135 b 121 207 240 135 183 160 l 29 79 b 293 -17 99 22 203 -17 z m 74 851 l 151 779 l 325 907 l 331 907 l 504 779 l 582 851 l 432 1033 l 224 1033 z "},"š":{"ha":615,"x_min":0,"x_max":0,"o":"m 293 -17 b 576 206 478 -17 576 81 b 390 413 576 332 478 381 b 256 500 319 439 256 456 b 333 554 256 535 281 554 b 479 496 382 554 429 532 l 571 618 b 328 706 511 663 433 706 b 64 490 168 706 64 618 b 246 288 64 376 163 319 b 386 193 317 260 386 239 b 299 135 386 157 360 135 b 121 207 240 135 183 160 l 29 79 b 293 -17 99 22 203 -17 z m 224 801 l 432 801 l 582 983 l 504 1056 l 331 928 l 325 928 l 151 1056 l 74 983 z "},"ş":{"ha":615,"x_min":0,"x_max":0,"o":"m 188 -332 b 461 -189 361 -326 461 -283 b 356 -85 461 -131 425 -101 l 389 -7 b 576 206 511 21 576 104 b 390 413 576 332 478 381 b 256 500 319 439 256 456 b 333 554 256 535 281 554 b 479 496 382 554 429 532 l 571 618 b 328 706 511 663 433 706 b 64 490 168 706 64 618 b 246 288 64 376 163 319 b 386 193 317 260 386 239 b 299 135 386 157 360 135 b 121 207 240 135 183 160 l 29 79 b 265 -15 92 28 182 -8 l 208 -131 b 315 -189 293 -142 315 -161 b 172 -250 315 -228 281 -244 z "},"ș":{"ha":615,"x_min":0,"x_max":0,"o":"m 293 -17 b 576 206 478 -17 576 81 b 390 413 576 332 478 381 b 256 500 319 439 256 456 b 333 554 256 535 281 554 b 479 496 382 554 429 532 l 571 618 b 328 706 511 663 433 706 b 64 490 168 706 64 618 b 246 288 64 376 163 319 b 386 193 317 260 386 239 b 299 135 386 157 360 135 b 121 207 240 135 183 160 l 29 79 b 293 -17 99 22 203 -17 z m 181 -332 b 454 -189 354 -326 454 -283 b 258 -72 454 -121 407 -85 l 219 -147 b 308 -196 282 -153 308 -169 b 165 -250 308 -228 274 -244 z "},"ṡ":{"ha":615,"x_min":0,"x_max":0,"o":"m 293 -17 b 576 206 478 -17 576 81 b 390 413 576 332 478 381 b 256 500 319 439 256 456 b 333 554 256 535 281 554 b 479 496 382 554 429 532 l 571 618 b 328 706 511 663 433 706 b 64 490 168 706 64 618 b 246 288 64 376 163 319 b 386 193 317 260 386 239 b 299 135 386 157 360 135 b 121 207 240 135 183 160 l 29 79 b 293 -17 99 22 203 -17 z m 328 790 b 440 897 394 790 440 835 b 328 1004 440 960 394 1004 b 215 897 261 1004 215 960 b 328 790 215 835 261 790 z "},"ṣ":{"ha":615,"x_min":0,"x_max":0,"o":"m 293 -17 b 576 206 478 -17 576 81 b 390 413 576 332 478 381 b 256 500 319 439 256 456 b 333 554 256 535 281 554 b 479 496 382 554 429 532 l 571 618 b 328 706 511 663 433 706 b 64 490 168 706 64 618 b 246 288 64 376 163 319 b 386 193 317 260 386 239 b 299 135 386 157 360 135 b 121 207 240 135 183 160 l 29 79 b 293 -17 99 22 203 -17 z m 322 -314 b 435 -207 389 -314 435 -269 b 322 -100 435 -144 389 -100 b 210 -207 256 -100 210 -144 b 322 -314 210 -269 256 -314 z "},"ß":{"ha":878,"x_min":0,"x_max":0,"o":"m 585 -17 b 840 211 753 -17 840 85 b 596 511 840 425 596 419 b 704 756 596 582 704 624 b 419 988 704 875 610 988 b 90 676 196 988 90 856 l 90 0 l 292 0 l 292 653 b 419 826 292 760 335 826 b 508 732 476 826 508 786 b 410 486 508 631 410 593 b 654 201 410 303 654 307 b 578 135 654 163 625 135 b 446 185 535 135 493 150 l 375 46 b 585 -17 442 7 503 -17 z "},"ť":{"ha":532,"x_min":0,"x_max":0,"o":"m 356 -17 b 508 8 422 -17 472 -3 l 476 157 b 411 143 458 150 433 143 b 322 253 357 143 322 175 l 322 529 l 488 529 l 488 689 l 322 689 l 322 872 l 153 872 l 129 689 l 24 681 l 24 529 l 118 529 l 118 250 b 356 -17 118 90 185 -17 z m 389 761 l 476 761 l 510 974 l 513 1069 l 381 1069 z "},"ţ":{"ha":532,"x_min":0,"x_max":0,"o":"m 193 -332 b 467 -189 367 -326 467 -283 b 361 -85 467 -131 431 -101 l 392 -15 b 508 8 440 -11 479 -1 l 476 157 b 411 143 458 150 433 143 b 322 253 357 143 322 175 l 322 529 l 488 529 l 488 689 l 322 689 l 322 872 l 153 872 l 129 689 l 24 681 l 24 529 l 118 529 l 118 250 b 275 -7 118 118 164 22 l 214 -131 b 321 -189 299 -142 321 -161 b 178 -250 321 -228 286 -244 z "},"ț":{"ha":532,"x_min":0,"x_max":0,"o":"m 356 -17 b 508 8 422 -17 472 -3 l 476 157 b 411 143 458 150 433 143 b 322 253 357 143 322 175 l 322 529 l 488 529 l 488 689 l 322 689 l 322 872 l 153 872 l 129 689 l 24 681 l 24 529 l 118 529 l 118 250 b 356 -17 118 90 185 -17 z m 185 -332 b 458 -189 358 -326 458 -283 b 263 -72 458 -121 411 -85 l 224 -147 b 313 -196 286 -153 313 -169 b 169 -250 313 -228 278 -244 z "},"ṭ":{"ha":532,"x_min":0,"x_max":0,"o":"m 356 -17 b 508 8 422 -17 472 -3 l 476 157 b 411 143 458 150 433 143 b 322 253 357 143 322 175 l 322 529 l 488 529 l 488 689 l 322 689 l 322 872 l 153 872 l 129 689 l 24 681 l 24 529 l 118 529 l 118 250 b 356 -17 118 90 185 -17 z m 328 -314 b 440 -207 394 -314 440 -269 b 328 -100 440 -144 394 -100 b 215 -207 261 -100 215 -144 b 328 -314 215 -269 261 -314 z "},"ṯ":{"ha":532,"x_min":0,"x_max":0,"o":"m 356 -17 b 508 8 422 -17 472 -3 l 476 157 b 411 143 458 150 433 143 b 322 253 357 143 322 175 l 322 529 l 488 529 l 488 689 l 322 689 l 322 872 l 153 872 l 129 689 l 24 681 l 24 529 l 118 529 l 118 250 b 356 -17 118 90 185 -17 z m 121 -261 l 532 -261 l 532 -132 l 121 -132 z "},"ẗ":{"ha":532,"x_min":0,"x_max":0,"o":"m 356 -17 b 508 8 422 -17 472 -3 l 476 157 b 411 143 458 150 433 143 b 322 253 357 143 322 175 l 322 529 l 488 529 l 488 689 l 322 689 l 322 872 l 153 872 l 129 689 l 24 681 l 24 529 l 118 529 l 118 250 b 356 -17 118 90 185 -17 z m 81 985 b 179 1085 139 985 179 1028 b 81 1183 179 1140 139 1183 b -19 1085 22 1183 -19 1140 b 81 985 -19 1028 22 985 z m 383 985 b 483 1085 442 985 483 1028 b 383 1183 483 1140 442 1183 b 285 1085 325 1183 285 1140 b 383 985 285 1028 325 985 z "},"ŧ":{"ha":532,"x_min":0,"x_max":0,"o":"m 24 310 l 118 310 l 118 250 b 356 -17 118 90 185 -17 b 508 8 422 -17 472 -3 l 476 157 b 411 143 458 150 433 143 b 322 253 357 143 322 175 l 322 310 l 488 310 l 488 408 l 322 408 l 322 529 l 488 529 l 488 689 l 322 689 l 322 872 l 153 872 l 129 689 l 24 681 l 24 529 l 118 529 l 118 407 l 24 400 z "},"ù":{"ha":789,"x_min":0,"x_max":0,"o":"m 297 -17 b 514 96 392 -17 456 26 l 518 96 l 533 0 l 700 0 l 700 689 l 496 689 l 496 233 b 374 157 456 179 425 157 b 288 288 314 157 288 189 l 288 689 l 83 689 l 83 261 b 297 -17 83 89 147 -17 z m 382 794 l 482 894 l 268 1147 l 131 1013 z "},"ú":{"ha":789,"x_min":0,"x_max":0,"o":"m 297 -17 b 514 96 392 -17 456 26 l 518 96 l 533 0 l 700 0 l 700 689 l 496 689 l 496 233 b 374 157 456 179 425 157 b 288 288 314 157 288 189 l 288 689 l 83 689 l 83 261 b 297 -17 83 89 147 -17 z m 410 794 l 661 1013 l 524 1147 l 310 894 z "},"û":{"ha":789,"x_min":0,"x_max":0,"o":"m 297 -17 b 514 96 392 -17 456 26 l 518 96 l 533 0 l 700 0 l 700 689 l 496 689 l 496 233 b 374 157 456 179 425 157 b 288 288 314 157 288 189 l 288 689 l 83 689 l 83 261 b 297 -17 83 89 147 -17 z m 142 851 l 219 779 l 393 907 l 399 907 l 572 779 l 650 851 l 500 1033 l 292 1033 z "},"ũ":{"ha":789,"x_min":0,"x_max":0,"o":"m 297 -17 b 514 96 392 -17 456 26 l 518 96 l 533 0 l 700 0 l 700 689 l 496 689 l 496 233 b 374 157 456 179 425 157 b 288 288 314 157 288 189 l 288 689 l 83 689 l 83 261 b 297 -17 83 89 147 -17 z m 488 796 b 660 1007 594 796 656 864 l 532 1014 b 483 938 526 961 511 938 b 304 1026 440 938 392 1026 b 132 815 197 1026 136 958 l 260 808 b 308 885 265 863 281 885 b 488 796 351 885 400 796 z "},"ü":{"ha":789,"x_min":0,"x_max":0,"o":"m 297 -17 b 514 96 392 -17 456 26 l 518 96 l 533 0 l 700 0 l 700 689 l 496 689 l 496 233 b 374 157 456 179 425 157 b 288 288 314 157 288 189 l 288 689 l 83 689 l 83 261 b 297 -17 83 89 147 -17 z m 244 790 b 343 890 303 790 343 833 b 244 989 343 946 303 989 b 144 890 186 989 144 946 b 244 790 144 833 186 790 z m 547 790 b 647 890 606 790 647 833 b 547 989 647 946 606 989 b 449 890 489 989 449 946 b 547 790 449 833 489 790 z "},"ū":{"ha":789,"x_min":0,"x_max":0,"o":"m 297 -17 b 514 96 392 -17 456 26 l 518 96 l 533 0 l 700 0 l 700 689 l 496 689 l 496 233 b 374 157 456 179 425 157 b 288 288 314 157 288 189 l 288 689 l 83 689 l 83 261 b 297 -17 83 89 147 -17 z m 189 822 l 600 822 l 600 951 l 189 951 z "},"ŭ":{"ha":789,"x_min":0,"x_max":0,"o":"m 297 -17 b 514 96 392 -17 456 26 l 518 96 l 533 0 l 700 0 l 700 689 l 496 689 l 496 233 b 374 157 456 179 425 157 b 288 288 314 157 288 189 l 288 689 l 83 689 l 83 261 b 297 -17 83 89 147 -17 z m 396 794 b 631 1013 556 794 626 890 l 514 1032 b 396 922 506 972 469 922 b 278 1032 322 922 286 972 l 161 1013 b 396 794 165 890 238 794 z "},"ů":{"ha":789,"x_min":0,"x_max":0,"o":"m 297 -17 b 514 96 392 -17 456 26 l 518 96 l 533 0 l 700 0 l 700 689 l 496 689 l 496 233 b 374 157 456 179 425 157 b 288 288 314 157 288 189 l 288 689 l 83 689 l 83 261 b 297 -17 83 89 147 -17 z m 396 783 b 579 928 517 783 579 847 b 396 1072 579 1008 517 1072 b 213 928 275 1072 213 1008 b 396 783 213 847 275 783 z m 396 860 b 336 928 363 860 336 888 b 396 996 336 968 363 996 b 456 928 429 996 456 968 b 396 860 456 888 429 860 z "},"ű":{"ha":789,"x_min":0,"x_max":0,"o":"m 297 -17 b 514 96 392 -17 456 26 l 518 96 l 533 0 l 700 0 l 700 689 l 496 689 l 496 233 b 374 157 456 179 425 157 b 288 288 314 157 288 189 l 288 689 l 83 689 l 83 261 b 297 -17 83 89 147 -17 z m 324 785 l 475 1024 l 338 1085 l 217 833 z m 572 785 l 724 1024 l 586 1085 l 465 833 z "},"ǔ":{"ha":789,"x_min":0,"x_max":0,"o":"m 297 -17 b 514 96 392 -17 456 26 l 518 96 l 533 0 l 700 0 l 700 689 l 496 689 l 496 233 b 374 157 456 179 425 157 b 288 288 314 157 288 189 l 288 689 l 83 689 l 83 261 b 297 -17 83 89 147 -17 z m 292 801 l 500 801 l 650 983 l 572 1056 l 399 928 l 393 928 l 219 1056 l 142 983 z "},"ǖ":{"ha":789,"x_min":0,"x_max":0,"o":"m 297 -17 b 514 96 392 -17 456 26 l 518 96 l 533 0 l 700 0 l 700 689 l 496 689 l 496 233 b 374 157 456 179 425 157 b 288 288 314 157 288 189 l 288 689 l 83 689 l 83 261 b 297 -17 83 89 147 -17 z m 244 793 b 331 878 294 793 331 831 b 244 964 331 926 294 964 b 158 878 194 964 158 926 b 244 793 158 831 194 793 z m 190 1050 l 601 1050 l 601 1146 l 190 1146 z m 547 793 b 633 878 597 793 633 831 b 547 964 633 926 597 964 b 461 878 497 964 461 926 b 547 793 461 831 497 793 z "},"ǘ":{"ha":789,"x_min":0,"x_max":0,"o":"m 297 -17 b 514 96 392 -17 456 26 l 518 96 l 533 0 l 700 0 l 700 689 l 496 689 l 496 233 b 374 157 456 179 425 157 b 288 288 314 157 288 189 l 288 689 l 83 689 l 83 261 b 297 -17 83 89 147 -17 z m 406 990 l 544 1153 l 436 1225 l 328 1040 z m 244 793 b 331 878 294 793 331 831 b 244 964 331 926 294 964 b 158 878 194 964 158 926 b 244 793 158 831 194 793 z m 547 793 b 633 878 597 793 633 831 b 547 964 633 926 597 964 b 461 878 497 964 461 926 b 547 793 461 831 497 793 z "},"ǚ":{"ha":789,"x_min":0,"x_max":0,"o":"m 297 -17 b 514 96 392 -17 456 26 l 518 96 l 533 0 l 700 0 l 700 689 l 496 689 l 496 233 b 374 157 456 179 425 157 b 288 288 314 157 288 189 l 288 689 l 83 689 l 83 261 b 297 -17 83 89 147 -17 z m 254 1213 l 188 1151 l 315 1024 l 476 1024 l 604 1151 l 538 1213 l 399 1122 l 393 1122 z m 244 793 b 331 878 294 793 331 831 b 244 964 331 926 294 964 b 158 878 194 964 158 926 b 244 793 158 831 194 793 z m 547 793 b 633 878 597 793 633 831 b 547 964 633 926 597 964 b 461 878 497 964 461 926 b 547 793 461 831 497 793 z "},"ǜ":{"ha":789,"x_min":0,"x_max":0,"o":"m 297 -17 b 514 96 392 -17 456 26 l 518 96 l 533 0 l 700 0 l 700 689 l 496 689 l 496 233 b 374 157 456 179 425 157 b 288 288 314 157 288 189 l 288 689 l 83 689 l 83 261 b 297 -17 83 89 147 -17 z m 386 990 l 464 1040 l 356 1225 l 247 1153 z m 244 793 b 331 878 294 793 331 831 b 244 964 331 926 294 964 b 158 878 194 964 158 926 b 244 793 158 831 194 793 z m 547 793 b 633 878 597 793 633 831 b 547 964 633 926 597 964 b 461 878 497 964 461 926 b 547 793 461 831 497 793 z "},"ụ":{"ha":789,"x_min":0,"x_max":0,"o":"m 297 -17 b 514 96 392 -17 456 26 l 518 96 l 533 0 l 700 0 l 700 689 l 496 689 l 496 233 b 374 157 456 179 425 157 b 288 288 314 157 288 189 l 288 689 l 83 689 l 83 261 b 297 -17 83 89 147 -17 z m 421 -314 b 533 -207 488 -314 533 -269 b 421 -100 533 -144 488 -100 b 308 -207 354 -100 308 -144 b 421 -314 308 -269 354 -314 z "},"ủ":{"ha":789,"x_min":0,"x_max":0,"o":"m 297 -17 b 514 96 392 -17 456 26 l 518 96 l 533 0 l 700 0 l 700 689 l 496 689 l 496 233 b 374 157 456 179 425 157 b 288 288 314 157 288 189 l 288 689 l 83 689 l 83 261 b 297 -17 83 89 147 -17 z m 336 789 b 531 933 440 797 531 839 b 283 1101 531 1031 465 1097 l 271 976 b 382 918 351 971 382 951 b 319 869 382 889 354 876 z "},"ų":{"ha":789,"x_min":0,"x_max":0,"o":"m 588 -292 b 728 -246 631 -292 693 -274 l 686 -154 b 636 -171 674 -162 654 -171 b 578 -118 607 -171 578 -154 b 700 0 578 -76 608 -28 l 700 689 l 496 689 l 496 233 b 374 157 456 179 425 157 b 288 288 314 157 288 189 l 288 689 l 83 689 l 83 261 b 297 -17 83 89 147 -17 b 514 96 392 -17 456 26 l 518 96 l 536 -3 b 440 -165 499 -28 440 -83 b 588 -292 440 -249 506 -292 z "},"ư":{"ha":789,"x_min":0,"x_max":0,"o":"m 297 -17 b 514 96 392 -17 456 26 l 518 96 l 533 0 l 700 0 l 700 626 b 843 831 778 651 843 718 b 801 961 843 882 824 933 l 651 896 b 672 817 661 876 672 847 b 560 689 672 710 613 692 l 496 689 l 496 233 b 374 157 456 179 425 157 b 288 288 314 157 288 189 l 288 689 l 83 689 l 83 261 b 297 -17 83 89 147 -17 z "},"ứ":{"ha":789,"x_min":0,"x_max":0,"o":"m 297 -17 b 514 96 392 -17 456 26 l 518 96 l 533 0 l 700 0 l 700 626 b 843 831 778 651 843 718 b 801 961 843 882 824 933 l 651 896 b 672 817 661 876 672 847 b 560 689 672 710 613 692 l 496 689 l 496 233 b 374 157 456 179 425 157 b 288 288 314 157 288 189 l 288 689 l 83 689 l 83 261 b 297 -17 83 89 147 -17 z m 394 794 l 646 1013 l 508 1147 l 294 894 z "},"ừ":{"ha":789,"x_min":0,"x_max":0,"o":"m 297 -17 b 514 96 392 -17 456 26 l 518 96 l 533 0 l 700 0 l 700 626 b 843 831 778 651 843 718 b 801 961 843 882 824 933 l 651 896 b 672 817 661 876 672 847 b 560 689 672 710 613 692 l 496 689 l 496 233 b 374 157 456 179 425 157 b 288 288 314 157 288 189 l 288 689 l 83 689 l 83 261 b 297 -17 83 89 147 -17 z m 367 794 l 467 894 l 253 1147 l 115 1013 z "},"ử":{"ha":789,"x_min":0,"x_max":0,"o":"m 297 -17 b 514 96 392 -17 456 26 l 518 96 l 533 0 l 700 0 l 700 626 b 843 831 778 651 843 718 b 801 961 843 882 824 933 l 651 896 b 672 817 661 876 672 847 b 560 689 672 710 613 692 l 496 689 l 496 233 b 374 157 456 179 425 157 b 288 288 314 157 288 189 l 288 689 l 83 689 l 83 261 b 297 -17 83 89 147 -17 z m 321 789 b 515 933 425 797 515 839 b 268 1101 515 1031 450 1097 l 256 976 b 367 918 336 971 367 951 b 304 869 367 889 339 876 z "},"ữ":{"ha":789,"x_min":0,"x_max":0,"o":"m 297 -17 b 514 96 392 -17 456 26 l 518 96 l 533 0 l 700 0 l 700 626 b 843 831 778 651 843 718 b 801 961 843 882 824 933 l 651 896 b 672 817 661 876 672 847 b 560 689 672 710 613 692 l 496 689 l 496 233 b 374 157 456 179 425 157 b 288 288 314 157 288 189 l 288 689 l 83 689 l 83 261 b 297 -17 83 89 147 -17 z m 472 796 b 644 1007 579 796 640 864 l 517 1014 b 468 938 511 961 496 938 b 289 1026 425 938 376 1026 b 117 815 182 1026 121 958 l 244 808 b 293 885 250 863 265 885 b 472 796 336 885 385 796 z "},"ự":{"ha":789,"x_min":0,"x_max":0,"o":"m 297 -17 b 514 96 392 -17 456 26 l 518 96 l 533 0 l 700 0 l 700 626 b 843 831 778 651 843 718 b 801 961 843 882 824 933 l 651 896 b 672 817 661 876 672 847 b 560 689 672 710 613 692 l 496 689 l 496 233 b 374 157 456 179 425 157 b 288 288 314 157 288 189 l 288 689 l 83 689 l 83 261 b 297 -17 83 89 147 -17 z m 406 -314 b 518 -207 472 -314 518 -269 b 406 -100 518 -144 472 -100 b 293 -207 339 -100 293 -144 b 406 -314 293 -269 339 -314 z "},"ẁ":{"ha":1078,"x_min":0,"x_max":0,"o":"m 206 0 l 439 0 l 500 275 b 535 476 513 339 522 403 l 540 476 b 578 275 553 403 564 339 l 640 0 l 879 0 l 1044 689 l 856 689 l 790 369 b 758 165 778 301 771 235 l 753 165 b 710 369 739 235 726 301 l 632 689 l 456 689 l 379 369 b 339 165 363 304 351 235 l 333 165 b 303 369 322 235 314 301 l 236 689 l 33 689 z m 526 794 l 626 894 l 413 1147 l 275 1013 z "},"ẃ":{"ha":1078,"x_min":0,"x_max":0,"o":"m 206 0 l 439 0 l 500 275 b 535 476 513 339 522 403 l 540 476 b 578 275 553 403 564 339 l 640 0 l 879 0 l 1044 689 l 856 689 l 790 369 b 758 165 778 301 771 235 l 753 165 b 710 369 739 235 726 301 l 632 689 l 456 689 l 379 369 b 339 165 363 304 351 235 l 333 165 b 303 369 322 235 314 301 l 236 689 l 33 689 z m 554 794 l 806 1013 l 668 1147 l 454 894 z "},"ŵ":{"ha":1078,"x_min":0,"x_max":0,"o":"m 206 0 l 439 0 l 500 275 b 535 476 513 339 522 403 l 540 476 b 578 275 553 403 564 339 l 640 0 l 879 0 l 1044 689 l 856 689 l 790 369 b 758 165 778 301 771 235 l 753 165 b 710 369 739 235 726 301 l 632 689 l 456 689 l 379 369 b 339 165 363 304 351 235 l 333 165 b 303 369 322 235 314 301 l 236 689 l 33 689 z m 286 851 l 364 779 l 538 907 l 543 907 l 717 779 l 794 851 l 644 1033 l 436 1033 z "},"ẅ":{"ha":1078,"x_min":0,"x_max":0,"o":"m 206 0 l 439 0 l 500 275 b 535 476 513 339 522 403 l 540 476 b 578 275 553 403 564 339 l 640 0 l 879 0 l 1044 689 l 856 689 l 790 369 b 758 165 778 301 771 235 l 753 165 b 710 369 739 235 726 301 l 632 689 l 456 689 l 379 369 b 339 165 363 304 351 235 l 333 165 b 303 369 322 235 314 301 l 236 689 l 33 689 z m 389 790 b 488 890 447 790 488 833 b 389 989 488 946 447 989 b 289 890 331 989 289 946 b 389 790 289 833 331 790 z m 692 790 b 792 890 750 790 792 833 b 692 989 792 946 750 989 b 593 890 633 989 593 946 b 692 790 593 833 633 790 z "},"ỳ":{"ha":724,"x_min":0,"x_max":0,"o":"m 167 -269 b 468 -7 329 -269 403 -181 l 707 689 l 511 689 l 428 393 b 381 197 411 328 396 263 l 375 197 b 321 393 357 265 340 331 l 222 689 l 17 689 l 282 18 l 272 -18 b 151 -108 254 -72 219 -108 b 106 -100 136 -108 118 -103 l 69 -256 b 167 -269 97 -264 125 -269 z m 357 794 l 457 894 l 243 1147 l 106 1013 z "},"ý":{"ha":724,"x_min":0,"x_max":0,"o":"m 167 -269 b 468 -7 329 -269 403 -181 l 707 689 l 511 689 l 428 393 b 381 197 411 328 396 263 l 375 197 b 321 393 357 265 340 331 l 222 689 l 17 689 l 282 18 l 272 -18 b 151 -108 254 -72 219 -108 b 106 -100 136 -108 118 -103 l 69 -256 b 167 -269 97 -264 125 -269 z m 385 794 l 636 1013 l 499 1147 l 285 894 z "},"ŷ":{"ha":724,"x_min":0,"x_max":0,"o":"m 167 -269 b 468 -7 329 -269 403 -181 l 707 689 l 511 689 l 428 393 b 381 197 411 328 396 263 l 375 197 b 321 393 357 265 340 331 l 222 689 l 17 689 l 282 18 l 272 -18 b 151 -108 254 -72 219 -108 b 106 -100 136 -108 118 -103 l 69 -256 b 167 -269 97 -264 125 -269 z m 117 851 l 194 779 l 368 907 l 374 907 l 547 779 l 625 851 l 475 1033 l 267 1033 z "},"ÿ":{"ha":724,"x_min":0,"x_max":0,"o":"m 167 -269 b 468 -7 329 -269 403 -181 l 707 689 l 511 689 l 428 393 b 381 197 411 328 396 263 l 375 197 b 321 393 357 265 340 331 l 222 689 l 17 689 l 282 18 l 272 -18 b 151 -108 254 -72 219 -108 b 106 -100 136 -108 118 -103 l 69 -256 b 167 -269 97 -264 125 -269 z m 219 790 b 318 890 278 790 318 833 b 219 989 318 946 278 989 b 119 890 161 989 119 946 b 219 790 119 833 161 790 z m 522 790 b 622 890 581 790 622 833 b 522 989 622 946 581 989 b 424 890 464 989 424 946 b 522 790 424 833 464 790 z "},"ẏ":{"ha":724,"x_min":0,"x_max":0,"o":"m 167 -269 b 468 -7 329 -269 403 -181 l 707 689 l 511 689 l 428 393 b 381 197 411 328 396 263 l 375 197 b 321 393 357 265 340 331 l 222 689 l 17 689 l 282 18 l 272 -18 b 151 -108 254 -72 219 -108 b 106 -100 136 -108 118 -103 l 69 -256 b 167 -269 97 -264 125 -269 z m 371 790 b 483 897 438 790 483 835 b 371 1004 483 960 438 1004 b 258 897 304 1004 258 960 b 371 790 258 835 304 790 z "},"ỵ":{"ha":724,"x_min":0,"x_max":0,"o":"m 167 -269 b 468 -7 329 -269 403 -181 l 707 689 l 511 689 l 428 393 b 381 197 411 328 396 263 l 375 197 b 321 393 357 265 340 331 l 222 689 l 17 689 l 282 18 l 272 -18 b 151 -108 254 -72 219 -108 b 106 -100 136 -108 118 -103 l 69 -256 b 167 -269 97 -264 125 -269 z m 621 -303 b 733 -196 688 -303 733 -258 b 621 -89 733 -133 688 -89 b 508 -196 554 -89 508 -133 b 621 -303 508 -258 554 -303 z "},"ỷ":{"ha":724,"x_min":0,"x_max":0,"o":"m 167 -269 b 468 -7 329 -269 403 -181 l 707 689 l 511 689 l 428 393 b 381 197 411 328 396 263 l 375 197 b 321 393 357 265 340 331 l 222 689 l 17 689 l 282 18 l 272 -18 b 151 -108 254 -72 219 -108 b 106 -100 136 -108 118 -103 l 69 -256 b 167 -269 97 -264 125 -269 z m 311 789 b 506 933 415 797 506 839 b 258 1101 506 1031 440 1097 l 246 976 b 357 918 326 971 357 951 b 294 869 357 889 329 876 z "},"ỹ":{"ha":724,"x_min":0,"x_max":0,"o":"m 167 -269 b 468 -7 329 -269 403 -181 l 707 689 l 511 689 l 428 393 b 381 197 411 328 396 263 l 375 197 b 321 393 357 265 340 331 l 222 689 l 17 689 l 282 18 l 272 -18 b 151 -108 254 -72 219 -108 b 106 -100 136 -108 118 -103 l 69 -256 b 167 -269 97 -264 125 -269 z m 463 796 b 635 1007 569 796 631 864 l 507 1014 b 458 938 501 961 486 938 b 279 1026 415 938 367 1026 b 107 815 172 1026 111 958 l 235 808 b 283 885 240 863 256 885 b 463 796 326 885 375 796 z "},"ź":{"ha":639,"x_min":0,"x_max":0,"o":"m 53 0 l 606 0 l 606 160 l 307 160 l 596 581 l 596 689 l 85 689 l 85 529 l 342 529 l 53 110 z m 354 794 l 606 1013 l 468 1147 l 254 894 z "},"ž":{"ha":639,"x_min":0,"x_max":0,"o":"m 53 0 l 606 0 l 606 160 l 307 160 l 596 581 l 596 689 l 85 689 l 85 529 l 342 529 l 53 110 z m 236 801 l 444 801 l 594 983 l 517 1056 l 343 928 l 338 928 l 164 1056 l 86 983 z "},"ż":{"ha":639,"x_min":0,"x_max":0,"o":"m 53 0 l 606 0 l 606 160 l 307 160 l 596 581 l 596 689 l 85 689 l 85 529 l 342 529 l 53 110 z m 340 790 b 453 897 407 790 453 835 b 340 1004 453 960 407 1004 b 228 897 274 1004 228 960 b 340 790 228 835 274 790 z "},"ẓ":{"ha":639,"x_min":0,"x_max":0,"o":"m 53 0 l 606 0 l 606 160 l 307 160 l 596 581 l 596 689 l 85 689 l 85 529 l 342 529 l 53 110 z m 340 -314 b 453 -207 407 -314 453 -269 b 340 -100 453 -144 407 -100 b 228 -207 274 -100 228 -144 b 340 -314 228 -269 274 -314 z "},"ẕ":{"ha":639,"x_min":0,"x_max":0,"o":"m 53 0 l 606 0 l 606 160 l 307 160 l 596 581 l 596 689 l 85 689 l 85 529 l 342 529 l 53 110 z m 135 -261 l 546 -261 l 546 -132 l 135 -132 z "},"ð":{"ha":778,"x_min":0,"x_max":0,"o":"m 379 -17 b 708 369 583 -17 708 146 b 521 835 708 576 631 724 l 688 919 l 635 1010 l 436 910 b 244 1028 375 956 310 994 l 156 904 b 281 831 201 881 243 857 l 119 750 l 172 660 l 369 758 b 488 574 424 707 463 647 b 340 632 449 615 394 632 b 58 317 196 632 58 515 b 379 -17 58 113 207 -17 z m 386 149 b 244 317 310 149 244 207 b 382 481 244 428 301 481 b 517 421 429 481 475 467 b 518 358 518 400 518 381 b 386 149 518 215 464 149 z "},"þ":{"ha":796,"x_min":0,"x_max":0,"o":"m 90 -256 l 294 -256 l 294 -54 l 289 49 b 451 -17 336 7 385 -17 b 742 356 600 -17 742 119 b 461 706 742 568 635 706 b 289 638 399 706 338 679 l 294 735 l 294 974 l 90 974 z m 404 150 b 294 194 369 150 331 161 l 294 476 b 413 539 335 519 371 539 b 532 353 494 539 532 476 b 404 150 532 211 475 150 z "},"ŋ":{"ha":794,"x_min":0,"x_max":0,"o":"m 465 -260 b 711 18 653 -260 711 -133 l 711 428 b 497 706 711 600 647 706 b 276 601 404 706 335 657 l 271 601 l 257 689 l 90 689 l 90 0 l 294 0 l 294 465 b 422 532 339 508 371 532 b 507 401 481 532 507 501 l 507 13 b 433 -99 507 -65 489 -99 b 381 -90 415 -99 399 -96 l 343 -240 b 465 -260 372 -251 408 -260 z "},"ȷ":{"ha":386,"x_min":0,"x_max":0,"o":"m 50 -272 b 296 4 238 -272 296 -146 l 296 689 l 92 689 l 92 -1 b 19 -112 92 -78 74 -112 b -35 -103 0 -112 -17 -108 l -71 -253 b 50 -272 -43 -264 -7 -272 z "},"ĳ":{"ha":769,"x_min":0,"x_max":0,"o":"m 90 0 l 294 0 l 294 689 l 90 689 z m 192 790 b 310 897 261 790 310 835 b 192 1003 310 960 261 1003 b 74 897 124 1003 74 960 b 192 790 74 835 124 790 z m 433 -272 b 679 4 621 -272 679 -146 l 679 689 l 475 689 l 475 -1 b 403 -112 475 -78 457 -112 b 349 -103 383 -112 367 -108 l 313 -253 b 433 -272 340 -264 376 -272 z m 578 790 b 696 897 646 790 696 835 b 578 1003 696 960 646 1003 b 460 897 510 1003 460 960 b 578 790 460 835 510 790 z "},"ɐ":{"ha":742,"x_min":0,"x_max":0,"o":"m 385 -17 b 665 74 486 -17 582 21 l 593 208 b 415 146 526 171 474 146 b 285 243 328 146 290 185 b 674 517 558 274 674 368 b 486 706 674 625 604 706 b 268 604 394 706 322 665 l 263 604 l 247 689 l 81 689 l 81 303 b 385 -17 81 90 189 -17 z m 285 368 l 285 475 b 408 547 324 521 363 547 b 478 485 449 547 478 526 b 285 368 478 431 431 389 z "},"ɒ":{"ha":796,"x_min":0,"x_max":0,"o":"m 451 -17 b 742 356 600 -17 742 119 b 472 706 742 568 639 706 b 276 621 400 706 331 669 l 271 621 l 257 689 l 90 689 l 90 0 l 250 0 l 267 68 l 272 68 b 451 -17 328 10 392 -17 z m 404 150 b 294 194 369 150 331 161 l 294 476 b 413 539 335 519 371 539 b 532 353 494 539 532 476 b 404 150 532 211 475 150 z "},"ɓ":{"ha":796,"x_min":0,"x_max":0,"o":"m 451 -17 b 742 344 600 -17 742 114 b 471 683 742 550 638 683 b 289 607 407 683 342 653 l 292 700 b 403 829 299 792 333 829 b 474 815 425 829 451 824 l 511 965 b 374 990 481 976 431 990 b 90 694 167 990 90 854 l 90 0 l 250 0 l 267 72 l 272 72 b 451 -17 326 14 390 -17 z m 404 150 b 294 194 369 150 331 161 l 294 454 b 413 515 333 497 371 515 b 532 342 494 515 532 457 b 404 150 532 207 475 150 z "},"ɔ":{"ha":649,"x_min":0,"x_max":0,"o":"m 258 -17 b 600 344 449 -17 600 115 b 267 706 600 576 446 706 b 39 632 169 706 92 674 l 136 500 b 243 540 169 529 197 540 b 390 344 328 540 390 464 b 236 149 390 225 324 149 b 111 199 190 149 147 171 l 32 65 b 258 -17 99 6 183 -17 z "},"ɕ":{"ha":649,"x_min":0,"x_max":0,"o":"m 408 139 b 321 169 376 139 346 150 b 432 243 358 217 397 243 b 485 196 468 243 485 218 b 408 139 485 165 456 139 z m 190 -101 b 235 19 204 -57 218 -17 b 401 -17 283 -4 340 -17 b 636 196 549 -17 636 78 b 449 378 636 308 565 378 b 251 299 383 378 315 351 b 247 344 249 313 247 328 b 421 550 247 471 315 550 b 521 510 453 550 488 538 l 610 632 b 408 706 558 675 493 706 b 50 344 218 706 50 574 b 110 129 50 258 72 186 b 32 -32 81 82 56 28 z "},"ɖ":{"ha":796,"x_min":0,"x_max":0,"o":"m 733 -260 b 842 -240 785 -260 817 -251 l 806 -90 b 765 -99 792 -96 779 -99 b 706 -1 721 -99 706 -69 l 706 990 l 501 990 l 501 739 l 510 633 b 340 706 463 678 417 706 b 54 344 194 706 54 569 b 336 -17 54 119 165 -17 b 510 60 400 -17 461 15 l 508 -50 b 733 -260 508 -161 579 -260 z m 389 150 b 264 347 310 150 264 211 b 388 539 264 478 322 539 b 501 494 425 539 465 528 l 501 213 b 389 150 468 167 433 150 z "},"ɗ":{"ha":796,"x_min":0,"x_max":0,"o":"m 336 -17 b 519 68 403 -17 471 19 l 525 68 l 539 0 l 706 0 l 706 731 b 779 831 706 799 726 831 b 807 826 789 831 797 829 l 843 976 b 747 990 819 985 792 990 b 508 747 572 990 508 881 l 510 633 b 340 706 463 678 417 706 b 54 344 194 706 54 569 b 336 -17 54 119 165 -17 z m 389 150 b 264 347 310 150 264 211 b 388 539 264 478 322 539 b 501 494 425 539 465 528 l 501 213 b 389 150 468 167 433 150 z "},"ɘ":{"ha":719,"x_min":0,"x_max":0,"o":"m 326 -17 b 669 344 524 -17 669 117 b 358 706 669 568 525 706 b 50 375 161 706 50 563 b 58 285 50 339 56 301 l 471 285 b 299 139 453 185 392 139 b 143 185 246 139 193 154 l 76 61 b 326 -17 147 13 244 -17 z m 225 419 b 351 550 225 496 269 550 b 474 419 418 550 463 507 z "},"ɑ":{"ha":796,"x_min":0,"x_max":0,"o":"m 336 -17 b 519 68 403 -17 471 19 l 525 68 l 539 0 l 706 0 l 706 689 l 546 689 l 529 621 l 524 621 b 344 706 469 679 414 706 b 54 344 200 706 54 569 b 336 -17 54 119 165 -17 z m 389 150 b 264 347 310 150 264 211 b 388 539 264 478 322 539 b 501 494 425 539 465 528 l 501 213 b 389 150 468 167 433 150 z "},"ʙ":{"ha":733,"x_min":0,"x_max":0,"o":"m 90 0 l 400 0 b 686 199 557 0 686 57 b 544 360 686 292 631 339 l 544 365 b 660 507 626 388 660 449 b 383 689 660 644 538 689 l 90 689 z m 289 419 l 289 554 l 371 554 b 465 486 439 554 465 528 b 369 419 465 444 438 419 z m 289 135 l 289 285 l 386 285 b 489 213 458 285 489 253 b 388 135 489 167 461 135 z "},"ə":{"ha":719,"x_min":0,"x_max":0,"o":"m 346 -17 b 669 344 518 -17 669 121 b 347 706 669 569 529 706 b 94 636 261 706 169 686 l 163 504 b 313 550 210 533 260 550 b 471 407 399 550 456 504 l 58 407 b 50 317 56 390 50 353 b 346 -17 50 126 150 -17 z m 342 139 b 225 272 260 139 225 193 l 474 272 b 342 139 460 179 408 139 z "},"ɚ":{"ha":982,"x_min":0,"x_max":0,"o":"m 361 -17 b 669 332 544 -17 669 139 b 663 417 669 361 667 390 l 736 449 b 904 314 767 339 839 314 b 1010 349 946 314 982 331 l 968 446 b 913 431 953 438 935 431 b 849 564 869 431 851 460 l 751 600 l 622 544 b 339 706 568 644 472 706 b 94 636 261 706 171 686 l 163 504 b 311 550 211 533 258 550 b 451 472 378 550 425 526 l 50 301 b 361 -17 60 135 151 -17 z m 354 136 b 232 231 293 136 246 171 l 481 338 b 481 314 481 331 481 322 b 354 136 481 210 428 136 z "},"ɛ":{"ha":642,"x_min":0,"x_max":0,"o":"m 374 -17 b 615 53 460 -17 532 -1 l 535 182 b 393 139 485 151 435 139 b 264 217 318 139 264 168 b 369 285 264 265 297 285 l 486 285 l 486 419 l 392 419 b 296 481 328 419 296 440 b 388 550 296 522 331 550 b 522 511 438 550 476 536 l 597 643 b 376 706 529 685 457 706 b 96 508 228 706 96 646 b 208 367 96 453 131 390 l 208 361 b 64 196 124 340 64 289 b 374 -17 64 57 217 -17 z "},"ɜ":{"ha":661,"x_min":0,"x_max":0,"o":"m 300 -17 b 597 196 451 -17 597 57 b 453 361 597 289 538 340 l 453 367 b 565 508 531 390 565 453 b 299 706 565 646 442 706 b 64 643 213 706 136 685 l 139 511 b 275 550 185 536 225 550 b 365 481 333 550 365 522 b 269 419 365 440 335 419 l 176 419 l 176 285 l 292 285 b 397 217 364 285 397 265 b 268 139 397 168 344 139 b 126 182 226 139 176 151 l 46 53 b 300 -17 135 -1 210 -17 z "},"ɞ":{"ha":786,"x_min":0,"x_max":0,"o":"m 375 -17 b 739 344 575 -17 739 103 b 375 706 739 586 565 706 b 96 508 225 706 96 646 b 208 367 96 453 131 390 l 208 361 b 64 196 124 340 64 289 b 375 -17 64 57 215 -17 z m 375 139 b 264 217 310 139 264 168 b 358 285 264 265 294 285 l 424 285 l 424 419 l 381 419 b 296 481 324 419 296 440 b 381 550 296 522 332 550 b 529 344 476 550 529 488 b 375 139 529 200 475 139 z "},"ɟ":{"ha":446,"x_min":0,"x_max":0,"o":"m 78 -272 b 324 4 265 -272 324 -146 l 324 310 l 422 310 l 422 408 l 324 408 l 324 689 l 119 689 l 119 408 l 17 400 l 17 310 l 119 310 l 119 -1 b 47 -112 119 -78 101 -112 b -7 -103 28 -112 11 -108 l -43 -253 b 78 -272 -15 -264 21 -272 z "},"ɠ":{"ha":810,"x_min":0,"x_max":0,"o":"m 363 -269 b 713 7 586 -269 713 -172 l 713 647 b 786 747 713 713 733 747 b 814 742 796 747 806 746 l 850 893 b 754 907 826 901 799 907 b 514 681 576 907 514 792 l 514 633 b 351 706 467 678 421 706 b 61 357 207 706 61 568 b 343 18 61 158 172 18 b 514 88 407 18 468 46 l 508 1 b 363 -110 501 -64 464 -110 b 172 -58 307 -110 238 -94 l 106 -193 b 363 -269 185 -244 288 -269 z m 396 182 b 268 360 317 182 268 246 b 394 539 268 475 326 539 b 508 494 432 539 472 528 l 508 247 b 396 182 472 199 440 182 z "},"ɡ":{"ha":810,"x_min":0,"x_max":0,"o":"m 363 -269 b 713 7 586 -269 713 -172 l 713 689 l 549 689 l 533 625 l 528 625 b 351 706 476 682 421 706 b 61 357 207 706 61 568 b 343 18 61 158 172 18 b 514 88 407 18 468 46 l 508 1 b 363 -110 501 -64 464 -110 b 172 -58 307 -110 238 -94 l 106 -193 b 363 -269 185 -244 288 -269 z m 396 182 b 268 360 317 182 268 246 b 394 539 268 475 326 539 b 508 494 432 539 472 528 l 508 247 b 396 182 472 199 440 182 z "},"ɢ":{"ha":718,"x_min":0,"x_max":0,"o":"m 400 -17 b 660 74 507 -17 603 22 l 660 413 l 369 413 l 369 276 l 486 276 l 486 158 b 415 139 468 146 443 139 b 257 342 321 139 257 213 b 418 550 257 486 336 550 b 551 500 481 550 510 529 l 643 622 b 404 706 583 669 519 706 b 50 342 224 706 50 575 b 400 -17 50 97 218 -17 z "},"ɣ":{"ha":726,"x_min":0,"x_max":0,"o":"m 368 -293 b 581 -92 497 -293 581 -212 b 500 122 581 -22 551 32 l 710 689 l 514 689 l 424 400 b 371 236 406 342 388 299 l 365 236 b 311 400 347 299 329 342 l 222 689 l 17 689 l 235 121 b 154 -92 183 31 154 -22 b 368 -293 154 -212 239 -293 z m 368 -165 b 321 -106 339 -165 321 -142 b 363 35 321 -68 333 -25 l 369 35 b 415 -106 401 -25 415 -67 b 368 -165 415 -142 396 -165 z "},"ɤ":{"ha":790,"x_min":0,"x_max":0,"o":"m 396 -17 b 669 236 561 -17 669 72 b 533 483 669 317 615 407 b 646 540 567 524 607 540 b 711 521 669 540 694 533 l 768 669 b 618 706 738 693 674 706 b 396 596 543 706 461 672 b 172 706 329 672 247 706 b 22 669 118 706 54 693 l 81 521 b 144 540 96 533 119 540 b 257 483 183 540 224 524 b 122 236 175 407 122 317 b 396 -17 122 72 229 -17 z m 396 149 b 313 242 342 149 313 186 b 396 392 313 289 346 346 b 478 242 444 346 478 289 b 396 149 478 186 449 149 z "},"ɥ":{"ha":794,"x_min":0,"x_max":0,"o":"m 500 -256 l 704 -256 l 704 689 l 500 689 l 500 233 b 374 157 460 178 425 157 b 288 288 314 157 288 189 l 288 689 l 83 689 l 83 261 b 297 -17 83 89 147 -17 b 510 85 392 -17 458 29 l 500 -46 z "},"ɦ":{"ha":793,"x_min":0,"x_max":0,"o":"m 90 0 l 294 0 l 294 442 b 422 508 339 485 371 508 b 507 379 481 508 507 478 l 507 0 l 711 0 l 711 406 b 497 683 711 578 647 683 b 285 588 404 683 336 635 l 292 700 b 403 829 299 792 333 829 b 474 815 425 829 451 824 l 511 965 b 374 990 481 976 431 990 b 90 694 167 990 90 854 z "},"ɧ":{"ha":793,"x_min":0,"x_max":0,"o":"m 465 -260 b 711 18 653 -260 711 -133 l 711 406 b 497 683 711 578 647 683 b 285 588 404 683 336 635 l 292 700 b 403 829 299 792 333 829 b 474 815 425 829 451 824 l 511 965 b 374 990 481 976 431 990 b 90 694 167 990 90 854 l 90 0 l 294 0 l 294 442 b 422 508 339 485 371 508 b 507 379 481 508 507 478 l 507 13 b 433 -99 507 -65 489 -99 b 381 -90 415 -99 399 -96 l 343 -240 b 465 -260 372 -251 408 -260 z "},"ʜ":{"ha":808,"x_min":0,"x_max":0,"o":"m 93 0 l 297 0 l 297 263 l 518 263 l 518 0 l 722 0 l 722 689 l 518 689 l 518 440 l 297 440 l 297 689 l 93 689 z "},"ɨ":{"ha":446,"x_min":0,"x_max":0,"o":"m 17 310 l 121 310 l 121 0 l 325 0 l 325 310 l 422 310 l 422 408 l 325 408 l 325 689 l 121 689 l 121 408 l 17 400 z m 222 790 b 340 897 292 790 340 835 b 222 1003 340 960 292 1003 b 104 897 154 1003 104 960 b 222 790 104 835 154 790 z "},"ɪ":{"ha":549,"x_min":0,"x_max":0,"o":"m 72 0 l 476 0 l 476 160 l 376 160 l 376 529 l 476 529 l 476 689 l 72 689 l 72 529 l 172 529 l 172 160 l 72 160 z "},"ʝ":{"ha":500,"x_min":0,"x_max":0,"o":"m 422 -357 l 579 -286 b 408 -26 532 -178 472 -92 b 411 17 410 -12 411 3 l 411 689 l 207 689 l 207 107 b 139 118 183 114 160 118 b -71 -67 7 118 -71 44 b 143 -272 -71 -182 10 -272 b 338 -193 228 -272 293 -242 b 422 -357 368 -240 397 -294 z m 138 -117 b 82 -62 100 -117 82 -90 b 136 -17 82 -36 103 -17 b 206 -44 156 -17 179 -26 b 138 -117 199 -89 178 -117 z m 308 790 b 428 897 378 790 428 835 b 308 1003 428 960 378 1003 b 190 897 240 1003 190 960 b 308 790 190 835 240 790 z "},"ɬ":{"ha":524,"x_min":0,"x_max":0,"o":"m 190 406 l 201 406 l 201 214 b 389 -17 201 75 249 -17 b 492 0 435 -17 469 -10 l 467 151 b 442 149 456 149 450 149 b 406 206 425 149 406 163 l 406 406 l 503 406 l 503 504 l 406 504 l 406 974 l 201 974 l 201 665 b 128 686 182 678 158 686 b -14 550 44 686 -14 628 b 190 406 -14 469 47 406 z m 171 504 b 94 550 118 504 94 525 b 136 590 94 574 107 590 b 201 507 188 590 201 536 l 201 504 z "},"ɭ":{"ha":397,"x_min":0,"x_max":0,"o":"m 322 -260 b 429 -240 372 -260 404 -251 l 393 -90 b 354 -99 379 -96 368 -99 b 294 -1 310 -99 294 -69 l 294 974 l 90 974 l 90 6 b 322 -260 90 -139 144 -260 z "},"ɮ":{"ha":889,"x_min":0,"x_max":0,"o":"m 542 -272 b 858 44 713 -272 858 -158 b 619 308 858 189 772 297 l 826 581 l 826 689 l 294 689 l 294 974 l 90 974 l 90 0 l 294 0 l 294 529 l 583 529 l 372 251 l 439 153 b 521 169 471 165 483 169 b 654 40 601 169 654 122 b 518 -107 654 -53 597 -107 b 347 -33 449 -107 393 -74 l 256 -160 b 542 -272 321 -221 410 -272 z "},"ʟ":{"ha":600,"x_min":0,"x_max":0,"o":"m 90 0 l 564 0 l 564 160 l 294 160 l 294 689 l 90 689 z "},"ɯ":{"ha":1190,"x_min":0,"x_max":0,"o":"m 303 -17 b 519 100 394 -17 460 36 b 710 -17 554 25 613 -17 b 919 89 800 -17 863 32 l 924 89 l 939 0 l 1106 0 l 1106 689 l 901 689 l 901 224 b 783 157 857 179 818 157 b 699 288 726 157 699 189 l 699 689 l 494 689 l 494 224 b 378 157 451 179 411 157 b 292 288 319 157 292 189 l 292 689 l 88 689 l 88 261 b 303 -17 88 89 154 -17 z "},"ɰ":{"ha":1190,"x_min":0,"x_max":0,"o":"m 901 -256 l 1106 -256 l 1106 689 l 901 689 l 901 224 b 783 157 857 179 818 157 b 699 288 726 157 699 189 l 699 689 l 494 689 l 494 224 b 378 157 451 179 411 157 b 292 288 319 157 292 189 l 292 689 l 88 689 l 88 261 b 303 -17 88 89 154 -17 b 519 100 394 -17 460 36 b 710 -17 554 25 613 -17 b 911 83 792 -17 849 19 l 901 -46 z "},"ɱ":{"ha":1190,"x_min":0,"x_max":0,"o":"m 872 -260 b 1107 18 1051 -260 1107 -133 l 1107 428 b 892 706 1107 600 1040 706 b 675 590 800 706 736 653 b 485 706 640 664 582 706 b 276 600 394 706 333 657 l 271 600 l 257 689 l 90 689 l 90 0 l 294 0 l 294 465 b 411 532 338 510 378 532 b 496 401 469 532 496 501 l 496 0 l 700 0 l 700 465 b 818 532 744 510 783 532 b 903 401 876 532 903 501 l 903 13 b 842 -99 903 -65 889 -99 b 799 -90 826 -99 813 -96 l 763 -240 b 872 -260 789 -251 822 -260 z "},"ɲ":{"ha":794,"x_min":0,"x_max":0,"o":"m 63 -260 b 294 6 239 -260 294 -139 l 294 465 b 422 532 339 508 371 532 b 507 401 481 532 507 501 l 507 0 l 711 0 l 711 428 b 497 706 711 600 647 706 b 276 601 404 706 335 657 l 271 601 l 257 689 l 90 689 l 90 -1 b 31 -99 90 -69 75 -99 b -10 -90 17 -99 4 -96 l -46 -240 b 63 -260 -21 -251 11 -260 z "},"ɳ":{"ha":794,"x_min":0,"x_max":0,"o":"m 739 -260 b 847 -240 790 -260 822 -251 l 811 -90 b 771 -99 797 -96 785 -99 b 711 -1 726 -99 711 -69 l 711 428 b 497 706 711 600 647 706 b 276 601 404 706 335 657 l 271 601 l 257 689 l 90 689 l 90 0 l 294 0 l 294 465 b 422 532 339 508 371 532 b 507 401 481 532 507 501 l 507 6 b 739 -260 507 -139 563 -260 z "},"ɴ":{"ha":779,"x_min":0,"x_max":0,"o":"m 90 0 l 281 0 l 281 192 b 263 435 281 261 271 350 l 268 435 b 336 290 288 393 315 331 l 501 0 l 689 0 l 689 689 l 499 689 l 499 497 b 515 254 499 429 508 338 l 511 254 b 442 399 492 294 463 358 l 278 689 l 90 689 z "},"ɵ":{"ha":771,"x_min":0,"x_max":0,"o":"m 386 -17 b 721 344 563 -17 721 107 b 386 706 721 582 563 706 b 50 344 208 706 50 582 b 386 -17 50 107 208 -17 z m 386 554 b 524 419 460 554 507 507 l 247 419 b 386 554 264 507 313 554 z m 386 136 b 244 285 308 136 258 188 l 526 285 b 386 136 513 188 463 136 z "},"ɶ":{"ha":1008,"x_min":0,"x_max":0,"o":"m 404 -17 b 564 0 458 -17 500 -14 l 972 0 l 972 146 l 674 146 l 674 285 l 915 285 l 915 419 l 674 419 l 674 540 l 958 540 l 958 689 l 564 689 b 404 706 496 703 458 706 b 50 343 225 706 50 585 b 404 -17 50 97 225 -17 z m 414 144 b 260 343 335 144 260 192 b 414 542 260 486 335 542 b 474 533 432 542 453 539 l 474 153 b 414 144 453 147 432 144 z "},"ɸ":{"ha":1025,"x_min":0,"x_max":0,"o":"m 260 344 b 419 547 260 472 322 542 l 419 142 b 260 344 322 147 260 217 z m 765 344 b 606 142 765 217 703 147 l 606 547 b 765 344 704 542 765 472 z m 419 -256 l 606 -256 l 606 -11 b 975 344 797 -1 975 122 b 606 700 975 567 799 690 l 606 974 l 419 974 l 419 700 b 50 344 226 690 50 567 b 419 -11 50 122 226 -1 z "},"ɹ":{"ha":553,"x_min":0,"x_max":0,"o":"m 81 -17 b 276 121 151 -17 226 28 l 282 121 l 297 0 l 464 0 l 464 689 l 260 689 l 260 290 b 107 163 222 196 160 163 b 33 174 78 163 57 168 l -1 -3 b 81 -17 19 -11 42 -17 z "},"ɺ":{"ha":553,"x_min":0,"x_max":0,"o":"m 81 -17 b 276 121 151 -17 226 28 l 282 121 l 297 0 l 464 0 l 464 974 l 260 974 l 260 290 b 107 163 222 196 160 163 b 33 174 78 163 57 168 l -1 -3 b 81 -17 19 -11 42 -17 z "},"ɻ":{"ha":553,"x_min":0,"x_max":0,"o":"m 492 -260 b 599 -240 542 -260 574 -251 l 563 -90 b 522 -99 549 -96 538 -99 b 464 -1 479 -99 464 -69 l 464 689 l 260 689 l 260 290 b 107 163 222 196 160 163 b 33 174 78 163 57 168 l -1 -3 b 81 -17 19 -11 42 -17 b 276 121 151 -17 226 28 l 282 121 l 282 -25 b 492 -260 282 -151 332 -260 z "},"ɽ":{"ha":553,"x_min":0,"x_max":0,"o":"m 322 -260 b 429 -240 372 -260 404 -251 l 393 -90 b 354 -99 379 -96 368 -99 b 294 -1 310 -99 294 -69 l 294 400 b 446 526 331 493 394 526 b 521 515 475 526 496 522 l 554 692 b 472 706 535 700 511 706 b 276 568 401 706 326 661 l 271 568 l 257 689 l 90 689 l 90 6 b 322 -260 90 -139 144 -260 z "},"ɾ":{"ha":528,"x_min":0,"x_max":0,"o":"m 90 0 l 294 0 l 294 378 b 403 529 294 490 356 529 b 497 515 443 529 458 526 l 529 686 b 374 706 494 697 442 706 b 90 422 174 706 90 578 z "},"ʀ":{"ha":739,"x_min":0,"x_max":0,"o":"m 90 0 l 294 0 l 294 225 l 368 225 l 492 0 l 718 0 l 547 268 b 658 461 611 304 658 367 b 374 689 658 633 532 689 l 90 689 z m 294 363 l 294 539 l 349 539 b 457 456 421 539 457 511 b 349 363 457 400 421 363 z "},"ʁ":{"ha":739,"x_min":0,"x_max":0,"o":"m 365 0 l 649 0 l 649 689 l 444 689 l 444 465 l 371 465 l 247 689 l 21 689 l 192 422 b 81 229 128 386 81 324 b 365 0 81 57 207 0 z m 390 150 b 282 235 318 150 282 178 b 390 328 282 289 318 328 l 444 328 l 444 150 z "},"ʂ":{"ha":615,"x_min":0,"x_max":0,"o":"m 293 -17 b 576 206 478 -17 576 81 b 390 413 576 332 478 381 b 256 500 319 439 256 456 b 333 554 256 535 281 554 b 479 496 382 554 429 532 l 571 618 b 328 706 511 663 433 706 b 64 490 168 706 64 618 b 246 288 64 376 163 319 b 386 193 317 260 386 239 b 299 135 386 157 360 135 b 121 200 240 135 183 154 l 29 72 l 29 18 b 251 -260 29 -133 82 -260 b 374 -240 310 -260 346 -251 l 338 -94 b 283 -104 318 -100 303 -104 b 208 -8 235 -104 213 -72 b 293 -17 238 -14 265 -17 z "},"ʃ":{"ha":386,"x_min":0,"x_max":0,"o":"m 50 -272 b 296 4 238 -272 296 -146 l 296 719 b 383 831 296 796 318 831 b 424 821 397 831 410 826 l 460 971 b 351 990 435 982 403 990 b 92 713 153 990 92 864 l 92 -1 b 19 -112 92 -78 74 -112 b -35 -103 0 -112 -17 -108 l -71 -253 b 50 -272 -43 -264 -7 -272 z "},"ʄ":{"ha":446,"x_min":0,"x_max":0,"o":"m 78 -272 b 324 4 265 -272 324 -146 l 324 310 l 422 310 l 422 408 l 324 408 l 324 719 b 411 831 324 796 346 831 b 451 821 425 831 438 826 l 488 971 b 379 990 463 982 431 990 b 119 713 181 990 119 864 l 119 408 l 17 400 l 17 310 l 119 310 l 119 -1 b 47 -112 119 -78 101 -112 b -7 -103 28 -112 11 -108 l -43 -253 b 78 -272 -15 -264 21 -272 z "},"ʈ":{"ha":532,"x_min":0,"x_max":0,"o":"m 356 -260 b 508 -235 422 -260 472 -246 l 476 -86 b 411 -100 458 -93 433 -100 b 322 10 357 -100 322 -68 l 322 529 l 488 529 l 488 689 l 322 689 l 322 872 l 153 872 l 129 689 l 24 681 l 24 529 l 118 529 l 118 7 b 356 -260 118 -153 185 -260 z "},"ʉ":{"ha":857,"x_min":0,"x_max":0,"o":"m 17 372 l 121 372 l 121 261 b 335 -17 121 89 185 -17 b 551 96 429 -17 493 26 l 556 96 l 571 0 l 738 0 l 738 372 l 835 372 l 835 471 l 738 471 l 738 689 l 533 689 l 533 471 l 325 471 l 325 689 l 121 689 l 121 471 l 17 463 z m 411 157 b 325 288 351 157 325 189 l 325 372 l 533 372 l 533 233 b 411 157 493 179 463 157 z "},"ʊ":{"ha":775,"x_min":0,"x_max":0,"o":"m 388 -17 b 719 279 599 -17 719 132 b 621 525 719 390 671 475 l 621 529 l 733 529 l 733 689 l 438 689 l 438 557 b 515 324 489 493 515 429 b 388 149 515 225 475 149 b 260 324 300 149 260 225 b 338 557 260 429 286 493 l 338 689 l 40 689 l 40 529 l 154 529 l 154 525 b 56 279 104 475 56 390 b 388 -17 56 132 175 -17 z "},"ʋ":{"ha":767,"x_min":0,"x_max":0,"o":"m 379 -17 b 715 415 601 -17 715 157 b 478 706 715 618 613 706 b 383 694 435 706 408 703 l 406 543 b 433 547 415 546 424 547 b 506 385 483 547 506 496 b 389 149 506 239 464 149 b 288 304 325 149 288 196 l 288 689 l 83 689 l 83 301 b 379 -17 83 90 199 -17 z "},"ʌ":{"ha":726,"x_min":0,"x_max":0,"o":"m 17 0 l 213 0 l 301 325 b 356 538 319 393 338 465 l 361 538 b 414 325 378 465 397 393 l 504 0 l 710 0 l 476 689 l 242 689 z "},"ʍ":{"ha":1078,"x_min":0,"x_max":0,"o":"m 33 0 l 222 0 l 288 319 b 319 524 300 388 307 454 l 325 524 b 368 319 339 454 351 388 l 446 0 l 622 0 l 697 319 b 739 524 714 385 726 454 l 744 524 b 775 319 756 454 764 388 l 842 0 l 1044 0 l 872 689 l 638 689 l 578 414 b 543 213 564 350 554 286 l 538 213 b 500 414 525 286 513 350 l 438 689 l 199 689 z "},"ʎ":{"ha":724,"x_min":0,"x_max":0,"o":"m 17 0 l 213 0 l 296 296 b 343 492 313 361 328 426 l 349 492 b 404 296 367 424 383 358 l 503 0 l 707 0 l 442 671 l 464 739 b 585 829 482 792 517 829 b 631 821 599 829 618 824 l 667 976 b 569 990 639 985 611 990 b 268 728 407 990 333 900 z "},"ʏ":{"ha":647,"x_min":0,"x_max":0,"o":"m 222 0 l 426 0 l 426 208 l 658 689 l 446 689 l 389 540 b 328 376 368 483 349 435 l 322 376 b 264 540 303 435 282 483 l 204 689 l -11 689 l 222 208 z "},"ʐ":{"ha":639,"x_min":0,"x_max":0,"o":"m 619 -260 b 728 -240 671 -260 701 -251 l 692 -90 b 651 -99 678 -96 665 -99 b 592 -1 607 -99 592 -69 l 592 160 l 307 160 l 596 581 l 596 689 l 85 689 l 85 529 l 342 529 l 53 110 l 53 0 l 388 0 l 388 -18 b 619 -260 388 -139 447 -260 z "},"ʑ":{"ha":699,"x_min":0,"x_max":0,"o":"m 399 -114 b 425 0 407 -72 415 -33 l 474 0 b 718 200 644 0 718 92 b 574 353 718 301 663 353 b 374 154 492 353 425 275 b 293 160 347 156 321 157 l 582 581 l 582 689 l 85 689 l 85 529 l 342 529 l 53 110 l 53 0 l 324 0 b 301 -93 315 -29 308 -61 z m 526 149 b 476 149 510 149 493 149 b 568 244 508 215 540 244 b 610 207 596 244 610 232 b 526 149 610 176 583 149 z "},"ʒ":{"ha":639,"x_min":0,"x_max":0,"o":"m 293 -272 b 610 44 464 -272 610 -158 b 371 308 610 189 524 297 l 578 581 l 578 689 l 53 689 l 53 529 l 335 529 l 124 251 l 190 153 b 272 169 222 165 235 169 b 406 40 353 169 406 122 b 269 -107 406 -53 349 -107 b 99 -33 200 -107 144 -74 l 7 -160 b 293 -272 72 -221 161 -272 z "},"ʔ":{"ha":622,"x_min":0,"x_max":0,"o":"m 179 0 l 383 0 l 383 364 b 599 706 510 463 599 553 b 288 990 599 894 456 990 b -8 865 151 990 57 935 l 92 736 b 265 825 138 785 194 825 b 394 696 344 825 394 779 b 179 440 394 606 338 542 z "},"ʕ":{"ha":703,"x_min":0,"x_max":0,"o":"m 274 0 l 478 0 l 478 440 b 263 696 319 542 263 606 b 406 825 263 779 318 825 b 564 736 469 825 524 785 l 665 865 b 383 990 601 935 511 990 b 58 706 208 990 58 894 b 274 364 58 553 147 463 z "},"ʡ":{"ha":661,"x_min":0,"x_max":0,"o":"m 200 0 l 404 0 l 404 279 l 639 279 l 639 440 l 458 440 b 621 706 549 519 621 603 b 310 990 621 894 478 990 b 13 865 174 990 79 935 l 114 736 b 288 825 158 785 217 825 b 415 696 365 825 415 779 b 225 440 415 619 365 542 l 121 440 l 15 432 l 15 279 l 200 279 z "},"ʢ":{"ha":661,"x_min":0,"x_max":0,"o":"m 258 0 l 463 0 l 463 279 l 647 279 l 647 432 l 542 440 l 436 440 b 246 696 296 542 246 619 b 389 825 246 779 301 825 b 547 736 453 825 507 785 l 649 865 b 367 990 585 935 494 990 b 42 706 192 990 42 894 b 203 440 42 603 114 519 l 24 440 l 24 279 l 258 279 z "},"ǂ":{"ha":458,"x_min":0,"x_max":0,"o":"m 8 458 l 167 458 l 167 285 l 114 285 l 8 276 l 8 186 l 167 186 l 167 -347 l 300 -347 l 300 186 l 447 186 l 447 285 l 300 285 l 300 458 l 447 458 l 447 557 l 300 557 l 300 1042 l 167 1042 l 167 557 l 114 557 l 8 550 z "},"ʘ":{"ha":772,"x_min":0,"x_max":0,"o":"m 386 -17 b 706 489 575 -17 706 150 b 386 990 706 828 575 990 b 67 489 197 990 67 828 b 386 -17 67 150 197 -17 z m 386 149 b 253 489 319 149 253 226 b 386 825 253 743 319 825 b 519 489 453 825 519 743 b 386 149 519 226 453 149 z m 386 403 b 475 490 433 403 475 442 b 386 578 475 539 433 578 b 297 490 339 578 297 539 b 386 403 297 442 339 403 z "},"ﬀ":{"ha":913,"x_min":0,"x_max":0,"o":"m 564 0 l 768 0 l 768 529 l 892 529 l 892 689 l 768 689 l 768 731 b 847 829 768 801 797 829 b 918 815 869 829 894 824 l 956 965 b 818 990 925 976 875 990 b 564 725 632 990 564 871 l 564 689 l 329 689 l 329 721 b 411 815 329 786 364 815 b 492 800 449 815 469 810 l 529 951 b 386 976 497 964 444 976 b 125 719 199 976 125 861 l 125 688 l 33 681 l 33 529 l 125 529 l 125 0 l 329 0 l 329 529 l 564 529 z "},"ﬃ":{"ha":1296,"x_min":0,"x_max":0,"o":"m 564 0 l 768 0 l 768 529 l 892 529 l 892 689 l 768 689 l 768 731 b 847 829 768 801 797 829 b 918 815 869 829 894 824 l 956 965 b 818 990 925 976 875 990 b 564 725 632 990 564 871 l 564 689 l 329 689 l 329 721 b 411 815 329 786 364 815 b 492 800 449 815 469 810 l 529 951 b 386 976 497 964 444 976 b 125 719 199 976 125 861 l 125 688 l 33 681 l 33 529 l 125 529 l 125 0 l 329 0 l 329 529 l 564 529 z m 1003 0 l 1207 0 l 1207 689 l 1003 689 z m 1104 790 b 1222 897 1174 790 1222 835 b 1104 1003 1222 960 1174 1003 b 986 897 1036 1003 986 960 b 1104 790 986 835 1036 790 z "},"ﬄ":{"ha":1310,"x_min":0,"x_max":0,"o":"m 564 0 l 768 0 l 768 529 l 892 529 l 892 689 l 768 689 l 768 731 b 847 829 768 801 797 829 b 918 815 869 829 894 824 l 956 965 b 818 990 925 976 875 990 b 564 725 632 990 564 871 l 564 689 l 329 689 l 329 721 b 411 815 329 786 364 815 b 492 800 449 815 469 810 l 529 951 b 386 976 497 964 444 976 b 125 719 199 976 125 861 l 125 688 l 33 681 l 33 529 l 125 529 l 125 0 l 329 0 l 329 529 l 564 529 z m 1190 -17 b 1293 0 1236 -17 1271 -10 l 1268 151 b 1243 149 1257 149 1251 149 b 1207 206 1226 149 1207 163 l 1207 974 l 1003 974 l 1003 214 b 1190 -17 1003 75 1050 -17 z "},"Α":{"ha":796,"x_min":0,"x_max":0,"o":"m 319 458 b 390 750 344 549 368 654 l 396 750 b 469 458 419 656 444 549 l 490 375 l 297 375 z m -8 0 l 200 0 l 256 215 l 532 215 l 588 0 l 804 0 l 521 906 l 275 906 z "},"Β":{"ha":840,"x_min":0,"x_max":0,"o":"m 107 0 l 443 0 b 794 267 639 0 794 82 b 632 479 794 388 724 456 l 632 485 b 750 681 706 513 750 600 b 417 906 750 854 604 906 l 107 906 z m 311 543 l 311 747 l 408 747 b 550 650 504 747 550 721 b 407 543 550 585 507 543 z m 311 158 l 311 392 l 426 392 b 594 281 539 392 594 360 b 426 158 594 197 538 158 z "},"Γ":{"ha":724,"x_min":0,"x_max":0,"o":"m 107 0 l 311 0 l 311 733 l 678 733 l 678 906 l 107 906 z "},"Δ":{"ha":889,"x_min":0,"x_max":0,"o":"m 47 0 l 842 0 l 842 124 l 567 906 l 322 906 l 47 124 z m 267 172 l 361 478 l 438 749 l 443 749 l 521 478 l 617 172 z "},"Ε":{"ha":761,"x_min":0,"x_max":0,"o":"m 107 0 l 688 0 l 688 172 l 311 172 l 311 381 l 619 381 l 619 551 l 311 551 l 311 733 l 674 733 l 674 906 l 107 906 z "},"Ζ":{"ha":751,"x_min":0,"x_max":0,"o":"m 50 0 l 706 0 l 706 172 l 301 172 l 701 782 l 701 906 l 88 906 l 88 733 l 450 733 l 50 124 z "},"Η":{"ha":936,"x_min":0,"x_max":0,"o":"m 107 0 l 311 0 l 311 378 l 624 378 l 624 0 l 829 0 l 829 906 l 624 906 l 624 557 l 311 557 l 311 906 l 107 906 z "},"Θ":{"ha":950,"x_min":0,"x_max":0,"o":"m 339 378 l 611 378 l 611 557 l 339 557 z m 475 -17 b 886 457 719 -17 886 161 b 475 922 886 751 719 922 b 64 457 231 922 64 753 b 475 -17 64 161 231 -17 z m 475 160 b 274 457 351 160 274 275 b 475 746 274 638 351 746 b 676 457 599 746 676 638 b 475 160 676 275 599 160 z "},"Ι":{"ha":418,"x_min":0,"x_max":0,"o":"m 107 0 l 311 0 l 311 906 l 107 906 z "},"Κ":{"ha":853,"x_min":0,"x_max":0,"o":"m 107 0 l 311 0 l 311 243 l 417 382 l 638 0 l 861 0 l 538 544 l 811 906 l 586 906 l 317 535 l 311 535 l 311 906 l 107 906 z "},"Λ":{"ha":772,"x_min":0,"x_max":0,"o":"m -10 0 l 199 0 l 306 422 b 379 713 332 521 351 613 l 385 713 b 457 422 411 613 429 521 l 565 0 l 782 0 l 508 906 l 263 906 z "},"Μ":{"ha":1058,"x_min":0,"x_max":0,"o":"m 107 0 l 290 0 l 290 332 b 264 640 290 421 274 553 l 269 640 l 342 425 l 471 79 l 583 79 l 713 425 l 786 640 l 792 640 b 765 332 782 553 765 421 l 765 0 l 951 0 l 951 906 l 729 906 l 586 503 b 535 336 568 450 553 392 l 529 336 b 476 503 511 392 494 450 l 331 906 l 107 906 z "},"Ν":{"ha":924,"x_min":0,"x_max":0,"o":"m 107 0 l 301 0 l 301 321 b 276 649 301 428 285 549 l 282 649 l 371 451 l 607 0 l 817 0 l 817 906 l 622 906 l 622 586 b 647 256 622 479 639 351 l 642 256 l 553 456 l 317 906 l 107 906 z "},"Ξ":{"ha":793,"x_min":0,"x_max":0,"o":"m 74 0 l 721 0 l 721 172 l 74 172 z m 168 381 l 625 381 l 625 551 l 168 551 z m 88 733 l 707 733 l 707 906 l 88 906 z "},"Ο":{"ha":950,"x_min":0,"x_max":0,"o":"m 475 -17 b 886 457 719 -17 886 161 b 475 922 886 751 719 922 b 64 457 231 922 64 753 b 475 -17 64 161 231 -17 z m 475 160 b 274 457 351 160 274 275 b 475 746 274 638 351 746 b 676 457 599 746 676 638 b 475 160 676 275 599 160 z "},"Π":{"ha":921,"x_min":0,"x_max":0,"o":"m 107 0 l 311 0 l 311 733 l 610 733 l 610 0 l 814 0 l 814 906 l 107 906 z "},"Ρ":{"ha":828,"x_min":0,"x_max":0,"o":"m 107 0 l 311 0 l 311 307 l 424 307 b 778 614 615 307 778 401 b 418 906 778 833 617 906 l 107 906 z m 311 469 l 311 743 l 406 743 b 578 614 517 743 578 708 b 411 469 578 519 524 469 z "},"Σ":{"ha":763,"x_min":0,"x_max":0,"o":"m 53 0 l 715 0 l 715 172 l 308 172 l 538 463 l 313 733 l 678 733 l 678 906 l 57 906 l 57 782 l 333 457 l 53 124 z "},"Τ":{"ha":772,"x_min":0,"x_max":0,"o":"m 283 0 l 489 0 l 489 733 l 738 733 l 738 906 l 35 906 l 35 733 l 283 733 z "},"Υ":{"ha":729,"x_min":0,"x_max":0,"o":"m 263 0 l 467 0 l 467 322 l 740 906 l 526 906 l 444 697 b 368 497 419 629 394 567 l 363 497 b 289 697 338 567 314 629 l 208 906 l -11 906 l 263 322 z "},"Φ":{"ha":1056,"x_min":0,"x_max":0,"o":"m 260 457 b 438 664 260 572 329 647 l 438 246 b 260 457 329 263 260 340 z m 796 457 b 618 246 796 340 726 263 l 618 664 b 796 457 726 647 796 572 z m 438 -31 l 618 -31 l 618 90 b 989 457 842 108 989 238 b 618 817 989 675 842 799 l 618 936 l 438 936 l 438 817 b 67 457 214 799 67 675 b 438 90 67 238 214 108 z "},"Χ":{"ha":788,"x_min":0,"x_max":0,"o":"m 15 0 l 235 0 l 319 185 b 381 333 339 232 360 278 l 386 333 b 454 185 411 278 432 232 l 544 0 l 772 0 l 522 456 l 757 906 l 539 906 l 467 735 b 408 589 449 693 429 646 l 403 589 b 338 735 378 646 358 693 l 258 906 l 31 906 l 267 465 z "},"Ψ":{"ha":1044,"x_min":0,"x_max":0,"o":"m 426 0 l 618 0 l 618 304 b 971 682 838 321 971 433 l 971 906 l 771 906 l 771 694 b 618 467 771 539 718 479 l 618 906 l 426 906 l 426 467 b 272 694 326 479 272 539 l 272 906 l 72 906 l 72 682 b 426 304 72 433 206 321 z "},"Ω":{"ha":988,"x_min":0,"x_max":0,"o":"m 61 0 l 432 0 l 432 147 b 293 476 339 235 293 335 b 494 746 293 633 368 746 b 696 476 619 746 696 633 b 556 147 696 335 649 235 l 556 0 l 926 0 l 926 165 l 774 165 l 774 171 b 906 497 833 232 906 347 b 494 922 906 749 740 922 b 83 497 247 922 83 749 b 214 171 83 347 154 232 l 214 165 l 61 165 z "},"Ά":{"ha":864,"x_min":0,"x_max":0,"o":"m 388 458 b 458 750 413 549 436 654 l 464 750 b 538 458 488 656 513 549 l 558 375 l 365 375 z m 60 0 l 268 0 l 324 215 l 600 215 l 656 0 l 872 0 l 589 906 l 343 906 z m -7 635 l 122 611 l 206 906 l 32 931 z "},"Έ":{"ha":926,"x_min":0,"x_max":0,"o":"m 272 0 l 853 0 l 853 172 l 476 172 l 476 381 l 785 381 l 785 551 l 476 551 l 476 733 l 839 733 l 839 906 l 272 906 z m -17 635 l 113 611 l 196 906 l 22 931 z "},"Ή":{"ha":1100,"x_min":0,"x_max":0,"o":"m 272 0 l 476 0 l 476 378 l 789 378 l 789 0 l 994 0 l 994 906 l 789 906 l 789 557 l 476 557 l 476 906 l 272 906 z m -17 635 l 113 611 l 196 906 l 22 931 z "},"Ί":{"ha":583,"x_min":0,"x_max":0,"o":"m 272 0 l 476 0 l 476 906 l 272 906 z m -17 635 l 113 611 l 196 906 l 22 931 z "},"Ϊ":{"ha":418,"x_min":0,"x_max":0,"o":"m 107 0 l 311 0 l 311 906 l 107 906 z m 56 972 b 153 1069 113 972 153 1014 b 56 1167 153 1125 113 1167 b -42 1069 -1 1167 -42 1125 b 56 972 -42 1014 -1 972 z m 364 972 b 461 1069 421 972 461 1014 b 364 1167 461 1125 421 1167 b 267 1069 307 1167 267 1125 b 364 972 267 1014 307 972 z "},"Ό":{"ha":1079,"x_min":0,"x_max":0,"o":"m 603 -17 b 1014 457 847 -17 1014 161 b 603 922 1014 751 847 922 b 192 457 358 922 192 753 b 603 -17 192 161 358 -17 z m 603 160 b 401 457 479 160 401 275 b 603 746 401 638 479 746 b 804 457 726 746 804 638 b 603 160 804 275 726 160 z m -17 635 l 113 611 l 196 906 l 22 931 z "},"Ύ":{"ha":978,"x_min":0,"x_max":0,"o":"m 511 0 l 715 0 l 715 322 l 989 906 l 775 906 l 693 697 b 617 497 668 629 643 567 l 611 497 b 538 697 586 567 563 629 l 457 906 l 238 906 l 511 322 z m -17 635 l 113 611 l 196 906 l 22 931 z "},"Ϋ":{"ha":729,"x_min":0,"x_max":0,"o":"m 263 0 l 467 0 l 467 322 l 740 906 l 526 906 l 444 697 b 368 497 419 629 394 567 l 363 497 b 289 697 338 567 314 629 l 208 906 l -11 906 l 263 322 z m 210 972 b 307 1069 267 972 307 1014 b 210 1167 307 1125 267 1167 b 113 1069 153 1167 113 1125 b 210 972 113 1014 153 972 z m 518 972 b 615 1069 575 972 615 1014 b 518 1167 615 1125 575 1167 b 421 1069 461 1167 421 1125 b 518 972 421 1014 461 972 z "},"Ώ":{"ha":1115,"x_min":0,"x_max":0,"o":"m 189 0 l 560 0 l 560 147 b 421 476 467 235 421 335 b 622 746 421 633 496 746 b 824 476 747 746 824 633 b 683 147 824 335 776 235 l 683 0 l 1054 0 l 1054 165 l 901 165 l 901 171 b 1033 497 961 232 1033 347 b 622 922 1033 749 868 922 b 211 497 375 922 211 749 b 342 171 211 347 282 232 l 342 165 l 189 165 z m -28 635 l 101 611 l 185 906 l 11 931 z "},"α":{"ha":826,"x_min":0,"x_max":0,"o":"m 326 -17 b 518 97 407 -17 471 19 l 522 97 b 700 -17 547 14 603 -17 b 821 7 756 -17 796 -6 l 796 157 b 751 149 781 151 764 149 b 685 211 713 149 685 165 b 774 689 685 317 738 529 l 572 689 l 550 568 l 544 568 b 354 706 500 667 432 706 b 50 342 194 706 50 569 b 326 -17 50 117 160 -17 z m 375 150 b 260 343 304 150 260 210 b 386 539 260 481 324 539 b 510 418 442 539 481 500 l 500 299 b 375 150 496 217 436 150 z "},"β":{"ha":833,"x_min":0,"x_max":0,"o":"m 89 -246 l 296 -246 b 281 76 290 -140 286 -33 b 508 -17 350 3 433 -17 b 785 278 642 -17 785 75 b 596 524 785 407 701 503 l 596 529 b 713 738 671 576 713 644 b 411 990 713 911 564 990 b 89 647 190 990 89 840 z m 449 150 b 279 235 396 150 332 165 b 286 635 279 369 282 500 b 411 829 290 753 331 829 b 517 718 467 829 517 793 b 375 563 517 640 482 578 l 400 414 b 456 422 417 419 435 422 b 585 290 542 422 585 363 b 449 150 585 196 522 150 z "},"γ":{"ha":740,"x_min":0,"x_max":0,"o":"m 257 -246 l 468 -246 b 450 18 468 -168 465 -68 b 717 689 628 296 676 456 l 514 689 b 397 231 504 522 467 374 l 392 231 b 207 706 342 426 268 613 l -1 661 b 267 -57 146 453 267 118 b 257 -246 267 -151 264 -189 z "},"δ":{"ha":761,"x_min":0,"x_max":0,"o":"m 379 -17 b 706 310 583 -17 706 115 b 506 629 706 458 629 539 b 311 801 403 704 311 753 b 375 839 311 824 331 839 b 635 783 446 839 538 817 l 681 935 b 375 990 585 967 475 990 b 122 821 203 990 122 911 b 267 586 122 715 190 643 b 57 300 154 538 57 444 b 379 -17 57 101 203 -17 z m 383 149 b 250 303 311 149 250 203 b 401 493 250 407 308 468 b 508 311 463 444 508 390 b 383 149 508 197 457 149 z "}}}
